<svg xmlns="http://www.w3.org/2000/svg" xmlns:xlink="http://www.w3.org/1999/xlink" width="500" viewBox="0 0 375 374.999991" height="500" preserveAspectRatio="xMidYMid meet"><defs><g></g><clipPath id="20cd416f24"><path d="M 187.5 0 C 83.945312 0 0 83.945312 0 187.5 C 0 291.054688 83.945312 375 187.5 375 C 291.054688 375 375 291.054688 375 187.5 C 375 83.945312 291.054688 0 187.5 0 " clip-rule="nonzero"></path></clipPath><clipPath id="0b0f949336"><path d="M 241.546875 295.488281 L 289.761719 295.488281 L 289.761719 300.867188 L 241.546875 300.867188 Z M 241.546875 295.488281 " clip-rule="nonzero"></path></clipPath><clipPath id="bafbb7a133"><path d="M 65.636719 216.117188 L 309.386719 216.117188 L 309.386719 300 L 65.636719 300 Z M 65.636719 216.117188 " clip-rule="nonzero"></path></clipPath><clipPath id="f202890120"><path d="M 112 54 L 256 54 L 256 198.84375 L 112 198.84375 Z M 112 54 " clip-rule="nonzero"></path></clipPath></defs><rect x="-37.5" width="450" fill="#ffffff" y="-37.499999" height="449.999989" fill-opacity="1"></rect><path fill="#fefefe" d="M 187.5 0 C 83.945312 0 0 83.945312 0 187.5 C 0 291.054688 83.945312 375 187.5 375 C 291.054688 375 375 291.054688 375 187.5 C 375 83.945312 291.054688 0 187.5 0 " fill-opacity="1" fill-rule="nonzero"></path><g clip-path="url(#20cd416f24)"><path stroke-linecap="butt" transform="matrix(0.75, 0, 0, 0.75, 0.0000045, 0)" fill="none" stroke-linejoin="miter" d="M 249.999994 0 C 111.927078 0 -0.000006 111.927084 -0.000006 250 C -0.000006 388.072917 111.927078 500.000001 249.999994 500.000001 C 388.072911 500.000001 499.999995 388.072917 499.999995 250 C 499.999995 111.927084 388.072911 0 249.999994 0 " stroke="#fcca29" stroke-width="8" stroke-opacity="1" stroke-miterlimit="4"></path></g><g clip-path="url(#0b0f949336)"><path fill="#fcca29" d="M 288.203125 298.226562 C 286.554688 297.871094 284.90625 297.515625 283.195312 297.511719 C 280.378906 297.503906 277.582031 297.117188 274.777344 296.917969 C 270.453125 296.613281 266.128906 296.226562 261.792969 296.046875 C 256.75 296.441406 251.667969 295.363281 246.636719 296.421875 C 246.335938 296.488281 245.996094 296.40625 245.675781 296.375 C 244.800781 296.28125 243.953125 296.605469 243.15625 297.347656 C 242.757812 297.714844 242.050781 297.261719 241.671875 297.898438 C 242.363281 298.007812 242.996094 298.117188 243.628906 298.207031 C 244.757812 298.363281 246 299.121094 246.726562 297.433594 C 246.921875 296.976562 247.515625 297.214844 247.753906 297.523438 C 248.648438 298.671875 249.890625 298.496094 251.09375 298.5 C 253.515625 298.507812 255.933594 298.5 258.359375 298.5 C 258.519531 298.5 258.679688 298.503906 258.839844 298.507812 C 258.839844 298.667969 258.84375 298.828125 258.84375 298.988281 C 261.101562 298.988281 263.363281 298.992188 265.621094 298.992188 C 265.777344 299.007812 265.933594 299.015625 266.089844 299.015625 C 266.097656 299.015625 266.109375 299.015625 266.117188 299.015625 C 266.089844 299.125 266.0625 299.238281 266.046875 299.367188 C 266.8125 300.042969 267.738281 299.703125 268.585938 299.707031 C 275.078125 299.722656 281.554688 299.964844 287.996094 300.875 C 288.140625 300.808594 288.289062 300.738281 288.433594 300.671875 C 289.003906 300.421875 289.78125 300.351562 289.75 299.488281 C 289.710938 298.539062 288.886719 298.371094 288.203125 298.226562 " fill-opacity="1" fill-rule="nonzero"></path></g><g clip-path="url(#bafbb7a133)"><path fill="#fcca29" d="M 300.164062 286.210938 C 300.164062 286.210938 300.167969 286.207031 300.167969 286.207031 C 300.167969 286.207031 300.164062 286.210938 300.164062 286.210938 Z M 300.265625 286.179688 C 300.675781 286.039062 301.058594 285.8125 301.402344 285.453125 C 301.066406 285.832031 300.679688 286.054688 300.265625 286.179688 Z M 288.539062 286.5625 C 279.03125 286.550781 269.550781 287.453125 260.042969 287.15625 C 259.285156 287.128906 258.449219 287.40625 257.644531 286.679688 C 258.664062 285.863281 259.8125 286.027344 260.886719 286.019531 C 266.527344 285.980469 272.167969 285.949219 277.808594 286.019531 C 284.386719 286.097656 290.96875 285.707031 297.542969 286.300781 C 294.53125 286.238281 291.527344 286.566406 288.539062 286.5625 Z M 118.871094 288.386719 C 118.867188 288.398438 118.863281 288.410156 118.859375 288.425781 C 118.816406 288.359375 118.773438 288.292969 118.726562 288.222656 C 118.726562 288.222656 118.871094 288.386719 118.871094 288.386719 Z M 113.03125 259.757812 C 112.609375 259.796875 112.15625 259.820312 111.675781 259.75 C 112.132812 259.769531 112.585938 259.769531 113.03125 259.757812 Z M 126.007812 258.242188 C 130.402344 257.71875 134.765625 256.691406 138.75 257.429688 C 137.503906 257.640625 135.742188 256.8125 134.023438 257.527344 C 133.09375 257.722656 132.152344 257.796875 131.203125 257.820312 C 130.199219 258.015625 129.167969 257.984375 128.152344 258.089844 C 127.261719 258.148438 126.40625 258.355469 125.574219 258.675781 C 125.207031 258.789062 124.828125 258.828125 124.449219 258.835938 C 123.917969 258.847656 123.390625 258.84375 122.859375 258.859375 C 122.261719 258.882812 121.78125 259.09375 121.527344 259.683594 C 121.523438 259.757812 121.527344 259.832031 121.539062 259.898438 C 121.066406 259.46875 120.492188 259.335938 119.855469 259.371094 C 118.933594 259.53125 117.996094 259.226562 117.078125 259.472656 C 116.410156 259.621094 115.777344 259.824219 115.453125 260.496094 C 115.449219 260.46875 115.449219 260.441406 115.445312 260.414062 C 115.085938 259.917969 114.671875 259.75 114.207031 259.710938 C 118.339844 259.433594 122.105469 258.234375 126.007812 258.242188 Z M 93.285156 243.304688 C 95.453125 242.542969 97.648438 242.433594 99.667969 241.625 C 99.800781 241.503906 99.898438 241.363281 99.96875 241.207031 C 100.675781 242.324219 101.949219 242.046875 103 242.332031 C 105.96875 241.863281 108.941406 242.386719 111.910156 242.316406 C 113.675781 242.273438 115.4375 242.09375 117.210938 242.203125 C 117.957031 242.25 118.722656 241.816406 118.785156 240.988281 C 118.859375 239.992188 117.984375 239.917969 117.257812 239.886719 C 116.054688 239.839844 114.875 239.425781 114.152344 239.554688 C 117.152344 238.703125 120.6875 237.976562 124.28125 237.605469 C 127.460938 237.273438 130.691406 237.40625 133.800781 236.46875 C 133.832031 236.402344 133.859375 236.332031 133.882812 236.265625 C 134.136719 236.492188 134.433594 236.539062 134.769531 236.457031 C 134.773438 236.449219 134.777344 236.445312 134.78125 236.4375 C 134.785156 236.519531 134.789062 236.601562 134.789062 236.683594 C 135.632812 236.71875 136.410156 236.898438 136.617188 237.871094 C 136.84375 238.925781 135.851562 239.078125 135.308594 239.558594 C 135.242188 239.433594 135.152344 239.320312 135.039062 239.222656 C 133.453125 238.511719 132.109375 239.148438 130.753906 239.941406 C 127.980469 241.558594 124.972656 242.574219 121.855469 243.304688 C 121.164062 243.523438 120.429688 243.625 119.792969 243.984375 C 119.785156 243.984375 119.777344 243.984375 119.769531 243.984375 C 119.597656 243.824219 119.433594 243.828125 119.273438 244 L 119.261719 244.011719 C 119.269531 244.179688 119.28125 244.351562 119.292969 244.523438 C 119.292969 244.523438 119.296875 244.523438 119.300781 244.523438 C 119.300781 244.523438 119.300781 244.523438 119.296875 244.527344 C 119.292969 244.542969 119.285156 244.5625 119.273438 244.578125 C 119.246094 244.429688 119.210938 244.273438 119.167969 244.105469 C 118.863281 243.859375 118.519531 243.675781 118.152344 243.539062 C 109.902344 243.113281 101.644531 243.5625 93.285156 243.304688 Z M 200.058594 220.519531 C 200.082031 220.519531 200.105469 220.519531 200.132812 220.519531 C 200.027344 220.546875 199.925781 220.582031 199.828125 220.613281 C 199.835938 220.566406 199.894531 220.53125 200.058594 220.519531 Z M 241.273438 219.578125 C 240.402344 219.777344 239.761719 219.871094 239.886719 220.5 C 239.675781 220.417969 239.464844 220.332031 239.257812 220.226562 C 238.855469 219.988281 238.421875 219.902344 237.957031 219.972656 C 237.726562 220.03125 237.5 220.082031 237.269531 220.128906 C 236.332031 219.6875 235.246094 220.019531 234.242188 219.9375 C 234.800781 219.910156 235.347656 219.8125 235.875 219.511719 C 235.902344 219.484375 235.933594 219.460938 235.957031 219.433594 C 237.617188 219.480469 239.300781 219.710938 241.273438 219.578125 Z M 254.066406 236.636719 C 254.078125 236.652344 254.085938 236.675781 254.097656 236.695312 C 254.058594 236.695312 254.027344 236.695312 253.992188 236.695312 C 254.015625 236.671875 254.042969 236.65625 254.066406 236.636719 Z M 268.519531 241.582031 C 268.515625 241.582031 268.511719 241.582031 268.507812 241.582031 C 268.511719 241.570312 268.515625 241.5625 268.519531 241.554688 C 268.519531 241.5625 268.519531 241.574219 268.519531 241.582031 Z M 216.148438 219.910156 C 216.265625 219.910156 216.382812 219.910156 216.496094 219.910156 C 217.191406 219.910156 217.890625 219.910156 218.585938 219.910156 C 218.597656 219.910156 218.609375 219.910156 218.621094 219.910156 C 217.796875 219.910156 216.972656 219.910156 216.148438 219.910156 Z M 229.421875 219.910156 C 230.390625 219.910156 231.359375 219.90625 232.328125 219.898438 C 232.523438 219.898438 232.71875 219.90625 232.914062 219.910156 C 231.75 219.910156 230.585938 219.910156 229.421875 219.910156 Z M 197.195312 224.640625 C 198.472656 224.773438 199.753906 224.796875 201.03125 224.792969 C 201.011719 224.792969 200.988281 224.792969 200.964844 224.792969 C 199.558594 224.808594 198.15625 224.898438 196.773438 225.015625 C 196.820312 224.90625 196.800781 224.75 196.6875 224.527344 C 196.722656 224.527344 196.761719 224.527344 196.796875 224.527344 C 196.929688 224.566406 197.0625 224.605469 197.195312 224.640625 Z M 190.503906 225.609375 C 191.769531 225.457031 193.09375 225.277344 194.4375 225.230469 C 193.101562 225.367188 191.785156 225.503906 190.503906 225.609375 Z M 244.375 233.738281 C 244.351562 233.726562 244.324219 233.714844 244.300781 233.703125 C 244.300781 233.6875 244.300781 233.675781 244.300781 233.664062 C 244.335938 233.683594 244.371094 233.703125 244.410156 233.71875 C 244.398438 233.726562 244.386719 233.734375 244.375 233.738281 Z M 247.691406 232.808594 C 247.691406 232.804688 247.691406 232.804688 247.691406 232.804688 C 247.691406 232.804688 247.691406 232.804688 247.691406 232.808594 Z M 247.839844 232.949219 C 247.851562 232.957031 247.863281 232.964844 247.875 232.96875 C 247.925781 233.011719 247.976562 233.054688 248.03125 233.09375 C 247.964844 233.054688 247.902344 233.003906 247.839844 232.949219 Z M 207.363281 224.800781 C 207.054688 224.820312 206.738281 224.804688 206.421875 224.777344 C 206.894531 224.777344 207.367188 224.777344 207.839844 224.777344 C 207.679688 224.785156 207.523438 224.789062 207.363281 224.800781 Z M 211.113281 224.25 C 211.316406 224.394531 211.523438 224.480469 211.730469 224.523438 C 210.898438 224.75 210.039062 224.773438 209.175781 224.769531 C 209.386719 224.765625 209.601562 224.765625 209.816406 224.75 C 210.222656 224.734375 210.566406 224.585938 210.851562 224.292969 C 210.859375 224.285156 210.863281 224.273438 210.871094 224.265625 C 210.953125 224.265625 211.03125 224.257812 211.113281 224.25 Z M 159.253906 239.671875 C 159.253906 239.691406 159.253906 239.707031 159.253906 239.726562 C 159.253906 239.710938 159.25 239.691406 159.25 239.671875 C 159.25 239.671875 159.253906 239.671875 159.253906 239.671875 Z M 202.457031 224.78125 C 203.207031 224.773438 203.953125 224.761719 204.703125 224.761719 C 204.324219 224.832031 203.960938 224.980469 203.617188 225.265625 C 203.597656 225.265625 203.582031 225.265625 203.566406 225.265625 C 203.511719 225.269531 203.460938 225.273438 203.410156 225.28125 C 203.132812 224.972656 202.804688 224.835938 202.457031 224.78125 Z M 270.710938 250.0625 C 272.832031 251.09375 275.089844 250.355469 277.277344 250.542969 C 277.433594 250.507812 277.589844 250.457031 277.746094 250.402344 C 277.828125 250.449219 277.910156 250.488281 278.003906 250.523438 C 278.566406 250.59375 279.113281 250.753906 279.679688 250.796875 C 279.679688 250.910156 279.679688 251.019531 279.679688 251.132812 C 279.632812 251.183594 279.589844 251.238281 279.554688 251.300781 C 275.496094 251.285156 271.414062 251.527344 267.089844 250.480469 C 267.355469 250.125 267.800781 249.941406 268.574219 250.0625 C 269.164062 250.152344 269.828125 250.160156 270.324219 249.65625 C 270.371094 249.558594 270.425781 249.457031 270.476562 249.359375 C 270.578125 249.3125 270.691406 249.273438 270.808594 249.246094 C 270.714844 249.542969 270.671875 249.824219 270.710938 250.0625 Z M 274.710938 232.5625 C 271.851562 232.550781 268.992188 232.523438 266.128906 232.65625 C 265.027344 232.707031 263.851562 232.820312 262.882812 232.039062 C 262.792969 231.96875 262.703125 231.902344 262.609375 231.84375 C 262.691406 231.804688 262.742188 231.734375 262.753906 231.632812 C 263.492188 232.554688 264.574219 232.433594 265.566406 232.417969 C 268.613281 232.375 271.664062 232.527344 274.710938 232.5625 Z M 308.78125 286.3125 C 308.78125 286.3125 308.78125 286.3125 308.777344 286.3125 C 308.617188 286.152344 308.457031 285.992188 308.296875 285.835938 L 308.257812 285.871094 C 308.257812 285.871094 308.253906 285.871094 308.253906 285.867188 C 308.269531 285.859375 308.28125 285.847656 308.296875 285.835938 C 307.980469 285.664062 307.664062 285.496094 307.34375 285.324219 C 307.332031 285.175781 307.316406 285.03125 307.300781 284.882812 C 306.203125 284.363281 304.589844 284.792969 303.949219 283.222656 C 304.691406 282.78125 305.355469 282.925781 305.980469 282.917969 C 307.363281 282.898438 307.609375 282.160156 307.289062 281 C 307.226562 280.925781 307.167969 280.855469 307.105469 280.78125 C 306.828125 280.738281 306.539062 280.730469 306.324219 280.511719 C 306.324219 280.511719 306.320312 280.515625 306.324219 280.515625 C 305.335938 280.445312 304.300781 280.660156 303.40625 280.027344 C 302.445312 280.015625 301.484375 280.007812 300.527344 279.996094 C 298.277344 279.992188 296.027344 279.984375 293.777344 279.976562 C 293.765625 280.007812 293.75 280.035156 293.734375 280.066406 C 293.722656 280.058594 293.714844 280.054688 293.703125 280.046875 C 293.703125 280.042969 293.777344 279.976562 293.777344 279.976562 C 293.746094 279.835938 293.722656 279.6875 293.703125 279.542969 C 292.253906 279.542969 290.800781 279.523438 289.351562 279.546875 C 281.378906 279.6875 273.429688 278.816406 265.453125 278.980469 C 264.554688 279 263.128906 279.152344 263.136719 277.929688 C 263.144531 276.800781 264.5 276.796875 265.472656 276.789062 C 271.503906 276.71875 277.511719 275.960938 283.554688 276.136719 C 286.472656 276.109375 289.355469 275.390625 292.289062 275.65625 C 292.449219 275.816406 292.609375 275.820312 292.757812 275.644531 C 293.410156 275.644531 294.0625 275.648438 294.714844 275.652344 C 294.867188 275.820312 295.023438 275.820312 295.179688 275.648438 C 295.621094 275.46875 296.089844 275.324219 296.511719 275.097656 C 297.628906 274.496094 297.65625 273.847656 296.558594 273.199219 C 295.648438 272.664062 294.632812 272.390625 293.597656 272.230469 C 291.382812 271.894531 289.164062 271.582031 286.945312 271.261719 C 284.953125 271.253906 282.964844 271.253906 280.976562 271.242188 C 278.585938 271.230469 276.25 270.621094 273.847656 270.6875 C 273.128906 270.707031 272.117188 270.597656 272.433594 269.332031 C 278.441406 269.320312 284.449219 269.3125 290.457031 269.296875 C 291.40625 269.292969 292.394531 269.464844 293.242188 268.828125 L 293.257812 268.820312 C 293.496094 268.769531 293.792969 268.683594 293.726562 268.40625 C 293.621094 267.933594 293.164062 267.914062 292.773438 267.839844 C 290.6875 266.40625 288.292969 267.042969 286.027344 266.8125 C 285.738281 266.699219 285.453125 266.5625 285.15625 266.476562 C 283.324219 265.9375 283.253906 265.832031 284.578125 264.535156 C 285.695312 263.441406 284.070312 263.566406 284.015625 263.019531 C 283.710938 262.992188 283.40625 262.964844 283.105469 262.9375 C 281.921875 261.804688 280.421875 262.0625 278.992188 261.980469 C 278.378906 261.949219 277.546875 262.070312 277.507812 261.160156 C 277.46875 260.332031 278.203125 260.167969 278.867188 260.109375 C 279.425781 260.0625 279.992188 260.082031 280.554688 260.078125 C 283.128906 260.0625 285.703125 260.085938 288.273438 260.003906 C 289.25 259.972656 290.828125 260.125 290.789062 258.878906 C 290.761719 257.804688 289.222656 258.136719 288.316406 258.132812 C 281.71875 258.101562 275.125 258.117188 268.527344 258.117188 C 267.902344 258.101562 267.273438 258.089844 266.644531 258.074219 C 266.625 257.929688 266.601562 257.785156 266.582031 257.640625 C 266.105469 257.589844 265.554688 257.609375 265.367188 257.054688 C 265.144531 256.402344 265.59375 255.984375 266.046875 255.632812 C 266.585938 255.210938 267.246094 255.234375 267.890625 255.179688 C 271.664062 254.867188 275.429688 254.539062 279.199219 254.21875 C 283.878906 254.480469 288.464844 253.453125 293.113281 253.234375 C 293.769531 253.203125 294.449219 253.136719 294.566406 252.292969 C 294.671875 251.535156 294.207031 251.074219 293.601562 250.777344 C 292.28125 250.136719 290.898438 249.742188 289.414062 249.816406 C 288.566406 249.054688 287.308594 249.621094 286.453125 248.886719 C 286.210938 248.886719 285.96875 248.882812 285.726562 248.878906 C 284.445312 248.863281 282.96875 249.101562 283.378906 246.964844 C 283.410156 246.78125 283.230469 246.433594 283.054688 246.351562 C 281.808594 245.742188 282.3125 244.867188 282.542969 243.917969 C 283.085938 241.65625 282.707031 241.160156 280.375 241.109375 C 277.074219 241.039062 273.773438 241.070312 270.472656 241.058594 C 269.828125 241.0625 269.183594 241.0625 268.539062 241.066406 C 265.191406 241.046875 261.871094 240.414062 258.507812 240.589844 C 257.097656 240.660156 255.871094 239.964844 254.742188 239.207031 C 253.882812 238.636719 253.996094 237.773438 254.921875 237.363281 C 255.570312 237.074219 256.363281 237.214844 256.953125 236.722656 C 256.953125 236.722656 256.953125 236.722656 256.957031 236.722656 C 259.46875 236.152344 262.050781 235.804688 264.59375 235.824219 C 270.945312 235.863281 277.277344 235.328125 283.621094 235.253906 C 285.554688 235.234375 287.480469 235.1875 289.375 234.761719 C 289.464844 234.601562 289.496094 234.445312 289.472656 234.289062 C 289.605469 234.277344 289.738281 234.261719 289.871094 234.242188 C 290.585938 234.238281 291.300781 234.238281 292.019531 234.234375 C 292.03125 234.167969 292.042969 234.105469 292.054688 234.035156 C 292.074219 234.105469 292.09375 234.171875 292.109375 234.242188 C 293.296875 234.039062 294.488281 233.863281 295.664062 233.621094 C 296.195312 233.511719 296.855469 233.367188 296.765625 232.609375 C 296.699219 232.03125 296.144531 231.945312 295.667969 231.84375 C 292.246094 230.492188 288.644531 230.40625 285.039062 230.363281 C 285.035156 230.359375 285.035156 230.359375 285.035156 230.359375 C 284.113281 229.722656 283.054688 229.890625 282.046875 229.914062 C 279.585938 229.96875 277.160156 229.816406 274.828125 228.925781 L 274.820312 228.921875 C 274.8125 228.769531 274.800781 228.621094 274.78125 228.46875 C 273.339844 228.457031 271.910156 227.585938 270.460938 228.410156 C 265.664062 227.957031 260.859375 227.726562 256.042969 227.875 C 255.144531 227.402344 254.167969 227.515625 253.210938 227.507812 C 249.917969 227.480469 246.628906 227.464844 243.335938 227.441406 C 243.148438 227.105469 242.566406 227.121094 242.574219 226.527344 C 244.417969 225.980469 246.28125 225.5 248.234375 225.503906 C 251.132812 225.507812 254.035156 225.550781 256.90625 225.007812 C 257.511719 224.886719 257.789062 224.441406 258.015625 223.921875 C 258.359375 223.144531 258.984375 222.730469 259.8125 222.597656 C 260.449219 222.601562 261.085938 222.601562 261.722656 222.601562 C 264.390625 223.527344 267.136719 222.949219 269.847656 223.027344 C 270.171875 223.035156 270.507812 222.855469 270.53125 222.476562 C 270.550781 222.125 270.292969 221.898438 269.964844 221.796875 C 269.023438 221.507812 268.050781 221.625 267.085938 221.628906 C 267.164062 221.675781 267.238281 221.722656 267.316406 221.773438 C 267.234375 221.738281 267.15625 221.691406 267.085938 221.628906 C 266.125 221.617188 265.164062 221.605469 264.207031 221.597656 C 263.496094 221.105469 262.683594 221.15625 261.886719 221.152344 C 260.363281 221.136719 258.839844 221.085938 257.320312 221.140625 C 255.753906 221.195312 254.554688 220.769531 253.703125 219.308594 C 253.191406 218.441406 252.570312 217.535156 251.539062 217.121094 C 251.398438 217.144531 251.261719 217.140625 251.125 217.117188 C 248.515625 216.457031 245.855469 216.886719 243.226562 216.824219 C 235.996094 216.65625 228.761719 216.75 221.523438 216.738281 C 220.667969 216.121094 219.679688 216.285156 218.730469 216.285156 C 213.199219 216.265625 207.667969 216.269531 202.136719 216.261719 C 199.023438 217.464844 195.605469 216.84375 192.46875 217.886719 C 186.492188 217.824219 180.554688 218.886719 174.566406 218.585938 C 172.941406 219.710938 170.945312 219.519531 169.179688 220.15625 C 167.726562 220.945312 166.0625 220.710938 164.523438 221.109375 C 163.296875 221.425781 162.238281 222.234375 160.855469 222.125 C 158.039062 221.90625 155.417969 223.222656 152.632812 223.316406 C 152.492188 223.324219 152.359375 223.480469 152.226562 223.566406 C 151.582031 223.566406 150.9375 223.570312 150.292969 223.570312 C 149.886719 223.855469 149.429688 223.988281 148.9375 224 C 146.613281 224.046875 144.292969 224.105469 141.96875 224.132812 C 140.210938 224.148438 138.449219 224.066406 136.722656 224.527344 C 136.160156 224.671875 135.402344 224.898438 135.5625 225.511719 C 135.925781 226.890625 134.996094 227.992188 135.019531 229.277344 C 135.054688 231.234375 135.019531 231.238281 133.125 231.363281 C 132.726562 231.390625 132.324219 231.386719 131.921875 231.398438 C 131.890625 231.535156 131.867188 231.671875 131.847656 231.8125 C 130.636719 232.523438 129.300781 232.3125 128 232.34375 C 125.800781 233.140625 123.441406 232.796875 121.199219 233.296875 C 119.171875 233.496094 117.246094 233.082031 115.382812 232.316406 C 115.222656 232.324219 115.0625 232.328125 114.90625 232.328125 C 114.179688 232.914062 113.199219 232.203125 112.480469 232.808594 C 112.191406 233.148438 112.128906 233.535156 112.324219 233.917969 C 112.976562 235.214844 112.261719 235.53125 111.15625 235.835938 C 109.511719 236.289062 107.851562 236.144531 106.195312 236.246094 C 105.152344 236.96875 103.753906 236.804688 102.75 237.636719 C 100.886719 237.65625 99.367188 238.527344 97.933594 239.609375 C 94.238281 239.710938 90.839844 241.582031 87.089844 241.4375 C 86.675781 241.421875 86.238281 241.835938 85.8125 242.046875 C 85.65625 242.046875 85.5 242.054688 85.339844 242.0625 C 85.019531 242.058594 84.695312 242.054688 84.367188 242.054688 C 83.664062 242.433594 82.855469 242.769531 83.023438 243.792969 C 83.167969 244.671875 83.757812 245.1875 84.609375 245.394531 C 84.839844 245.449219 85.082031 245.449219 85.320312 245.472656 C 85.972656 245.464844 86.628906 245.457031 87.28125 245.449219 C 87.4375 245.449219 87.59375 245.445312 87.75 245.445312 C 89.832031 245.457031 91.855469 246.070312 93.964844 245.976562 C 96.691406 245.859375 99.425781 246.011719 102.152344 245.933594 C 105.511719 245.839844 108.875 246.210938 112.238281 245.617188 C 113.273438 245.4375 114.445312 245.886719 115.523438 246.171875 C 116.113281 246.328125 116.03125 246.898438 115.859375 247.386719 C 114.648438 247.441406 113.878906 247.847656 114.289062 249.277344 C 114.449219 249.835938 114.328125 250.363281 113.929688 250.808594 C 113.832031 250.785156 113.738281 250.757812 113.640625 250.738281 C 113.355469 250.636719 113.0625 250.566406 112.761719 250.523438 C 112.554688 250.519531 112.34375 250.539062 112.140625 250.597656 C 111.328125 250.878906 110.433594 250.941406 109.71875 251.492188 C 109.671875 251.589844 109.621094 251.691406 109.566406 251.789062 C 110.824219 252.628906 112.238281 252.179688 113.582031 252.261719 C 114.605469 252.324219 115.5 252.460938 115.914062 253.585938 C 116.375 254.835938 117.375 255.222656 118.613281 255.183594 C 120.625 255.117188 122.644531 255.378906 124.644531 254.96875 C 125.050781 254.886719 125.453125 254.902344 125.507812 255.582031 C 124.683594 256.21875 123.664062 256.441406 122.636719 256.605469 C 118.109375 257.328125 113.566406 257.972656 109.046875 258.765625 C 107.597656 259.023438 106.171875 259.070312 104.722656 259.085938 C 102.070312 259.503906 100.074219 261.511719 97.558594 262.269531 C 97.210938 262.238281 96.867188 262.273438 96.519531 262.5 C 96.519531 262.503906 96.519531 262.503906 96.519531 262.503906 L 96.511719 262.519531 C 95.785156 263.382812 96.132812 264.003906 97.042969 264.296875 C 97.617188 264.480469 98.277344 264.394531 98.898438 264.429688 C 100.292969 264.511719 100.632812 265.378906 100.46875 266.59375 C 100.308594 267.714844 99.613281 268.484375 98.722656 269.09375 C 97.71875 269.78125 96.71875 270.503906 96.304688 271.699219 C 95.671875 273.53125 94.234375 274.019531 92.542969 274.152344 C 91.507812 274.230469 90.476562 274.1875 89.453125 274.539062 C 87.175781 275.3125 84.800781 275.671875 82.429688 276.015625 C 82.257812 276.027344 82.085938 276.039062 81.914062 276.054688 C 81.757812 275.925781 81.609375 275.945312 81.476562 276.089844 C 81.308594 276.097656 81.140625 276.105469 80.972656 276.113281 C 80.621094 276.136719 80.308594 276.265625 80.023438 276.457031 C 79.675781 276.476562 79.328125 276.492188 78.984375 276.511719 C 77.195312 275.863281 75.925781 277.691406 74.234375 277.519531 C 73.890625 277.542969 73.546875 277.5625 73.203125 277.582031 C 72.832031 278.023438 72.234375 277.660156 71.832031 277.980469 C 71.636719 277.988281 71.441406 277.996094 71.25 278.003906 C 71.09375 277.886719 70.945312 277.898438 70.804688 278.035156 L 70.765625 278.058594 C 70.398438 278.53125 69.71875 278.097656 69.347656 278.554688 L 69.34375 278.554688 C 69.210938 278.699219 69.066406 278.824219 68.910156 278.9375 C 68.714844 278.945312 68.519531 278.957031 68.324219 278.964844 C 67.6875 278.753906 67.050781 278.640625 66.4375 279.039062 L 66.4375 279.042969 C 66.28125 279.199219 66.121094 279.355469 65.957031 279.503906 L 65.925781 279.53125 C 65.671875 279.847656 65.671875 280.171875 65.921875 280.492188 L 65.957031 280.53125 C 66.121094 280.671875 66.273438 280.824219 66.417969 280.984375 L 66.441406 281.007812 C 66.90625 281.332031 67.378906 281.289062 67.855469 281.039062 C 68.363281 281.023438 68.871094 281.007812 69.378906 280.988281 C 70.742188 280.351562 72.425781 281.269531 73.671875 280.082031 C 77.558594 279.410156 81.445312 278.734375 85.332031 278.0625 C 85.597656 277.84375 85.914062 277.785156 86.234375 277.828125 C 90.269531 278.390625 94.1875 277.128906 98.183594 277.046875 C 99.117188 277.027344 99.902344 276.679688 100.417969 275.84375 C 100.429688 275.816406 100.4375 275.789062 100.449219 275.757812 C 100.871094 276.179688 101.828125 275.917969 101.882812 276.800781 C 101.371094 277.542969 100.410156 277.460938 99.871094 278.0625 C 97.820312 278.414062 95.757812 278.726562 93.714844 279.136719 C 92.230469 279.433594 91.546875 280.277344 91.699219 281.394531 C 91.832031 282.324219 92.738281 282.859375 94.167969 282.730469 C 95.601562 282.597656 97.03125 282.375 98.457031 282.195312 C 101.472656 281.804688 104.488281 281.398438 107.507812 281.039062 C 108.636719 280.902344 109.722656 281.007812 110.71875 281.726562 C 111.21875 282.089844 111.890625 282.214844 112.484375 282.449219 C 112.492188 282.601562 112.503906 282.757812 112.519531 282.910156 C 115.332031 282.835938 118.082031 283.640625 120.902344 283.480469 C 121.214844 283.460938 121.546875 283.527344 121.847656 283.617188 C 122.640625 283.855469 122.933594 284.273438 122.292969 285 C 121.761719 285.597656 121.253906 286.21875 120.738281 286.832031 C 120.558594 286.980469 120.378906 287.128906 120.199219 287.277344 C 119.710938 287.59375 119.21875 287.910156 118.726562 288.222656 C 116.640625 288.351562 114.597656 289 112.480469 288.78125 C 111.792969 289.34375 110.953125 289.207031 110.164062 289.300781 C 109.59375 289.367188 108.964844 289.472656 108.9375 290.203125 C 108.910156 290.953125 109.546875 291.132812 110.113281 291.144531 C 111.398438 291.167969 112.6875 291.132812 113.972656 291.054688 C 114.738281 291.011719 115.792969 290.453125 115.988281 291.585938 C 116.179688 292.699219 114.945312 292.527344 114.253906 292.824219 C 112.902344 293.410156 111.324219 292.769531 110.027344 293.617188 C 109.875 293.621094 109.722656 293.628906 109.570312 293.636719 C 108.269531 293.730469 106.90625 293.320312 105.6875 294.117188 L 105.679688 294.117188 C 104.222656 294.246094 102.695312 293.773438 101.3125 294.59375 C 100.777344 294.621094 100.195312 294.542969 99.75 294.898438 C 99.257812 295.296875 99.046875 295.761719 99.859375 296.089844 C 101.410156 296.945312 103.101562 296.382812 104.714844 296.574219 C 104.71875 296.5625 104.71875 296.554688 104.71875 296.550781 C 104.722656 296.550781 104.722656 296.550781 104.726562 296.554688 C 104.726562 296.554688 104.714844 296.574219 104.714844 296.574219 C 104.875 296.730469 105.039062 296.890625 105.199219 297.050781 L 105.21875 297.035156 C 105.222656 297.035156 105.222656 297.035156 105.222656 297.039062 C 105.214844 297.042969 105.207031 297.046875 105.199219 297.050781 C 105.28125 297.703125 105.585938 298.203125 106.160156 298.523438 C 106.160156 298.523438 106.164062 298.523438 106.164062 298.523438 C 106.171875 298.675781 106.175781 298.835938 106.183594 298.992188 C 106.632812 299 107.082031 299.003906 107.535156 299.011719 C 107.519531 299.039062 107.503906 299.066406 107.496094 299.097656 C 107.558594 299.214844 107.621094 299.335938 107.683594 299.449219 C 107.988281 299.460938 108.296875 299.46875 108.601562 299.476562 C 113.121094 299.472656 117.640625 299.472656 122.160156 299.46875 C 122.242188 299.304688 122.269531 299.144531 122.242188 298.996094 C 122.378906 298.992188 122.515625 298.988281 122.652344 298.988281 C 126.101562 298.984375 129.558594 299.015625 133.011719 298.960938 C 133.957031 298.949219 135.222656 299.25 135.191406 297.535156 C 135.183594 297.105469 135.777344 297.066406 136.179688 297.0625 C 138.261719 297.042969 140.292969 296.355469 142.402344 296.550781 C 143.121094 296.613281 143.851562 296.566406 144.464844 296.074219 C 146.914062 296.300781 149.289062 295.40625 151.734375 295.605469 C 153.1875 295.410156 154.714844 295.902344 156.101562 295.121094 C 160.75 295.21875 165.382812 294.773438 170.023438 294.660156 C 172.289062 294.601562 174.558594 294.589844 176.828125 294.589844 C 179.070312 295.230469 181.582031 295.402344 183.964844 294.613281 C 184.367188 294.613281 184.769531 294.613281 185.171875 294.613281 C 185.171875 294.449219 185.171875 294.289062 185.167969 294.125 C 186.4375 293.972656 187.964844 294.636719 188.738281 292.917969 C 188.820312 292.742188 189.324219 292.679688 189.628906 292.691406 C 193.972656 292.847656 198.269531 291.851562 202.617188 292.1875 C 205.644531 291.515625 208.730469 291.835938 211.785156 291.671875 C 211.824219 291.800781 211.890625 291.945312 211.996094 292.109375 C 212.878906 292.894531 213.960938 292.804688 214.980469 292.640625 C 221.707031 291.527344 228.523438 291.351562 235.292969 291.078125 C 243.957031 290.726562 252.632812 290.136719 261.320312 290.472656 C 261.792969 290.488281 262.292969 290.5625 262.707031 290.21875 C 266.097656 290.21875 269.484375 289.851562 272.847656 289.847656 C 281.890625 289.835938 290.910156 289.253906 299.941406 289.1875 C 302.554688 289.167969 305.246094 289.085938 307.816406 288.320312 C 307.816406 288.320312 307.816406 288.320312 307.8125 288.320312 C 308.285156 288.304688 308.753906 288.289062 309.222656 288.273438 C 309.253906 287.578125 309.304688 286.878906 308.78125 286.3125 " fill-opacity="1" fill-rule="nonzero"></path></g><path fill="#fcca29" d="M 91.546875 253.484375 C 92.171875 253.414062 92.671875 253.214844 92.582031 252.242188 C 92.488281 251.246094 91.992188 251.292969 91.332031 251.308594 C 88.035156 251.382812 84.84375 252.167969 81.632812 252.808594 C 81.429688 252.847656 81.261719 253.066406 80.683594 253.492188 C 84.597656 254.367188 88.074219 253.882812 91.546875 253.484375 " fill-opacity="1" fill-rule="nonzero"></path><path fill="#fcca29" d="M 134.789062 236.6875 C 134.789062 236.6875 134.789062 236.6875 134.789062 236.683594 C 134.785156 236.683594 134.78125 236.683594 134.777344 236.683594 L 134.789062 236.6875 " fill-opacity="1" fill-rule="nonzero"></path><g fill="#000000" fill-opacity="1"><g transform="translate(146.117082, 241.560219)"><g><path d="M 9.15625 -22.40625 L 9.15625 0 L 4.984375 0 L 4.984375 -18.90625 L 0.25 -18.90625 L 0.25 -22.40625 Z M 9.15625 -22.40625 "></path></g></g></g><g fill="#000000" fill-opacity="1"><g transform="translate(158.306081, 241.560219)"><g><path d="M 10.75 0.3125 C 8.957031 0.3125 7.359375 -0.140625 5.953125 -1.046875 C 4.546875 -1.953125 3.4375 -3.269531 2.625 -5 C 1.8125 -6.738281 1.40625 -8.804688 1.40625 -11.203125 C 1.40625 -13.585938 1.8125 -15.648438 2.625 -17.390625 C 3.4375 -19.128906 4.546875 -20.453125 5.953125 -21.359375 C 7.359375 -22.265625 8.957031 -22.71875 10.75 -22.71875 C 12.539062 -22.71875 14.144531 -22.265625 15.5625 -21.359375 C 16.988281 -20.453125 18.101562 -19.128906 18.90625 -17.390625 C 19.71875 -15.648438 20.125 -13.585938 20.125 -11.203125 C 20.125 -8.804688 19.71875 -6.738281 18.90625 -5 C 18.101562 -3.269531 16.988281 -1.953125 15.5625 -1.046875 C 14.144531 -0.140625 12.539062 0.3125 10.75 0.3125 Z M 10.75 -3.296875 C 12.351562 -3.296875 13.617188 -3.957031 14.546875 -5.28125 C 15.472656 -6.601562 15.9375 -8.578125 15.9375 -11.203125 C 15.9375 -13.828125 15.472656 -15.800781 14.546875 -17.125 C 13.617188 -18.445312 12.351562 -19.109375 10.75 -19.109375 C 9.175781 -19.109375 7.921875 -18.445312 6.984375 -17.125 C 6.054688 -15.800781 5.59375 -13.828125 5.59375 -11.203125 C 5.59375 -8.578125 6.054688 -6.601562 6.984375 -5.28125 C 7.921875 -3.957031 9.175781 -3.296875 10.75 -3.296875 Z M 10.75 -3.296875 "></path></g></g></g><g fill="#000000" fill-opacity="1"><g transform="translate(179.836788, 241.560219)"><g><path d="M 10.75 0.3125 C 8.957031 0.3125 7.359375 -0.140625 5.953125 -1.046875 C 4.546875 -1.953125 3.4375 -3.269531 2.625 -5 C 1.8125 -6.738281 1.40625 -8.804688 1.40625 -11.203125 C 1.40625 -13.585938 1.8125 -15.648438 2.625 -17.390625 C 3.4375 -19.128906 4.546875 -20.453125 5.953125 -21.359375 C 7.359375 -22.265625 8.957031 -22.71875 10.75 -22.71875 C 12.539062 -22.71875 14.144531 -22.265625 15.5625 -21.359375 C 16.988281 -20.453125 18.101562 -19.128906 18.90625 -17.390625 C 19.71875 -15.648438 20.125 -13.585938 20.125 -11.203125 C 20.125 -8.804688 19.71875 -6.738281 18.90625 -5 C 18.101562 -3.269531 16.988281 -1.953125 15.5625 -1.046875 C 14.144531 -0.140625 12.539062 0.3125 10.75 0.3125 Z M 10.75 -3.296875 C 12.351562 -3.296875 13.617188 -3.957031 14.546875 -5.28125 C 15.472656 -6.601562 15.9375 -8.578125 15.9375 -11.203125 C 15.9375 -13.828125 15.472656 -15.800781 14.546875 -17.125 C 13.617188 -18.445312 12.351562 -19.109375 10.75 -19.109375 C 9.175781 -19.109375 7.921875 -18.445312 6.984375 -17.125 C 6.054688 -15.800781 5.59375 -13.828125 5.59375 -11.203125 C 5.59375 -8.578125 6.054688 -6.601562 6.984375 -5.28125 C 7.921875 -3.957031 9.175781 -3.296875 10.75 -3.296875 Z M 10.75 -3.296875 "></path></g></g></g><g fill="#000000" fill-opacity="1"><g transform="translate(201.367494, 241.560219)"><g><path d="M 6.40625 -10.34375 C 4.800781 -10.34375 3.507812 -10.90625 2.53125 -12.03125 C 1.550781 -13.164062 1.0625 -14.648438 1.0625 -16.484375 C 1.0625 -18.316406 1.550781 -19.796875 2.53125 -20.921875 C 3.507812 -22.054688 4.800781 -22.625 6.40625 -22.625 C 8 -22.625 9.289062 -22.0625 10.28125 -20.9375 C 11.28125 -19.820312 11.78125 -18.335938 11.78125 -16.484375 C 11.78125 -14.628906 11.28125 -13.140625 10.28125 -12.015625 C 9.289062 -10.898438 8 -10.34375 6.40625 -10.34375 Z M 19.84375 -22.40625 L 22.96875 -22.40625 L 7.6875 0 L 4.546875 0 Z M 6.40625 -12.578125 C 7.28125 -12.578125 7.957031 -12.914062 8.4375 -13.59375 C 8.914062 -14.28125 9.15625 -15.242188 9.15625 -16.484375 C 9.15625 -17.722656 8.914062 -18.679688 8.4375 -19.359375 C 7.957031 -20.046875 7.28125 -20.390625 6.40625 -20.390625 C 5.570312 -20.390625 4.898438 -20.039062 4.390625 -19.34375 C 3.890625 -18.644531 3.640625 -17.691406 3.640625 -16.484375 C 3.640625 -15.265625 3.890625 -14.304688 4.390625 -13.609375 C 4.898438 -12.921875 5.570312 -12.578125 6.40625 -12.578125 Z M 21.09375 0.21875 C 19.488281 0.21875 18.195312 -0.34375 17.21875 -1.46875 C 16.238281 -2.601562 15.75 -4.085938 15.75 -5.921875 C 15.75 -7.753906 16.238281 -9.234375 17.21875 -10.359375 C 18.195312 -11.492188 19.488281 -12.0625 21.09375 -12.0625 C 22.6875 -12.0625 23.976562 -11.492188 24.96875 -10.359375 C 25.96875 -9.234375 26.46875 -7.753906 26.46875 -5.921875 C 26.46875 -4.085938 25.96875 -2.601562 24.96875 -1.46875 C 23.976562 -0.34375 22.6875 0.21875 21.09375 0.21875 Z M 21.09375 -2.015625 C 21.945312 -2.015625 22.617188 -2.359375 23.109375 -3.046875 C 23.597656 -3.742188 23.84375 -4.703125 23.84375 -5.921875 C 23.84375 -7.140625 23.597656 -8.09375 23.109375 -8.78125 C 22.617188 -9.476562 21.945312 -9.828125 21.09375 -9.828125 C 20.238281 -9.828125 19.566406 -9.484375 19.078125 -8.796875 C 18.585938 -8.117188 18.34375 -7.160156 18.34375 -5.921875 C 18.34375 -4.679688 18.585938 -3.71875 19.078125 -3.03125 C 19.566406 -2.351562 20.238281 -2.015625 21.09375 -2.015625 Z M 21.09375 -2.015625 "></path></g></g></g><g fill="#000000" fill-opacity="1"><g transform="translate(32.890527, 285.810216)"><g><path d="M 9.953125 0.3125 C 8.222656 0.3125 6.550781 0.0664062 4.9375 -0.421875 C 3.332031 -0.910156 2.0625 -1.5625 1.125 -2.375 L 2.5625 -5.59375 C 3.476562 -4.875 4.601562 -4.285156 5.9375 -3.828125 C 7.269531 -3.367188 8.609375 -3.140625 9.953125 -3.140625 C 11.617188 -3.140625 12.859375 -3.40625 13.671875 -3.9375 C 14.492188 -4.46875 14.90625 -5.171875 14.90625 -6.046875 C 14.90625 -6.691406 14.675781 -7.21875 14.21875 -7.625 C 13.757812 -8.039062 13.175781 -8.363281 12.46875 -8.59375 C 11.769531 -8.832031 10.8125 -9.101562 9.59375 -9.40625 C 7.894531 -9.8125 6.515625 -10.21875 5.453125 -10.625 C 4.398438 -11.03125 3.492188 -11.664062 2.734375 -12.53125 C 1.972656 -13.394531 1.59375 -14.5625 1.59375 -16.03125 C 1.59375 -17.269531 1.925781 -18.394531 2.59375 -19.40625 C 3.269531 -20.414062 4.285156 -21.21875 5.640625 -21.8125 C 7.003906 -22.414062 8.664062 -22.71875 10.625 -22.71875 C 11.988281 -22.71875 13.332031 -22.546875 14.65625 -22.203125 C 15.976562 -21.867188 17.117188 -21.378906 18.078125 -20.734375 L 16.765625 -17.5 C 15.785156 -18.082031 14.757812 -18.519531 13.6875 -18.8125 C 12.625 -19.113281 11.59375 -19.265625 10.59375 -19.265625 C 8.945312 -19.265625 7.722656 -18.984375 6.921875 -18.421875 C 6.128906 -17.867188 5.734375 -17.132812 5.734375 -16.21875 C 5.734375 -15.582031 5.960938 -15.0625 6.421875 -14.65625 C 6.878906 -14.25 7.457031 -13.925781 8.15625 -13.6875 C 8.863281 -13.457031 9.828125 -13.191406 11.046875 -12.890625 C 12.703125 -12.503906 14.0625 -12.101562 15.125 -11.6875 C 16.195312 -11.28125 17.113281 -10.648438 17.875 -9.796875 C 18.632812 -8.941406 19.015625 -7.789062 19.015625 -6.34375 C 19.015625 -5.101562 18.675781 -3.976562 18 -2.96875 C 17.320312 -1.96875 16.300781 -1.171875 14.9375 -0.578125 C 13.570312 0.015625 11.910156 0.3125 9.953125 0.3125 Z M 9.953125 0.3125 "></path></g></g></g><g fill="#000000" fill-opacity="1"><g transform="translate(53.013576, 285.810216)"><g><path d="M 19.8125 -3.484375 L 19.8125 0 L 3.015625 0 L 3.015625 -22.40625 L 19.359375 -22.40625 L 19.359375 -18.90625 L 7.171875 -18.90625 L 7.171875 -13.09375 L 17.984375 -13.09375 L 17.984375 -9.65625 L 7.171875 -9.65625 L 7.171875 -3.484375 Z M 19.8125 -3.484375 "></path></g></g></g><g fill="#000000" fill-opacity="1"><g transform="translate(74.448302, 285.810216)"><g><path d="M 13.375 0.3125 C 11.113281 0.3125 9.070312 -0.179688 7.25 -1.171875 C 5.425781 -2.160156 3.992188 -3.53125 2.953125 -5.28125 C 1.921875 -7.03125 1.40625 -9.003906 1.40625 -11.203125 C 1.40625 -13.398438 1.925781 -15.375 2.96875 -17.125 C 4.019531 -18.875 5.457031 -20.242188 7.28125 -21.234375 C 9.101562 -22.222656 11.144531 -22.71875 13.40625 -22.71875 C 15.238281 -22.71875 16.910156 -22.394531 18.421875 -21.75 C 19.941406 -21.113281 21.222656 -20.1875 22.265625 -18.96875 L 19.578125 -16.453125 C 17.960938 -18.203125 15.96875 -19.078125 13.59375 -19.078125 C 12.0625 -19.078125 10.6875 -18.738281 9.46875 -18.0625 C 8.25 -17.394531 7.296875 -16.460938 6.609375 -15.265625 C 5.929688 -14.066406 5.59375 -12.710938 5.59375 -11.203125 C 5.59375 -9.679688 5.929688 -8.320312 6.609375 -7.125 C 7.296875 -5.9375 8.25 -5.003906 9.46875 -4.328125 C 10.6875 -3.660156 12.0625 -3.328125 13.59375 -3.328125 C 15.96875 -3.328125 17.960938 -4.210938 19.578125 -5.984375 L 22.265625 -3.421875 C 21.222656 -2.203125 19.9375 -1.273438 18.40625 -0.640625 C 16.882812 -0.00390625 15.207031 0.3125 13.375 0.3125 Z M 13.375 0.3125 "></path></g></g></g><g fill="#000000" fill-opacity="1"><g transform="translate(97.706586, 285.810216)"><g><path d="M 12.640625 0.3125 C 9.546875 0.3125 7.132812 -0.550781 5.40625 -2.28125 C 3.675781 -4.019531 2.8125 -6.515625 2.8125 -9.765625 L 2.8125 -22.40625 L 6.96875 -22.40625 L 6.96875 -9.921875 C 6.96875 -5.523438 8.867188 -3.328125 12.671875 -3.328125 C 16.453125 -3.328125 18.34375 -5.523438 18.34375 -9.921875 L 18.34375 -22.40625 L 22.4375 -22.40625 L 22.4375 -9.765625 C 22.4375 -6.515625 21.578125 -4.019531 19.859375 -2.28125 C 18.140625 -0.550781 15.734375 0.3125 12.640625 0.3125 Z M 12.640625 0.3125 "></path></g></g></g><g fill="#000000" fill-opacity="1"><g transform="translate(122.948382, 285.810216)"><g><path d="M 17.65625 0 L 13.09375 -6.5625 C 12.894531 -6.539062 12.601562 -6.53125 12.21875 -6.53125 L 7.171875 -6.53125 L 7.171875 0 L 3.015625 0 L 3.015625 -22.40625 L 12.21875 -22.40625 C 14.164062 -22.40625 15.859375 -22.082031 17.296875 -21.4375 C 18.734375 -20.800781 19.835938 -19.882812 20.609375 -18.6875 C 21.378906 -17.488281 21.765625 -16.070312 21.765625 -14.4375 C 21.765625 -12.75 21.351562 -11.296875 20.53125 -10.078125 C 19.707031 -8.859375 18.523438 -7.953125 16.984375 -7.359375 L 22.140625 0 Z M 17.5625 -14.4375 C 17.5625 -15.863281 17.09375 -16.957031 16.15625 -17.71875 C 15.21875 -18.488281 13.84375 -18.875 12.03125 -18.875 L 7.171875 -18.875 L 7.171875 -9.953125 L 12.03125 -9.953125 C 13.84375 -9.953125 15.21875 -10.335938 16.15625 -11.109375 C 17.09375 -11.890625 17.5625 -13 17.5625 -14.4375 Z M 17.5625 -14.4375 "></path></g></g></g><g fill="#000000" fill-opacity="1"><g transform="translate(146.334634, 285.810216)"><g><path d="M 19.8125 -3.484375 L 19.8125 0 L 3.015625 0 L 3.015625 -22.40625 L 19.359375 -22.40625 L 19.359375 -18.90625 L 7.171875 -18.90625 L 7.171875 -13.09375 L 17.984375 -13.09375 L 17.984375 -9.65625 L 7.171875 -9.65625 L 7.171875 -3.484375 Z M 19.8125 -3.484375 "></path></g></g></g><g fill="#000000" fill-opacity="1"><g transform="translate(167.76936, 285.810216)"><g></g></g></g><g fill="#000000" fill-opacity="1"><g transform="translate(176.599185, 285.810216)"><g><path d="M 12.21875 -22.40625 C 14.164062 -22.40625 15.859375 -22.082031 17.296875 -21.4375 C 18.734375 -20.800781 19.835938 -19.882812 20.609375 -18.6875 C 21.378906 -17.488281 21.765625 -16.070312 21.765625 -14.4375 C 21.765625 -12.8125 21.378906 -11.394531 20.609375 -10.1875 C 19.835938 -8.988281 18.734375 -8.066406 17.296875 -7.421875 C 15.859375 -6.785156 14.164062 -6.46875 12.21875 -6.46875 L 7.171875 -6.46875 L 7.171875 0 L 3.015625 0 L 3.015625 -22.40625 Z M 12.03125 -9.984375 C 13.84375 -9.984375 15.21875 -10.363281 16.15625 -11.125 C 17.09375 -11.894531 17.5625 -13 17.5625 -14.4375 C 17.5625 -15.863281 17.09375 -16.957031 16.15625 -17.71875 C 15.21875 -18.488281 13.84375 -18.875 12.03125 -18.875 L 7.171875 -18.875 L 7.171875 -9.984375 Z M 12.03125 -9.984375 "></path></g></g></g><g fill="#000000" fill-opacity="1"><g transform="translate(199.825472, 285.810216)"><g><path d="M 17.53125 -5.1875 L 6.34375 -5.1875 L 4.125 0 L -0.15625 0 L 9.921875 -22.40625 L 14.015625 -22.40625 L 24.125 0 L 19.78125 0 Z M 16.15625 -8.453125 L 11.9375 -18.234375 L 7.75 -8.453125 Z M 16.15625 -8.453125 "></path></g></g></g><g fill="#000000" fill-opacity="1"><g transform="translate(223.787579, 285.810216)"><g><path d="M 12.671875 -7.90625 L 12.671875 0 L 8.515625 0 L 8.515625 -7.84375 L -0.28125 -22.40625 L 4.15625 -22.40625 L 10.71875 -11.484375 L 17.34375 -22.40625 L 21.4375 -22.40625 Z M 12.671875 -7.90625 "></path></g></g></g><g fill="#000000" fill-opacity="1"><g transform="translate(244.934382, 285.810216)"><g><path d="M 23.578125 0 L 23.546875 -14.84375 L 16.1875 -2.5625 L 14.34375 -2.5625 L 6.96875 -14.65625 L 6.96875 0 L 3.015625 0 L 3.015625 -22.40625 L 6.4375 -22.40625 L 15.328125 -7.546875 L 24.0625 -22.40625 L 27.484375 -22.40625 L 27.515625 0 Z M 23.578125 0 "></path></g></g></g><g fill="#000000" fill-opacity="1"><g transform="translate(275.486855, 285.810216)"><g><path d="M 19.8125 -3.484375 L 19.8125 0 L 3.015625 0 L 3.015625 -22.40625 L 19.359375 -22.40625 L 19.359375 -18.90625 L 7.171875 -18.90625 L 7.171875 -13.09375 L 17.984375 -13.09375 L 17.984375 -9.65625 L 7.171875 -9.65625 L 7.171875 -3.484375 Z M 19.8125 -3.484375 "></path></g></g></g><g fill="#000000" fill-opacity="1"><g transform="translate(296.921592, 285.810216)"><g><path d="M 22.90625 -22.40625 L 22.90625 0 L 19.484375 0 L 7.140625 -15.171875 L 7.140625 0 L 3.015625 0 L 3.015625 -22.40625 L 6.4375 -22.40625 L 18.78125 -7.234375 L 18.78125 -22.40625 Z M 22.90625 -22.40625 "></path></g></g></g><g fill="#000000" fill-opacity="1"><g transform="translate(322.835226, 285.810216)"><g><path d="M 7.546875 -18.875 L 0.125 -18.875 L 0.125 -22.40625 L 19.140625 -22.40625 L 19.140625 -18.875 L 11.71875 -18.875 L 11.71875 0 L 7.546875 0 Z M 7.546875 -18.875 "></path></g></g></g><g clip-path="url(#f202890120)"><path fill="#000000" d="M 151.871094 184.378906 C 159.835938 190.980469 168.765625 195.800781 178.660156 198.84375 C 187.675781 196.097656 195.898438 191.835938 203.328125 186.054688 C 204.625 188.019531 206.136719 189.792969 207.875 191.382812 C 209.609375 192.96875 211.511719 194.324219 213.585938 195.4375 C 215.660156 196.554688 217.835938 197.398438 220.121094 197.976562 C 222.402344 198.554688 224.722656 198.839844 227.078125 198.84375 C 259.847656 198.152344 266.203125 153.25 235.355469 143.320312 C 243.441406 123.726562 246.589844 101.136719 244.601562 76.046875 C 244.578125 75.765625 244.507812 75.492188 244.398438 75.234375 C 244.285156 74.972656 244.132812 74.738281 243.945312 74.527344 C 243.753906 74.316406 243.535156 74.140625 243.289062 74.003906 C 243.039062 73.863281 242.777344 73.769531 242.5 73.714844 C 231.835938 71.816406 222.328125 71.703125 210.84375 67.195312 C 203.6875 64.378906 196.757812 61.089844 190.050781 57.332031 C 188.3125 56.363281 186.476562 55.628906 184.550781 55.128906 C 182.625 54.628906 180.664062 54.378906 178.671875 54.378906 C 176.679688 54.378906 174.722656 54.632812 172.792969 55.132812 C 170.867188 55.632812 169.035156 56.367188 167.296875 57.335938 C 160.589844 61.09375 153.660156 64.378906 146.503906 67.195312 C 135.027344 71.703125 125.511719 71.816406 114.851562 73.714844 C 114.574219 73.769531 114.3125 73.863281 114.0625 74.003906 C 113.816406 74.140625 113.597656 74.316406 113.40625 74.527344 C 113.21875 74.738281 113.066406 74.972656 112.953125 75.234375 C 112.839844 75.496094 112.773438 75.765625 112.75 76.050781 C 109.105469 122.019531 122.996094 160.488281 151.871094 184.378906 Z M 250.355469 170.464844 C 250.355469 171.226562 250.316406 171.984375 250.242188 172.742188 C 250.167969 173.496094 250.054688 174.246094 249.90625 174.992188 C 249.753906 175.738281 249.570312 176.476562 249.347656 177.203125 C 249.125 177.929688 248.871094 178.644531 248.578125 179.347656 C 248.285156 180.046875 247.960938 180.734375 247.601562 181.40625 C 247.242188 182.074219 246.847656 182.726562 246.425781 183.359375 C 246 183.992188 245.546875 184.601562 245.0625 185.1875 C 244.582031 185.777344 244.070312 186.339844 243.53125 186.875 C 242.992188 187.414062 242.425781 187.921875 241.839844 188.40625 C 241.25 188.886719 240.636719 189.339844 240.003906 189.761719 C 239.371094 190.183594 238.71875 190.574219 238.046875 190.933594 C 237.375 191.292969 236.6875 191.617188 235.980469 191.910156 C 235.277344 192.199219 234.5625 192.457031 233.832031 192.679688 C 233.101562 192.898438 232.363281 193.085938 231.617188 193.234375 C 230.871094 193.382812 230.117188 193.496094 229.359375 193.570312 C 228.601562 193.644531 227.839844 193.683594 227.078125 193.683594 C 196.21875 192.464844 196.226562 148.460938 227.078125 147.246094 C 227.839844 147.25 228.601562 147.285156 229.359375 147.363281 C 230.117188 147.4375 230.871094 147.550781 231.617188 147.699219 C 232.363281 147.847656 233.101562 148.03125 233.832031 148.253906 C 234.5625 148.472656 235.277344 148.730469 235.980469 149.023438 C 236.6875 149.3125 237.375 149.636719 238.046875 149.996094 C 238.71875 150.355469 239.371094 150.746094 240.003906 151.167969 C 240.636719 151.589844 241.25 152.042969 241.839844 152.527344 C 242.425781 153.007812 242.992188 153.519531 243.53125 154.054688 C 244.070312 154.59375 244.582031 155.15625 245.0625 155.742188 C 245.546875 156.332031 246 156.941406 246.425781 157.574219 C 246.847656 158.203125 247.242188 158.855469 247.601562 159.527344 C 247.960938 160.195312 248.285156 160.882812 248.578125 161.585938 C 248.871094 162.285156 249.125 163 249.347656 163.730469 C 249.570312 164.457031 249.753906 165.191406 249.90625 165.9375 C 250.054688 166.683594 250.167969 167.433594 250.242188 168.191406 C 250.316406 168.945312 250.355469 169.707031 250.355469 170.464844 Z M 117.761719 78.445312 C 128 76.847656 137.03125 76.4375 148.40625 71.996094 C 155.777344 69.09375 162.914062 65.707031 169.820312 61.839844 C 171.171875 61.085938 172.597656 60.511719 174.097656 60.121094 C 175.597656 59.730469 177.121094 59.535156 178.671875 59.535156 C 180.222656 59.535156 181.746094 59.730469 183.246094 60.117188 C 184.746094 60.507812 186.171875 61.082031 187.523438 61.835938 C 194.433594 65.707031 201.574219 69.089844 208.945312 71.992188 C 220.324219 76.441406 229.347656 76.847656 239.589844 78.449219 C 241.230469 102.308594 238.050781 123.738281 230.214844 142.269531 C 229.601562 142.203125 228.988281 142.152344 228.371094 142.125 C 227.757812 142.097656 227.140625 142.089844 226.527344 142.101562 C 225.910156 142.113281 225.296875 142.144531 224.679688 142.195312 C 224.066406 142.246094 223.457031 142.316406 222.847656 142.410156 C 222.238281 142.5 221.632812 142.609375 221.03125 142.742188 C 220.429688 142.871094 219.832031 143.019531 219.238281 143.191406 C 218.648438 143.359375 218.0625 143.546875 217.480469 143.753906 C 216.902344 143.960938 216.328125 144.1875 215.765625 144.429688 C 215.199219 144.675781 214.640625 144.9375 214.09375 145.214844 C 213.546875 145.496094 213.007812 145.792969 212.480469 146.109375 C 211.949219 146.425781 211.433594 146.753906 210.925781 147.105469 C 210.417969 147.453125 209.921875 147.816406 209.441406 148.199219 C 208.957031 148.578125 208.484375 148.976562 208.027344 149.386719 C 207.570312 149.796875 207.128906 150.222656 206.699219 150.664062 C 206.265625 151.101562 205.851562 151.554688 205.453125 152.023438 C 205.050781 152.488281 204.667969 152.96875 204.296875 153.460938 C 203.929688 153.953125 203.574219 154.457031 203.238281 154.96875 C 202.902344 155.484375 202.585938 156.007812 202.28125 156.542969 C 201.980469 157.078125 201.695312 157.625 201.429688 158.179688 C 201.164062 158.730469 200.914062 159.292969 200.683594 159.863281 C 200.453125 160.433594 200.242188 161.011719 200.050781 161.59375 C 199.859375 162.175781 199.683594 162.765625 199.53125 163.359375 C 199.375 163.957031 199.242188 164.554688 199.125 165.15625 C 199.011719 165.761719 198.917969 166.367188 198.839844 166.976562 C 198.765625 167.585938 198.710938 168.199219 198.671875 168.8125 C 198.636719 169.425781 198.621094 170.039062 198.625 170.652344 C 198.628906 171.265625 198.65625 171.878906 198.699219 172.492188 C 198.742188 173.105469 198.808594 173.714844 198.890625 174.324219 C 198.976562 174.933594 199.078125 175.539062 199.203125 176.140625 C 199.324219 176.742188 199.46875 177.339844 199.628906 177.933594 C 199.792969 178.523438 199.972656 179.113281 200.175781 179.691406 C 200.375 180.273438 200.59375 180.847656 200.832031 181.414062 C 194.117188 186.675781 186.734375 190.714844 178.675781 193.535156 C 133.757812 176.082031 114.695312 131.472656 117.761719 78.445312 Z M 117.761719 78.445312 " fill-opacity="1" fill-rule="nonzero"></path></g><path fill="#000000" d="M 178.675781 147.675781 C 178.066406 147.675781 177.464844 147.617188 176.867188 147.496094 C 176.273438 147.378906 175.691406 147.203125 175.128906 146.96875 C 174.570312 146.738281 174.035156 146.453125 173.53125 146.117188 C 173.023438 145.777344 172.554688 145.394531 172.125 144.964844 C 171.695312 144.539062 171.3125 144.070312 170.972656 143.566406 C 170.636719 143.0625 170.347656 142.53125 170.117188 141.96875 C 169.882812 141.410156 169.707031 140.832031 169.589844 140.234375 C 169.46875 139.640625 169.410156 139.039062 169.40625 138.433594 C 169.402344 138.097656 169.332031 137.773438 169.195312 137.460938 C 169.0625 137.152344 168.875 136.878906 168.632812 136.640625 C 168.390625 136.40625 168.113281 136.222656 167.800781 136.09375 C 167.488281 135.96875 167.160156 135.902344 166.820312 135.902344 C 166.484375 135.902344 166.15625 135.96875 165.84375 136.09375 C 165.53125 136.222656 165.253906 136.40625 165.011719 136.640625 C 164.769531 136.878906 164.582031 137.152344 164.445312 137.460938 C 164.3125 137.773438 164.242188 138.097656 164.234375 138.433594 C 164.238281 139.269531 164.308594 140.101562 164.457031 140.921875 C 164.601562 141.746094 164.820312 142.550781 165.105469 143.335938 C 165.390625 144.121094 165.742188 144.878906 166.164062 145.601562 C 166.582031 146.328125 167.058594 147.011719 167.597656 147.652344 C 168.132812 148.292969 168.722656 148.882812 169.363281 149.425781 C 170.003906 149.964844 170.683594 150.445312 171.410156 150.867188 C 172.132812 151.285156 172.890625 151.640625 173.675781 151.933594 C 174.460938 152.222656 175.265625 152.441406 176.089844 152.59375 L 176.089844 154.988281 C 176.089844 155.328125 176.15625 155.65625 176.289062 155.972656 C 176.417969 156.289062 176.605469 156.570312 176.847656 156.8125 C 177.09375 157.054688 177.371094 157.238281 177.6875 157.371094 C 178.003906 157.5 178.335938 157.566406 178.679688 157.566406 C 179.019531 157.566406 179.351562 157.5 179.667969 157.371094 C 179.984375 157.238281 180.265625 157.054688 180.507812 156.8125 C 180.75 156.570312 180.9375 156.289062 181.066406 155.972656 C 181.199219 155.65625 181.265625 155.328125 181.265625 154.988281 L 181.265625 152.59375 C 182.144531 152.433594 183 152.195312 183.835938 151.875 C 184.667969 151.558594 185.46875 151.164062 186.230469 150.699219 C 186.992188 150.234375 187.703125 149.703125 188.367188 149.105469 C 189.027344 148.507812 189.628906 147.855469 190.171875 147.144531 C 190.710938 146.433594 191.183594 145.683594 191.585938 144.886719 C 191.984375 144.089844 192.308594 143.261719 192.554688 142.40625 C 192.804688 141.550781 192.96875 140.679688 193.054688 139.792969 C 193.136719 138.90625 193.140625 138.019531 193.058594 137.128906 C 192.980469 136.242188 192.816406 135.371094 192.574219 134.511719 C 192.332031 133.65625 192.011719 132.828125 191.617188 132.027344 C 191.21875 131.230469 190.75 130.476562 190.214844 129.765625 C 189.675781 129.050781 189.078125 128.394531 188.417969 127.796875 C 187.757812 127.195312 187.046875 126.660156 186.289062 126.191406 C 185.53125 125.71875 184.734375 125.324219 183.898438 125.003906 C 183.066406 124.679688 182.210938 124.4375 181.332031 124.273438 C 180.453125 124.109375 179.570312 124.027344 178.675781 124.03125 C 178.066406 124.03125 177.464844 123.96875 176.867188 123.851562 C 176.269531 123.734375 175.691406 123.558594 175.128906 123.324219 C 174.566406 123.09375 174.03125 122.808594 173.527344 122.472656 C 173.019531 122.132812 172.554688 121.75 172.121094 121.320312 C 171.691406 120.890625 171.308594 120.425781 170.96875 119.921875 C 170.632812 119.414062 170.347656 118.882812 170.113281 118.324219 C 169.878906 117.761719 169.703125 117.183594 169.585938 116.589844 C 169.46875 115.992188 169.40625 115.390625 169.40625 114.785156 C 169.40625 114.175781 169.46875 113.578125 169.585938 112.980469 C 169.703125 112.386719 169.878906 111.808594 170.113281 111.246094 C 170.347656 110.6875 170.632812 110.152344 170.96875 109.648438 C 171.308594 109.144531 171.691406 108.675781 172.121094 108.246094 C 172.554688 107.820312 173.023438 107.433594 173.527344 107.097656 C 174.035156 106.761719 174.566406 106.476562 175.128906 106.242188 C 175.691406 106.011719 176.273438 105.835938 176.867188 105.71875 C 177.464844 105.597656 178.070312 105.539062 178.675781 105.539062 C 179.285156 105.539062 179.886719 105.597656 180.484375 105.71875 C 181.082031 105.835938 181.660156 106.011719 182.222656 106.242188 C 182.785156 106.476562 183.320312 106.761719 183.828125 107.097656 C 184.332031 107.433594 184.800781 107.820312 185.230469 108.246094 C 185.660156 108.675781 186.046875 109.144531 186.382812 109.648438 C 186.722656 110.152344 187.007812 110.6875 187.242188 111.246094 C 187.472656 111.808594 187.648438 112.386719 187.769531 112.980469 C 187.886719 113.578125 187.945312 114.179688 187.945312 114.785156 C 187.953125 115.121094 188.023438 115.445312 188.15625 115.757812 C 188.289062 116.066406 188.480469 116.339844 188.71875 116.578125 C 188.960938 116.8125 189.238281 116.996094 189.554688 117.125 C 189.867188 117.253906 190.195312 117.316406 190.53125 117.316406 C 190.871094 117.316406 191.199219 117.25 191.511719 117.125 C 191.824219 116.996094 192.101562 116.8125 192.34375 116.578125 C 192.585938 116.339844 192.773438 116.066406 192.90625 115.757812 C 193.042969 115.445312 193.113281 115.121094 193.117188 114.785156 C 193.117188 113.949219 193.042969 113.117188 192.898438 112.296875 C 192.75 111.472656 192.535156 110.667969 192.25 109.882812 C 191.960938 109.097656 191.609375 108.339844 191.191406 107.617188 C 190.773438 106.890625 190.296875 106.210938 189.757812 105.566406 C 189.222656 104.925781 188.632812 104.335938 187.992188 103.796875 C 187.351562 103.257812 186.671875 102.777344 185.945312 102.355469 C 185.222656 101.933594 184.46875 101.578125 183.679688 101.289062 C 182.894531 100.996094 182.089844 100.777344 181.265625 100.625 L 181.265625 98.230469 C 181.265625 97.890625 181.199219 97.558594 181.066406 97.246094 C 180.9375 96.929688 180.75 96.648438 180.507812 96.40625 C 180.265625 96.164062 179.984375 95.980469 179.667969 95.847656 C 179.351562 95.71875 179.019531 95.652344 178.679688 95.652344 C 178.335938 95.652344 178.003906 95.71875 177.6875 95.847656 C 177.371094 95.980469 177.09375 96.164062 176.847656 96.40625 C 176.605469 96.648438 176.417969 96.929688 176.289062 97.246094 C 176.15625 97.558594 176.089844 97.890625 176.089844 98.230469 L 176.089844 100.625 C 175.21875 100.792969 174.367188 101.035156 173.539062 101.359375 C 172.710938 101.679688 171.917969 102.074219 171.164062 102.542969 C 170.410156 103.011719 169.703125 103.542969 169.046875 104.140625 C 168.390625 104.742188 167.792969 105.394531 167.257812 106.101562 C 166.722656 106.808594 166.257812 107.558594 165.859375 108.355469 C 165.464844 109.148438 165.144531 109.96875 164.898438 110.824219 C 164.65625 111.675781 164.492188 112.542969 164.40625 113.425781 C 164.324219 114.308594 164.324219 115.191406 164.402344 116.074219 C 164.480469 116.957031 164.640625 117.828125 164.882812 118.679688 C 165.125 119.535156 165.441406 120.359375 165.835938 121.15625 C 166.226562 121.949219 166.691406 122.703125 167.222656 123.414062 C 167.753906 124.121094 168.347656 124.777344 169.003906 125.378906 C 169.65625 125.980469 170.359375 126.515625 171.113281 126.988281 C 171.867188 127.457031 172.65625 127.855469 173.484375 128.183594 C 174.3125 128.507812 175.160156 128.753906 176.035156 128.925781 C 176.90625 129.09375 177.785156 129.183594 178.675781 129.1875 C 179.28125 129.195312 179.878906 129.261719 180.46875 129.382812 C 181.0625 129.507812 181.636719 129.6875 182.191406 129.921875 C 182.746094 130.15625 183.277344 130.445312 183.777344 130.78125 C 184.277344 131.121094 184.738281 131.503906 185.164062 131.933594 C 185.589844 132.359375 185.96875 132.828125 186.300781 133.328125 C 186.636719 133.832031 186.917969 134.363281 187.144531 134.917969 C 187.375 135.476562 187.550781 136.050781 187.667969 136.640625 C 187.785156 137.234375 187.84375 137.832031 187.84375 138.433594 C 187.84375 139.035156 187.785156 139.632812 187.667969 140.222656 C 187.550781 140.816406 187.375 141.390625 187.144531 141.945312 C 186.917969 142.503906 186.632812 143.035156 186.300781 143.535156 C 185.96875 144.039062 185.589844 144.503906 185.164062 144.933594 C 184.738281 145.363281 184.277344 145.746094 183.777344 146.082031 C 183.277344 146.421875 182.746094 146.707031 182.191406 146.945312 C 181.632812 147.179688 181.0625 147.359375 180.46875 147.480469 C 179.878906 147.605469 179.28125 147.671875 178.675781 147.675781 Z M 178.675781 147.675781 " fill-opacity="1" fill-rule="nonzero"></path><path fill="#000000" d="M 216.492188 168.640625 C 216.246094 168.40625 215.96875 168.226562 215.652344 168.105469 C 215.339844 167.980469 215.011719 167.917969 214.671875 167.921875 C 214.335938 167.925781 214.007812 167.992188 213.695312 168.121094 C 213.382812 168.253906 213.109375 168.4375 212.871094 168.675781 C 212.628906 168.917969 212.445312 169.191406 212.3125 169.503906 C 212.183594 169.8125 212.117188 170.136719 212.113281 170.476562 C 212.109375 170.8125 212.167969 171.140625 212.292969 171.453125 C 212.417969 171.765625 212.597656 172.046875 212.832031 172.289062 L 221.109375 180.546875 C 221.355469 180.785156 221.636719 180.96875 221.953125 181.101562 C 222.269531 181.230469 222.597656 181.296875 222.941406 181.296875 C 223.28125 181.296875 223.613281 181.230469 223.929688 181.101562 C 224.246094 180.96875 224.523438 180.785156 224.769531 180.546875 L 241.320312 164.035156 C 241.554688 163.789062 241.734375 163.511719 241.859375 163.199219 C 241.984375 162.882812 242.046875 162.558594 242.042969 162.21875 C 242.039062 161.882812 241.972656 161.558594 241.839844 161.246094 C 241.710938 160.9375 241.523438 160.660156 241.285156 160.421875 C 241.046875 160.183594 240.769531 160 240.457031 159.867188 C 240.144531 159.738281 239.820312 159.671875 239.480469 159.667969 C 239.144531 159.664062 238.816406 159.722656 238.5 159.847656 C 238.1875 159.972656 237.90625 160.152344 237.664062 160.386719 L 222.941406 175.074219 Z M 216.492188 168.640625 " fill-opacity="1" fill-rule="nonzero"></path><g fill="#000000" fill-opacity="1"><g transform="translate(61.902341, 318.206816)"><g><path d="M 10.28125 -6.1875 L 12.125 -6.1875 L 12.125 -1.546875 C 11.476562 -1.054688 10.710938 -0.660156 9.828125 -0.359375 C 8.953125 -0.0546875 8.085938 0.09375 7.234375 0.09375 C 5.378906 0.09375 3.8125 -0.519531 2.53125 -1.75 C 1.25 -2.976562 0.609375 -4.492188 0.609375 -6.296875 C 0.609375 -8.097656 1.253906 -9.609375 2.546875 -10.828125 C 3.847656 -12.046875 5.453125 -12.65625 7.359375 -12.65625 C 8.242188 -12.65625 9.113281 -12.492188 9.96875 -12.171875 C 10.832031 -11.859375 11.578125 -11.429688 12.203125 -10.890625 L 11 -9.328125 C 9.96875 -10.285156 8.753906 -10.765625 7.359375 -10.765625 C 6.078125 -10.765625 4.988281 -10.332031 4.09375 -9.46875 C 3.207031 -8.601562 2.765625 -7.546875 2.765625 -6.296875 C 2.765625 -5.035156 3.210938 -3.972656 4.109375 -3.109375 C 5.003906 -2.242188 6.09375 -1.8125 7.375 -1.8125 C 8.351562 -1.8125 9.320312 -2.101562 10.28125 -2.6875 Z M 10.28125 -6.1875 "></path></g></g></g><g fill="#000000" fill-opacity="1"><g transform="translate(75.384304, 318.206816)"><g><path d="M 10.21875 -9.578125 L 10.21875 0 L 8.15625 0 L 8.15625 -1.875 C 7.53125 -0.601562 6.390625 0.046875 4.734375 0.078125 C 3.640625 0.078125 2.78125 -0.25 2.15625 -0.90625 C 1.53125 -1.570312 1.21875 -2.476562 1.21875 -3.625 L 1.21875 -9.578125 L 3.296875 -9.578125 L 3.296875 -4.1875 C 3.296875 -3.46875 3.492188 -2.898438 3.890625 -2.484375 C 4.285156 -2.078125 4.832031 -1.875 5.53125 -1.875 C 6.332031 -1.882812 6.96875 -2.164062 7.4375 -2.71875 C 7.914062 -3.28125 8.15625 -3.992188 8.15625 -4.859375 L 8.15625 -9.578125 Z M 10.21875 -9.578125 "></path></g></g></g><g fill="#000000" fill-opacity="1"><g transform="translate(87.138267, 318.206816)"><g><path d="M 7.265625 0 L 7.265625 -1.171875 C 6.585938 -0.328125 5.535156 0.09375 4.109375 0.09375 C 3.085938 0.09375 2.269531 -0.179688 1.65625 -0.734375 C 1.039062 -1.296875 0.734375 -2.007812 0.734375 -2.875 C 0.734375 -3.75 1.050781 -4.441406 1.6875 -4.953125 C 2.320312 -5.472656 3.210938 -5.742188 4.359375 -5.765625 L 7.25 -5.765625 L 7.25 -6.046875 C 7.25 -6.660156 7.050781 -7.132812 6.65625 -7.46875 C 6.269531 -7.800781 5.707031 -7.96875 4.96875 -7.96875 C 4.039062 -7.96875 3.097656 -7.644531 2.140625 -7 L 1.296875 -8.4375 C 2.023438 -8.875 2.679688 -9.179688 3.265625 -9.359375 C 3.847656 -9.546875 4.566406 -9.640625 5.421875 -9.640625 C 6.640625 -9.640625 7.582031 -9.34375 8.25 -8.75 C 8.925781 -8.15625 9.269531 -7.332031 9.28125 -6.28125 L 9.3125 0 Z M 4.53125 -1.546875 C 5.269531 -1.546875 5.890625 -1.71875 6.390625 -2.0625 C 6.898438 -2.40625 7.1875 -2.835938 7.25 -3.359375 L 7.25 -4.25 L 4.65625 -4.25 C 3.976562 -4.25 3.476562 -4.148438 3.15625 -3.953125 C 2.84375 -3.753906 2.6875 -3.425781 2.6875 -2.96875 C 2.6875 -2.539062 2.847656 -2.195312 3.171875 -1.9375 C 3.503906 -1.675781 3.957031 -1.546875 4.53125 -1.546875 Z M 4.53125 -1.546875 "></path></g></g></g><g fill="#000000" fill-opacity="1"><g transform="translate(97.68624, 318.206816)"><g><path d="M 3.59375 -9.578125 L 3.59375 -7.671875 C 4.257812 -8.984375 5.363281 -9.640625 6.90625 -9.640625 L 6.90625 -7.671875 C 5.957031 -7.710938 5.1875 -7.488281 4.59375 -7 C 4.007812 -6.507812 3.675781 -5.84375 3.59375 -5 L 3.59375 0 L 1.53125 0 L 1.53125 -9.578125 Z M 3.59375 -9.578125 "></path></g></g></g><g fill="#000000" fill-opacity="1"><g transform="translate(104.778223, 318.206816)"><g><path d="M 7.265625 0 L 7.265625 -1.171875 C 6.585938 -0.328125 5.535156 0.09375 4.109375 0.09375 C 3.085938 0.09375 2.269531 -0.179688 1.65625 -0.734375 C 1.039062 -1.296875 0.734375 -2.007812 0.734375 -2.875 C 0.734375 -3.75 1.050781 -4.441406 1.6875 -4.953125 C 2.320312 -5.472656 3.210938 -5.742188 4.359375 -5.765625 L 7.25 -5.765625 L 7.25 -6.046875 C 7.25 -6.660156 7.050781 -7.132812 6.65625 -7.46875 C 6.269531 -7.800781 5.707031 -7.96875 4.96875 -7.96875 C 4.039062 -7.96875 3.097656 -7.644531 2.140625 -7 L 1.296875 -8.4375 C 2.023438 -8.875 2.679688 -9.179688 3.265625 -9.359375 C 3.847656 -9.546875 4.566406 -9.640625 5.421875 -9.640625 C 6.640625 -9.640625 7.582031 -9.34375 8.25 -8.75 C 8.925781 -8.15625 9.269531 -7.332031 9.28125 -6.28125 L 9.3125 0 Z M 4.53125 -1.546875 C 5.269531 -1.546875 5.890625 -1.71875 6.390625 -2.0625 C 6.898438 -2.40625 7.1875 -2.835938 7.25 -3.359375 L 7.25 -4.25 L 4.65625 -4.25 C 3.976562 -4.25 3.476562 -4.148438 3.15625 -3.953125 C 2.84375 -3.753906 2.6875 -3.425781 2.6875 -2.96875 C 2.6875 -2.539062 2.847656 -2.195312 3.171875 -1.9375 C 3.503906 -1.675781 3.957031 -1.546875 4.53125 -1.546875 Z M 4.53125 -1.546875 "></path></g></g></g><g fill="#000000" fill-opacity="1"><g transform="translate(115.326196, 318.206816)"><g><path d="M 7.125 -9.640625 C 8.238281 -9.640625 9.109375 -9.3125 9.734375 -8.65625 C 10.367188 -8.007812 10.6875 -7.109375 10.6875 -5.953125 L 10.6875 0 L 8.625 0 L 8.625 -5.375 C 8.625 -6.101562 8.414062 -6.671875 8 -7.078125 C 7.59375 -7.492188 7.03125 -7.703125 6.3125 -7.703125 C 5.550781 -7.691406 4.925781 -7.445312 4.4375 -6.96875 C 3.945312 -6.488281 3.664062 -5.863281 3.59375 -5.09375 L 3.59375 0 L 1.53125 0 L 1.53125 -9.578125 L 3.59375 -9.578125 L 3.59375 -7.734375 C 4.25 -9.003906 5.425781 -9.640625 7.125 -9.640625 Z M 7.125 -9.640625 "></path></g></g></g><g fill="#000000" fill-opacity="1"><g transform="translate(127.260163, 318.206816)"><g><path d="M 6.421875 -2.203125 L 6.953125 -0.609375 C 6.160156 -0.140625 5.375 0.09375 4.59375 0.09375 C 3.8125 0.09375 3.164062 -0.140625 2.65625 -0.609375 C 2.15625 -1.078125 1.90625 -1.773438 1.90625 -2.703125 L 1.90625 -7.671875 L 0.5625 -7.671875 L 0.5625 -9.21875 L 1.90625 -9.21875 L 1.90625 -11.84375 L 3.953125 -11.84375 L 3.953125 -9.21875 L 6.78125 -9.21875 L 6.78125 -7.671875 L 3.953125 -7.671875 L 3.953125 -3.078125 C 3.953125 -2.597656 4.035156 -2.257812 4.203125 -2.0625 C 4.378906 -1.875 4.640625 -1.78125 4.984375 -1.78125 C 5.367188 -1.78125 5.847656 -1.921875 6.421875 -2.203125 Z M 6.421875 -2.203125 "></path></g></g></g><g fill="#000000" fill-opacity="1"><g transform="translate(134.586144, 318.206816)"><g><path d="M 5.46875 -9.640625 C 7.113281 -9.640625 8.304688 -9.144531 9.046875 -8.15625 C 9.785156 -7.164062 10.085938 -5.78125 9.953125 -4 L 2.71875 -4 C 2.882812 -3.25 3.226562 -2.660156 3.75 -2.234375 C 4.28125 -1.816406 4.925781 -1.609375 5.6875 -1.609375 C 6.769531 -1.609375 7.671875 -1.976562 8.390625 -2.71875 L 9.484375 -1.546875 C 8.503906 -0.460938 7.1875 0.078125 5.53125 0.078125 C 4.050781 0.078125 2.863281 -0.367188 1.96875 -1.265625 C 1.070312 -2.160156 0.625 -3.328125 0.625 -4.765625 C 0.625 -6.210938 1.070312 -7.382812 1.96875 -8.28125 C 2.875 -9.175781 4.039062 -9.628906 5.46875 -9.640625 Z M 2.6875 -5.515625 L 8.15625 -5.515625 C 8.113281 -6.273438 7.851562 -6.875 7.375 -7.3125 C 6.894531 -7.757812 6.265625 -7.984375 5.484375 -7.984375 C 4.734375 -7.984375 4.109375 -7.757812 3.609375 -7.3125 C 3.109375 -6.875 2.800781 -6.273438 2.6875 -5.515625 Z M 2.6875 -5.515625 "></path></g></g></g><g fill="#000000" fill-opacity="1"><g transform="translate(145.170108, 318.206816)"><g><path d="M 5.46875 -9.640625 C 7.113281 -9.640625 8.304688 -9.144531 9.046875 -8.15625 C 9.785156 -7.164062 10.085938 -5.78125 9.953125 -4 L 2.71875 -4 C 2.882812 -3.25 3.226562 -2.660156 3.75 -2.234375 C 4.28125 -1.816406 4.925781 -1.609375 5.6875 -1.609375 C 6.769531 -1.609375 7.671875 -1.976562 8.390625 -2.71875 L 9.484375 -1.546875 C 8.503906 -0.460938 7.1875 0.078125 5.53125 0.078125 C 4.050781 0.078125 2.863281 -0.367188 1.96875 -1.265625 C 1.070312 -2.160156 0.625 -3.328125 0.625 -4.765625 C 0.625 -6.210938 1.070312 -7.382812 1.96875 -8.28125 C 2.875 -9.175781 4.039062 -9.628906 5.46875 -9.640625 Z M 2.6875 -5.515625 L 8.15625 -5.515625 C 8.113281 -6.273438 7.851562 -6.875 7.375 -7.3125 C 6.894531 -7.757812 6.265625 -7.984375 5.484375 -7.984375 C 4.734375 -7.984375 4.109375 -7.757812 3.609375 -7.3125 C 3.109375 -6.875 2.800781 -6.273438 2.6875 -5.515625 Z M 2.6875 -5.515625 "></path></g></g></g><g fill="#000000" fill-opacity="1"><g transform="translate(155.754073, 318.206816)"><g></g></g></g><g fill="#000000" fill-opacity="1"><g transform="translate(160.398062, 318.206816)"><g><path d="M 4.390625 -9.671875 C 5.710938 -9.671875 6.828125 -9.34375 7.734375 -8.6875 L 6.984375 -7.15625 C 6.066406 -7.726562 5.148438 -8.015625 4.234375 -8.015625 C 3.296875 -8.015625 2.828125 -7.695312 2.828125 -7.0625 C 2.828125 -6.75 3 -6.488281 3.34375 -6.28125 C 3.695312 -6.070312 4.117188 -5.898438 4.609375 -5.765625 C 5.109375 -5.628906 5.609375 -5.46875 6.109375 -5.28125 C 6.609375 -5.09375 7.03125 -4.789062 7.375 -4.375 C 7.726562 -3.957031 7.90625 -3.421875 7.90625 -2.765625 C 7.90625 -1.847656 7.550781 -1.144531 6.84375 -0.65625 C 6.144531 -0.164062 5.273438 0.078125 4.234375 0.078125 C 3.515625 0.078125 2.804688 -0.0351562 2.109375 -0.265625 C 1.421875 -0.503906 0.84375 -0.835938 0.375 -1.265625 L 1.109375 -2.734375 C 1.523438 -2.378906 2.03125 -2.09375 2.625 -1.875 C 3.21875 -1.65625 3.78125 -1.546875 4.3125 -1.546875 C 4.78125 -1.546875 5.160156 -1.628906 5.453125 -1.796875 C 5.742188 -1.960938 5.890625 -2.222656 5.890625 -2.578125 C 5.890625 -2.929688 5.710938 -3.21875 5.359375 -3.4375 C 5.015625 -3.65625 4.59375 -3.828125 4.09375 -3.953125 C 3.601562 -4.085938 3.113281 -4.242188 2.625 -4.421875 C 2.132812 -4.609375 1.71875 -4.90625 1.375 -5.3125 C 1.03125 -5.726562 0.859375 -6.253906 0.859375 -6.890625 C 0.859375 -7.804688 1.195312 -8.5 1.875 -8.96875 C 2.550781 -9.4375 3.390625 -9.671875 4.390625 -9.671875 Z M 4.390625 -9.671875 "></path></g></g></g><g fill="#000000" fill-opacity="1"><g transform="translate(168.858038, 318.206816)"><g><path d="M 5.46875 -9.640625 C 7.113281 -9.640625 8.304688 -9.144531 9.046875 -8.15625 C 9.785156 -7.164062 10.085938 -5.78125 9.953125 -4 L 2.71875 -4 C 2.882812 -3.25 3.226562 -2.660156 3.75 -2.234375 C 4.28125 -1.816406 4.925781 -1.609375 5.6875 -1.609375 C 6.769531 -1.609375 7.671875 -1.976562 8.390625 -2.71875 L 9.484375 -1.546875 C 8.503906 -0.460938 7.1875 0.078125 5.53125 0.078125 C 4.050781 0.078125 2.863281 -0.367188 1.96875 -1.265625 C 1.070312 -2.160156 0.625 -3.328125 0.625 -4.765625 C 0.625 -6.210938 1.070312 -7.382812 1.96875 -8.28125 C 2.875 -9.175781 4.039062 -9.628906 5.46875 -9.640625 Z M 2.6875 -5.515625 L 8.15625 -5.515625 C 8.113281 -6.273438 7.851562 -6.875 7.375 -7.3125 C 6.894531 -7.757812 6.265625 -7.984375 5.484375 -7.984375 C 4.734375 -7.984375 4.109375 -7.757812 3.609375 -7.3125 C 3.109375 -6.875 2.800781 -6.273438 2.6875 -5.515625 Z M 2.6875 -5.515625 "></path></g></g></g><g fill="#000000" fill-opacity="1"><g transform="translate(179.442002, 318.206816)"><g><path d="M 5.453125 -9.640625 C 7.179688 -9.640625 8.5 -9.117188 9.40625 -8.078125 L 8.28125 -6.75 C 7.5625 -7.476562 6.648438 -7.835938 5.546875 -7.828125 C 4.710938 -7.828125 4.03125 -7.539062 3.5 -6.96875 C 2.96875 -6.40625 2.703125 -5.671875 2.703125 -4.765625 C 2.703125 -3.867188 2.96875 -3.132812 3.5 -2.5625 C 4.03125 -1.988281 4.710938 -1.703125 5.546875 -1.703125 C 6.765625 -1.703125 7.707031 -2.085938 8.375 -2.859375 L 9.515625 -1.703125 C 8.617188 -0.515625 7.265625 0.078125 5.453125 0.078125 C 4.023438 0.078125 2.863281 -0.367188 1.96875 -1.265625 C 1.070312 -2.160156 0.625 -3.328125 0.625 -4.765625 C 0.625 -6.222656 1.070312 -7.398438 1.96875 -8.296875 C 2.863281 -9.191406 4.023438 -9.640625 5.453125 -9.640625 Z M 5.453125 -9.640625 "></path></g></g></g><g fill="#000000" fill-opacity="1"><g transform="translate(189.593975, 318.206816)"><g><path d="M 10.21875 -9.578125 L 10.21875 0 L 8.15625 0 L 8.15625 -1.875 C 7.53125 -0.601562 6.390625 0.046875 4.734375 0.078125 C 3.640625 0.078125 2.78125 -0.25 2.15625 -0.90625 C 1.53125 -1.570312 1.21875 -2.476562 1.21875 -3.625 L 1.21875 -9.578125 L 3.296875 -9.578125 L 3.296875 -4.1875 C 3.296875 -3.46875 3.492188 -2.898438 3.890625 -2.484375 C 4.285156 -2.078125 4.832031 -1.875 5.53125 -1.875 C 6.332031 -1.882812 6.96875 -2.164062 7.4375 -2.71875 C 7.914062 -3.28125 8.15625 -3.992188 8.15625 -4.859375 L 8.15625 -9.578125 Z M 10.21875 -9.578125 "></path></g></g></g><g fill="#000000" fill-opacity="1"><g transform="translate(201.347938, 318.206816)"><g><path d="M 3.59375 -9.578125 L 3.59375 -7.671875 C 4.257812 -8.984375 5.363281 -9.640625 6.90625 -9.640625 L 6.90625 -7.671875 C 5.957031 -7.710938 5.1875 -7.488281 4.59375 -7 C 4.007812 -6.507812 3.675781 -5.84375 3.59375 -5 L 3.59375 0 L 1.53125 0 L 1.53125 -9.578125 Z M 3.59375 -9.578125 "></path></g></g></g><g fill="#000000" fill-opacity="1"><g transform="translate(208.439922, 318.206816)"><g><path d="M 5.46875 -9.640625 C 7.113281 -9.640625 8.304688 -9.144531 9.046875 -8.15625 C 9.785156 -7.164062 10.085938 -5.78125 9.953125 -4 L 2.71875 -4 C 2.882812 -3.25 3.226562 -2.660156 3.75 -2.234375 C 4.28125 -1.816406 4.925781 -1.609375 5.6875 -1.609375 C 6.769531 -1.609375 7.671875 -1.976562 8.390625 -2.71875 L 9.484375 -1.546875 C 8.503906 -0.460938 7.1875 0.078125 5.53125 0.078125 C 4.050781 0.078125 2.863281 -0.367188 1.96875 -1.265625 C 1.070312 -2.160156 0.625 -3.328125 0.625 -4.765625 C 0.625 -6.210938 1.070312 -7.382812 1.96875 -8.28125 C 2.875 -9.175781 4.039062 -9.628906 5.46875 -9.640625 Z M 2.6875 -5.515625 L 8.15625 -5.515625 C 8.113281 -6.273438 7.851562 -6.875 7.375 -7.3125 C 6.894531 -7.757812 6.265625 -7.984375 5.484375 -7.984375 C 4.734375 -7.984375 4.109375 -7.757812 3.609375 -7.3125 C 3.109375 -6.875 2.800781 -6.273438 2.6875 -5.515625 Z M 2.6875 -5.515625 "></path></g></g></g><g fill="#000000" fill-opacity="1"><g transform="translate(219.023886, 318.206816)"><g></g></g></g><g fill="#000000" fill-opacity="1"><g transform="translate(223.667875, 318.206816)"><g><path d="M 7.03125 -9.640625 C 8.394531 -9.640625 9.5 -9.1875 10.34375 -8.28125 C 11.1875 -7.382812 11.609375 -6.207031 11.609375 -4.75 C 11.609375 -3.3125 11.191406 -2.144531 10.359375 -1.25 C 9.535156 -0.363281 8.441406 0.078125 7.078125 0.078125 C 5.535156 0.078125 4.40625 -0.5 3.6875 -1.65625 L 3.6875 3.484375 L 1.625 3.484375 L 1.625 -9.578125 L 3.6875 -9.578125 L 3.6875 -7.921875 C 4.40625 -9.066406 5.519531 -9.640625 7.03125 -9.640625 Z M 4.5 -2.5625 C 5.050781 -1.976562 5.753906 -1.6875 6.609375 -1.6875 C 7.460938 -1.6875 8.160156 -1.976562 8.703125 -2.5625 C 9.242188 -3.144531 9.515625 -3.898438 9.515625 -4.828125 C 9.515625 -5.722656 9.242188 -6.460938 8.703125 -7.046875 C 8.160156 -7.628906 7.460938 -7.921875 6.609375 -7.921875 C 5.753906 -7.921875 5.050781 -7.628906 4.5 -7.046875 C 3.957031 -6.460938 3.6875 -5.722656 3.6875 -4.828125 C 3.6875 -3.898438 3.957031 -3.144531 4.5 -2.5625 Z M 4.5 -2.5625 "></path></g></g></g><g fill="#000000" fill-opacity="1"><g transform="translate(235.907834, 318.206816)"><g><path d="M 7.265625 0 L 7.265625 -1.171875 C 6.585938 -0.328125 5.535156 0.09375 4.109375 0.09375 C 3.085938 0.09375 2.269531 -0.179688 1.65625 -0.734375 C 1.039062 -1.296875 0.734375 -2.007812 0.734375 -2.875 C 0.734375 -3.75 1.050781 -4.441406 1.6875 -4.953125 C 2.320312 -5.472656 3.210938 -5.742188 4.359375 -5.765625 L 7.25 -5.765625 L 7.25 -6.046875 C 7.25 -6.660156 7.050781 -7.132812 6.65625 -7.46875 C 6.269531 -7.800781 5.707031 -7.96875 4.96875 -7.96875 C 4.039062 -7.96875 3.097656 -7.644531 2.140625 -7 L 1.296875 -8.4375 C 2.023438 -8.875 2.679688 -9.179688 3.265625 -9.359375 C 3.847656 -9.546875 4.566406 -9.640625 5.421875 -9.640625 C 6.640625 -9.640625 7.582031 -9.34375 8.25 -8.75 C 8.925781 -8.15625 9.269531 -7.332031 9.28125 -6.28125 L 9.3125 0 Z M 4.53125 -1.546875 C 5.269531 -1.546875 5.890625 -1.71875 6.390625 -2.0625 C 6.898438 -2.40625 7.1875 -2.835938 7.25 -3.359375 L 7.25 -4.25 L 4.65625 -4.25 C 3.976562 -4.25 3.476562 -4.148438 3.15625 -3.953125 C 2.84375 -3.753906 2.6875 -3.425781 2.6875 -2.96875 C 2.6875 -2.539062 2.847656 -2.195312 3.171875 -1.9375 C 3.503906 -1.675781 3.957031 -1.546875 4.53125 -1.546875 Z M 4.53125 -1.546875 "></path></g></g></g><g fill="#000000" fill-opacity="1"><g transform="translate(246.455807, 318.206816)"><g><path d="M 9.640625 -9.578125 L 5.296875 1.3125 C 4.703125 2.820312 3.660156 3.578125 2.171875 3.578125 C 1.347656 3.578125 0.613281 3.304688 -0.03125 2.765625 L 0.84375 1.171875 C 1.28125 1.484375 1.695312 1.640625 2.09375 1.640625 C 2.738281 1.640625 3.222656 1.285156 3.546875 0.578125 L 3.875 -0.140625 L -0.09375 -9.578125 L 2.046875 -9.578125 L 4.90625 -2.328125 L 7.578125 -9.578125 Z M 9.640625 -9.578125 "></path></g></g></g><g fill="#000000" fill-opacity="1"><g transform="translate(256.013763, 318.206816)"><g><path d="M 14.015625 -9.640625 C 15.109375 -9.640625 15.96875 -9.3125 16.59375 -8.65625 C 17.21875 -8 17.53125 -7.097656 17.53125 -5.953125 L 17.53125 0 L 15.46875 0 L 15.46875 -5.375 C 15.46875 -6.113281 15.265625 -6.6875 14.859375 -7.09375 C 14.453125 -7.507812 13.894531 -7.71875 13.1875 -7.71875 C 12.382812 -7.695312 11.742188 -7.40625 11.265625 -6.84375 C 10.796875 -6.289062 10.5625 -5.585938 10.5625 -4.734375 L 10.5625 0 L 8.5 0 L 8.5 -5.375 C 8.5 -6.113281 8.296875 -6.6875 7.890625 -7.09375 C 7.492188 -7.507812 6.945312 -7.71875 6.25 -7.71875 C 5.425781 -7.695312 4.773438 -7.40625 4.296875 -6.84375 C 3.816406 -6.289062 3.578125 -5.585938 3.578125 -4.734375 L 3.578125 0 L 1.53125 0 L 1.53125 -9.578125 L 3.578125 -9.578125 L 3.578125 -7.71875 C 4.210938 -9 5.375 -9.640625 7.0625 -9.640625 C 7.90625 -9.640625 8.613281 -9.4375 9.1875 -9.03125 C 9.757812 -8.632812 10.160156 -8.070312 10.390625 -7.34375 C 10.972656 -8.875 12.179688 -9.640625 14.015625 -9.640625 Z M 14.015625 -9.640625 "></path></g></g></g><g fill="#000000" fill-opacity="1"><g transform="translate(274.787703, 318.206816)"><g><path d="M 5.46875 -9.640625 C 7.113281 -9.640625 8.304688 -9.144531 9.046875 -8.15625 C 9.785156 -7.164062 10.085938 -5.78125 9.953125 -4 L 2.71875 -4 C 2.882812 -3.25 3.226562 -2.660156 3.75 -2.234375 C 4.28125 -1.816406 4.925781 -1.609375 5.6875 -1.609375 C 6.769531 -1.609375 7.671875 -1.976562 8.390625 -2.71875 L 9.484375 -1.546875 C 8.503906 -0.460938 7.1875 0.078125 5.53125 0.078125 C 4.050781 0.078125 2.863281 -0.367188 1.96875 -1.265625 C 1.070312 -2.160156 0.625 -3.328125 0.625 -4.765625 C 0.625 -6.210938 1.070312 -7.382812 1.96875 -8.28125 C 2.875 -9.175781 4.039062 -9.628906 5.46875 -9.640625 Z M 2.6875 -5.515625 L 8.15625 -5.515625 C 8.113281 -6.273438 7.851562 -6.875 7.375 -7.3125 C 6.894531 -7.757812 6.265625 -7.984375 5.484375 -7.984375 C 4.734375 -7.984375 4.109375 -7.757812 3.609375 -7.3125 C 3.109375 -6.875 2.800781 -6.273438 2.6875 -5.515625 Z M 2.6875 -5.515625 "></path></g></g></g><g fill="#000000" fill-opacity="1"><g transform="translate(285.371656, 318.206816)"><g><path d="M 7.125 -9.640625 C 8.238281 -9.640625 9.109375 -9.3125 9.734375 -8.65625 C 10.367188 -8.007812 10.6875 -7.109375 10.6875 -5.953125 L 10.6875 0 L 8.625 0 L 8.625 -5.375 C 8.625 -6.101562 8.414062 -6.671875 8 -7.078125 C 7.59375 -7.492188 7.03125 -7.703125 6.3125 -7.703125 C 5.550781 -7.691406 4.925781 -7.445312 4.4375 -6.96875 C 3.945312 -6.488281 3.664062 -5.863281 3.59375 -5.09375 L 3.59375 0 L 1.53125 0 L 1.53125 -9.578125 L 3.59375 -9.578125 L 3.59375 -7.734375 C 4.25 -9.003906 5.425781 -9.640625 7.125 -9.640625 Z M 7.125 -9.640625 "></path></g></g></g><g fill="#000000" fill-opacity="1"><g transform="translate(297.305623, 318.206816)"><g><path d="M 6.421875 -2.203125 L 6.953125 -0.609375 C 6.160156 -0.140625 5.375 0.09375 4.59375 0.09375 C 3.8125 0.09375 3.164062 -0.140625 2.65625 -0.609375 C 2.15625 -1.078125 1.90625 -1.773438 1.90625 -2.703125 L 1.90625 -7.671875 L 0.5625 -7.671875 L 0.5625 -9.21875 L 1.90625 -9.21875 L 1.90625 -11.84375 L 3.953125 -11.84375 L 3.953125 -9.21875 L 6.78125 -9.21875 L 6.78125 -7.671875 L 3.953125 -7.671875 L 3.953125 -3.078125 C 3.953125 -2.597656 4.035156 -2.257812 4.203125 -2.0625 C 4.378906 -1.875 4.640625 -1.78125 4.984375 -1.78125 C 5.367188 -1.78125 5.847656 -1.921875 6.421875 -2.203125 Z M 6.421875 -2.203125 "></path></g></g></g><g fill="#000000" fill-opacity="1"><g transform="translate(304.631603, 318.206816)"><g><path d="M 4.390625 -9.671875 C 5.710938 -9.671875 6.828125 -9.34375 7.734375 -8.6875 L 6.984375 -7.15625 C 6.066406 -7.726562 5.148438 -8.015625 4.234375 -8.015625 C 3.296875 -8.015625 2.828125 -7.695312 2.828125 -7.0625 C 2.828125 -6.75 3 -6.488281 3.34375 -6.28125 C 3.695312 -6.070312 4.117188 -5.898438 4.609375 -5.765625 C 5.109375 -5.628906 5.609375 -5.46875 6.109375 -5.28125 C 6.609375 -5.09375 7.03125 -4.789062 7.375 -4.375 C 7.726562 -3.957031 7.90625 -3.421875 7.90625 -2.765625 C 7.90625 -1.847656 7.550781 -1.144531 6.84375 -0.65625 C 6.144531 -0.164062 5.273438 0.078125 4.234375 0.078125 C 3.515625 0.078125 2.804688 -0.0351562 2.109375 -0.265625 C 1.421875 -0.503906 0.84375 -0.835938 0.375 -1.265625 L 1.109375 -2.734375 C 1.523438 -2.378906 2.03125 -2.09375 2.625 -1.875 C 3.21875 -1.65625 3.78125 -1.546875 4.3125 -1.546875 C 4.78125 -1.546875 5.160156 -1.628906 5.453125 -1.796875 C 5.742188 -1.960938 5.890625 -2.222656 5.890625 -2.578125 C 5.890625 -2.929688 5.710938 -3.21875 5.359375 -3.4375 C 5.015625 -3.65625 4.59375 -3.828125 4.09375 -3.953125 C 3.601562 -4.085938 3.113281 -4.242188 2.625 -4.421875 C 2.132812 -4.609375 1.71875 -4.90625 1.375 -5.3125 C 1.03125 -5.726562 0.859375 -6.253906 0.859375 -6.890625 C 0.859375 -7.804688 1.195312 -8.5 1.875 -8.96875 C 2.550781 -9.4375 3.390625 -9.671875 4.390625 -9.671875 Z M 4.390625 -9.671875 "></path></g></g></g></svg>