<svg xmlns="http://www.w3.org/2000/svg" xmlns:xlink="http://www.w3.org/1999/xlink" width="500" viewBox="0 0 375 374.999991" height="500" preserveAspectRatio="xMidYMid meet"><defs><g></g><clipPath id="4fafbe87b0"><path d="M 187.5 0 C 83.945312 0 0 83.945312 0 187.5 C 0 291.054688 83.945312 375 187.5 375 C 291.054688 375 375 291.054688 375 187.5 C 375 83.945312 291.054688 0 187.5 0 " clip-rule="nonzero"></path></clipPath><clipPath id="4dd7df492f"><path d="M 240.3125 296 L 287.488281 296 L 287.488281 300.851562 L 240.3125 300.851562 Z M 240.3125 296 " clip-rule="nonzero"></path></clipPath><clipPath id="428199add5"><path d="M 68.191406 218.351562 L 306.691406 218.351562 L 306.691406 300 L 68.191406 300 Z M 68.191406 218.351562 " clip-rule="nonzero"></path></clipPath><clipPath id="eed96a9d07"><path d="M 113.496094 52.878906 L 261.246094 52.878906 L 261.246094 193.128906 L 113.496094 193.128906 Z M 113.496094 52.878906 " clip-rule="nonzero"></path></clipPath></defs><rect x="-37.5" width="450" fill="#ffffff" y="-37.499999" height="449.999989" fill-opacity="1"></rect><path fill="#fefefe" d="M 187.5 0 C 83.945312 0 0 83.945312 0 187.5 C 0 291.054688 83.945312 375 187.5 375 C 291.054688 375 375 291.054688 375 187.5 C 375 83.945312 291.054688 0 187.5 0 " fill-opacity="1" fill-rule="nonzero"></path><g clip-path="url(#4fafbe87b0)"><path stroke-linecap="butt" transform="matrix(0.75, 0, 0, 0.75, 0.0000045, 0)" fill="none" stroke-linejoin="miter" d="M 249.999994 0 C 111.927078 0 -0.000006 111.927084 -0.000006 250 C -0.000006 388.072917 111.927078 500.000001 249.999994 500.000001 C 388.072911 500.000001 499.999995 388.072917 499.999995 250 C 499.999995 111.927084 388.072911 0 249.999994 0 " stroke="#fcca29" stroke-width="8" stroke-opacity="1" stroke-miterlimit="4"></path></g><g clip-path="url(#4dd7df492f)"><path fill="#fcca29" d="M 285.964844 298.277344 C 284.351562 297.933594 282.738281 297.589844 281.0625 297.585938 C 278.308594 297.578125 275.574219 297.199219 272.828125 297.007812 C 268.597656 296.710938 264.367188 296.332031 260.125 296.160156 C 255.1875 296.542969 250.214844 295.492188 245.296875 296.523438 C 244.996094 296.585938 244.667969 296.511719 244.351562 296.476562 C 243.496094 296.386719 242.667969 296.703125 241.890625 297.421875 C 241.496094 297.785156 240.804688 297.339844 240.433594 297.960938 C 241.113281 298.070312 241.730469 298.175781 242.351562 298.261719 C 243.453125 298.414062 244.671875 299.152344 245.382812 297.507812 C 245.574219 297.0625 246.15625 297.292969 246.386719 297.59375 C 247.261719 298.714844 248.476562 298.542969 249.652344 298.546875 C 252.023438 298.554688 254.390625 298.546875 256.761719 298.546875 C 256.917969 298.546875 257.078125 298.550781 257.234375 298.554688 C 257.234375 298.710938 257.234375 298.867188 257.234375 299.019531 C 259.449219 299.023438 261.660156 299.023438 263.871094 299.027344 C 264.019531 299.039062 264.171875 299.046875 264.324219 299.050781 C 264.335938 299.050781 264.347656 299.050781 264.355469 299.050781 C 264.324219 299.15625 264.300781 299.265625 264.285156 299.390625 C 265.035156 300.046875 265.941406 299.71875 266.769531 299.71875 C 273.121094 299.738281 279.460938 299.972656 285.761719 300.859375 C 285.902344 300.792969 286.046875 300.726562 286.191406 300.664062 C 286.75 300.417969 287.511719 300.351562 287.476562 299.507812 C 287.441406 298.585938 286.636719 298.421875 285.964844 298.277344 " fill-opacity="1" fill-rule="nonzero"></path></g><g clip-path="url(#428199add5)"><path fill="#fcca29" d="M 297.667969 286.582031 C 297.667969 286.582031 297.671875 286.582031 297.671875 286.582031 C 297.671875 286.582031 297.667969 286.582031 297.667969 286.582031 Z M 297.769531 286.554688 C 298.167969 286.417969 298.542969 286.195312 298.878906 285.847656 C 298.550781 286.214844 298.171875 286.429688 297.769531 286.554688 Z M 286.292969 286.925781 C 276.992188 286.914062 267.710938 287.792969 258.410156 287.503906 C 257.667969 287.476562 256.851562 287.746094 256.0625 287.042969 C 257.0625 286.246094 258.183594 286.40625 259.234375 286.398438 C 264.753906 286.359375 270.273438 286.328125 275.792969 286.394531 C 282.230469 286.472656 288.667969 286.09375 295.101562 286.671875 C 292.15625 286.609375 289.21875 286.929688 286.292969 286.925781 Z M 120.28125 288.699219 C 120.277344 288.714844 120.273438 288.726562 120.269531 288.742188 C 120.226562 288.675781 120.183594 288.609375 120.136719 288.542969 C 120.136719 288.542969 120.28125 288.699219 120.28125 288.699219 Z M 114.566406 260.835938 C 114.152344 260.871094 113.710938 260.894531 113.242188 260.824219 C 113.6875 260.84375 114.128906 260.84375 114.566406 260.835938 Z M 127.261719 259.359375 C 131.5625 258.847656 135.832031 257.847656 139.730469 258.566406 C 138.511719 258.773438 136.789062 257.964844 135.105469 258.660156 C 134.199219 258.855469 133.273438 258.925781 132.347656 258.945312 C 131.363281 259.136719 130.355469 259.105469 129.359375 259.207031 C 128.492188 259.265625 127.652344 259.46875 126.839844 259.777344 C 126.480469 259.890625 126.109375 259.929688 125.738281 259.933594 C 125.21875 259.945312 124.699219 259.941406 124.183594 259.957031 C 123.597656 259.980469 123.125 260.1875 122.878906 260.757812 C 122.875 260.835938 122.878906 260.90625 122.890625 260.972656 C 122.429688 260.550781 121.867188 260.421875 121.242188 260.457031 C 120.339844 260.613281 119.421875 260.316406 118.523438 260.558594 C 117.871094 260.699219 117.253906 260.898438 116.933594 261.550781 C 116.933594 261.527344 116.929688 261.5 116.925781 261.472656 C 116.578125 260.992188 116.167969 260.824219 115.714844 260.785156 C 119.761719 260.519531 123.445312 259.351562 127.261719 259.359375 Z M 95.242188 244.816406 C 97.367188 244.074219 99.515625 243.96875 101.492188 243.183594 C 101.621094 243.0625 101.714844 242.925781 101.785156 242.773438 C 102.476562 243.863281 103.722656 243.59375 104.75 243.867188 C 107.65625 243.414062 110.5625 243.925781 113.46875 243.855469 C 115.195312 243.8125 116.921875 243.636719 118.65625 243.746094 C 119.386719 243.789062 120.136719 243.367188 120.199219 242.5625 C 120.269531 241.589844 119.414062 241.519531 118.703125 241.492188 C 117.523438 241.445312 116.371094 241.039062 115.660156 241.167969 C 118.597656 240.335938 122.058594 239.632812 125.574219 239.269531 C 128.683594 238.945312 131.847656 239.074219 134.886719 238.164062 C 134.917969 238.097656 134.945312 238.03125 134.96875 237.964844 C 135.214844 238.1875 135.507812 238.230469 135.835938 238.148438 C 135.839844 238.140625 135.84375 238.136719 135.847656 238.128906 C 135.851562 238.210938 135.855469 238.292969 135.855469 238.371094 C 136.679688 238.402344 137.441406 238.582031 137.644531 239.527344 C 137.863281 240.554688 136.894531 240.703125 136.363281 241.171875 C 136.296875 241.046875 136.210938 240.9375 136.101562 240.839844 C 134.550781 240.152344 133.234375 240.769531 131.90625 241.539062 C 129.191406 243.117188 126.25 244.105469 123.199219 244.816406 C 122.523438 245.03125 121.804688 245.128906 121.183594 245.476562 C 121.175781 245.476562 121.164062 245.476562 121.160156 245.476562 C 120.992188 245.320312 120.832031 245.324219 120.675781 245.492188 L 120.660156 245.503906 C 120.671875 245.667969 120.679688 245.835938 120.691406 246.003906 C 120.695312 246.003906 120.695312 246.003906 120.699219 246.003906 C 120.691406 246.023438 120.683594 246.039062 120.675781 246.058594 C 120.648438 245.910156 120.613281 245.757812 120.570312 245.59375 C 120.273438 245.355469 119.9375 245.175781 119.578125 245.046875 C 111.503906 244.628906 103.425781 245.070312 95.242188 244.816406 Z M 199.71875 222.636719 C 199.742188 222.636719 199.765625 222.636719 199.789062 222.632812 C 199.6875 222.664062 199.589844 222.695312 199.492188 222.726562 C 199.5 222.679688 199.558594 222.648438 199.71875 222.636719 Z M 240.042969 221.722656 C 239.191406 221.914062 238.566406 222.003906 238.6875 222.617188 C 238.484375 222.539062 238.277344 222.453125 238.074219 222.351562 C 237.679688 222.117188 237.253906 222.035156 236.800781 222.105469 C 236.578125 222.164062 236.351562 222.210938 236.128906 222.253906 C 235.210938 221.828125 234.148438 222.148438 233.167969 222.070312 C 233.710938 222.046875 234.246094 221.945312 234.761719 221.65625 C 234.792969 221.628906 234.820312 221.605469 234.84375 221.582031 C 236.464844 221.625 238.113281 221.847656 240.042969 221.722656 Z M 252.5625 238.324219 C 252.574219 238.34375 252.582031 238.363281 252.59375 238.382812 C 252.554688 238.382812 252.523438 238.382812 252.488281 238.382812 C 252.515625 238.359375 252.539062 238.34375 252.5625 238.324219 Z M 266.703125 243.136719 C 266.703125 243.136719 266.699219 243.136719 266.695312 243.136719 C 266.699219 243.128906 266.703125 243.121094 266.703125 243.113281 C 266.703125 243.121094 266.703125 243.128906 266.703125 243.136719 Z M 215.460938 222.046875 C 215.574219 222.046875 215.691406 222.046875 215.800781 222.046875 C 216.480469 222.046875 217.164062 222.046875 217.847656 222.046875 C 217.859375 222.046875 217.871094 222.046875 217.882812 222.046875 C 217.078125 222.046875 216.269531 222.046875 215.460938 222.046875 Z M 228.449219 222.046875 C 229.398438 222.042969 230.347656 222.039062 231.292969 222.03125 C 231.484375 222.03125 231.675781 222.039062 231.863281 222.046875 C 230.726562 222.046875 229.585938 222.046875 228.449219 222.046875 Z M 196.917969 226.648438 C 198.167969 226.777344 199.417969 226.800781 200.671875 226.796875 C 200.648438 226.796875 200.628906 226.796875 200.605469 226.796875 C 199.230469 226.8125 197.859375 226.898438 196.503906 227.011719 C 196.550781 226.90625 196.53125 226.753906 196.417969 226.539062 C 196.453125 226.539062 196.492188 226.539062 196.527344 226.539062 C 196.65625 226.578125 196.789062 226.613281 196.917969 226.648438 Z M 190.371094 227.589844 C 191.605469 227.445312 192.902344 227.265625 194.21875 227.222656 C 192.910156 227.355469 191.625 227.488281 190.371094 227.589844 Z M 243.082031 235.503906 C 243.058594 235.492188 243.03125 235.480469 243.007812 235.46875 C 243.007812 235.457031 243.007812 235.441406 243.007812 235.429688 C 243.042969 235.449219 243.078125 235.46875 243.113281 235.484375 C 243.101562 235.492188 243.09375 235.5 243.082031 235.503906 Z M 246.328125 234.597656 Z M 246.472656 234.738281 C 246.480469 234.742188 246.492188 234.75 246.503906 234.753906 C 246.554688 234.796875 246.605469 234.839844 246.65625 234.875 C 246.59375 234.839844 246.53125 234.789062 246.472656 234.738281 Z M 206.863281 226.804688 C 206.5625 226.824219 206.253906 226.808594 205.941406 226.78125 C 206.40625 226.78125 206.871094 226.78125 207.332031 226.78125 C 207.175781 226.785156 207.019531 226.792969 206.863281 226.804688 Z M 210.535156 226.269531 C 210.734375 226.410156 210.9375 226.492188 211.136719 226.53125 C 210.328125 226.753906 209.484375 226.777344 208.636719 226.773438 C 208.847656 226.769531 209.054688 226.769531 209.265625 226.753906 C 209.664062 226.742188 210 226.59375 210.28125 226.308594 C 210.285156 226.300781 210.292969 226.292969 210.296875 226.285156 C 210.378906 226.28125 210.457031 226.277344 210.535156 226.269531 Z M 159.792969 241.28125 C 159.792969 241.300781 159.792969 241.316406 159.792969 241.335938 C 159.792969 241.316406 159.789062 241.300781 159.789062 241.28125 C 159.789062 241.28125 159.792969 241.28125 159.792969 241.28125 Z M 202.0625 226.785156 C 202.796875 226.777344 203.53125 226.765625 204.261719 226.765625 C 203.894531 226.832031 203.535156 226.976562 203.199219 227.253906 C 203.183594 227.253906 203.167969 227.253906 203.148438 227.253906 C 203.097656 227.261719 203.046875 227.265625 202.996094 227.269531 C 202.726562 226.972656 202.40625 226.835938 202.0625 226.785156 Z M 268.847656 251.398438 C 270.925781 252.398438 273.132812 251.679688 275.273438 251.863281 C 275.425781 251.828125 275.582031 251.78125 275.730469 251.722656 C 275.8125 251.769531 275.894531 251.808594 275.984375 251.84375 C 276.535156 251.910156 277.070312 252.070312 277.625 252.109375 C 277.625 252.21875 277.625 252.328125 277.625 252.4375 C 277.578125 252.484375 277.539062 252.539062 277.503906 252.601562 C 273.53125 252.585938 269.539062 252.820312 265.304688 251.800781 C 265.566406 251.453125 266.003906 251.277344 266.757812 251.394531 C 267.335938 251.484375 267.984375 251.492188 268.46875 251 C 268.519531 250.902344 268.566406 250.808594 268.617188 250.710938 C 268.722656 250.664062 268.832031 250.628906 268.945312 250.601562 C 268.851562 250.890625 268.8125 251.164062 268.847656 251.398438 Z M 272.765625 234.359375 C 269.964844 234.351562 267.167969 234.320312 264.367188 234.449219 C 263.289062 234.5 262.140625 234.613281 261.1875 233.851562 C 261.101562 233.78125 261.011719 233.71875 260.921875 233.65625 C 261.003906 233.621094 261.050781 233.554688 261.066406 233.453125 C 261.789062 234.355469 262.847656 234.234375 263.8125 234.21875 C 266.796875 234.179688 269.78125 234.324219 272.765625 234.359375 Z M 306.097656 286.683594 C 305.941406 286.527344 305.78125 286.371094 305.625 286.21875 L 305.585938 286.253906 C 305.585938 286.253906 305.585938 286.253906 305.582031 286.25 C 305.597656 286.238281 305.609375 286.230469 305.625 286.21875 C 305.3125 286.050781 305.003906 285.886719 304.695312 285.722656 C 304.679688 285.578125 304.667969 285.433594 304.648438 285.289062 C 303.574219 284.785156 302 285.203125 301.371094 283.671875 C 302.097656 283.242188 302.746094 283.386719 303.359375 283.378906 C 304.710938 283.359375 304.953125 282.640625 304.636719 281.511719 C 304.578125 281.441406 304.519531 281.371094 304.460938 281.296875 C 304.191406 281.257812 303.90625 281.25 303.695312 281.035156 C 303.695312 281.035156 303.691406 281.039062 303.695312 281.039062 C 302.726562 280.972656 301.714844 281.179688 300.839844 280.5625 C 299.898438 280.554688 298.960938 280.542969 298.019531 280.535156 C 295.820312 280.527344 293.617188 280.519531 291.417969 280.515625 C 291.40625 280.546875 291.390625 280.574219 291.378906 280.601562 C 291.367188 280.597656 291.355469 280.589844 291.34375 280.582031 C 291.347656 280.582031 291.417969 280.515625 291.417969 280.515625 C 291.390625 280.375 291.363281 280.234375 291.347656 280.09375 C 289.929688 280.09375 288.507812 280.074219 287.089844 280.097656 C 279.289062 280.234375 271.507812 279.386719 263.707031 279.546875 C 262.824219 279.5625 261.429688 279.710938 261.4375 278.519531 C 261.445312 277.421875 262.773438 277.417969 263.722656 277.410156 C 269.625 277.34375 275.503906 276.605469 281.414062 276.777344 C 284.273438 276.75 287.089844 276.050781 289.964844 276.308594 C 290.121094 276.464844 290.273438 276.46875 290.421875 276.296875 C 291.058594 276.296875 291.695312 276.300781 292.335938 276.304688 C 292.484375 276.46875 292.636719 276.46875 292.789062 276.300781 C 293.222656 276.125 293.683594 275.984375 294.09375 275.765625 C 295.1875 275.179688 295.210938 274.546875 294.140625 273.917969 C 293.25 273.398438 292.257812 273.128906 291.242188 272.976562 C 289.074219 272.648438 286.902344 272.34375 284.734375 272.03125 C 282.785156 272.023438 280.839844 272.023438 278.890625 272.015625 C 276.554688 272.003906 274.269531 271.40625 271.917969 271.472656 C 271.214844 271.492188 270.226562 271.386719 270.535156 270.152344 C 276.414062 270.140625 282.289062 270.136719 288.171875 270.117188 C 289.097656 270.113281 290.066406 270.28125 290.894531 269.660156 L 290.910156 269.652344 C 291.140625 269.605469 291.433594 269.519531 291.371094 269.25 C 291.265625 268.792969 290.816406 268.769531 290.4375 268.699219 C 288.394531 267.304688 286.050781 267.925781 283.835938 267.699219 C 283.550781 267.589844 283.273438 267.457031 282.984375 267.371094 C 281.191406 266.847656 281.121094 266.746094 282.417969 265.484375 C 283.507812 264.417969 281.921875 264.539062 281.867188 264.007812 C 281.566406 263.980469 281.273438 263.953125 280.976562 263.929688 C 279.816406 262.824219 278.351562 263.074219 276.953125 262.996094 C 276.351562 262.964844 275.539062 263.082031 275.5 262.199219 C 275.464844 261.390625 276.179688 261.230469 276.828125 261.175781 C 277.375 261.128906 277.929688 261.148438 278.480469 261.144531 C 281 261.128906 283.515625 261.152344 286.035156 261.070312 C 286.992188 261.039062 288.53125 261.1875 288.496094 259.980469 C 288.464844 258.929688 286.960938 259.253906 286.074219 259.25 C 279.621094 259.21875 273.167969 259.234375 266.714844 259.234375 C 266.101562 259.222656 265.484375 259.207031 264.871094 259.195312 C 264.847656 259.054688 264.828125 258.914062 264.808594 258.773438 C 264.34375 258.722656 263.804688 258.742188 263.617188 258.199219 C 263.402344 257.566406 263.84375 257.160156 264.285156 256.816406 C 264.8125 256.410156 265.460938 256.429688 266.089844 256.375 C 269.78125 256.070312 273.464844 255.753906 277.152344 255.4375 C 281.730469 255.695312 286.222656 254.695312 290.765625 254.480469 C 291.410156 254.453125 292.078125 254.386719 292.191406 253.566406 C 292.296875 252.832031 291.839844 252.378906 291.246094 252.089844 C 289.957031 251.46875 288.601562 251.085938 287.152344 251.15625 C 286.320312 250.414062 285.089844 250.964844 284.25 250.25 C 284.015625 250.25 283.777344 250.246094 283.542969 250.242188 C 282.285156 250.230469 280.84375 250.460938 281.242188 248.378906 C 281.277344 248.203125 281.097656 247.863281 280.929688 247.78125 C 279.707031 247.191406 280.199219 246.339844 280.425781 245.414062 C 280.957031 243.210938 280.585938 242.726562 278.304688 242.679688 C 275.074219 242.613281 271.84375 242.640625 268.613281 242.628906 C 267.984375 242.632812 267.355469 242.632812 266.726562 242.636719 C 263.449219 242.617188 260.199219 242.003906 256.910156 242.171875 C 255.527344 242.242188 254.328125 241.566406 253.222656 240.828125 C 252.386719 240.273438 252.496094 239.433594 253.398438 239.035156 C 254.035156 238.75 254.808594 238.890625 255.386719 238.410156 C 255.386719 238.410156 255.386719 238.410156 255.390625 238.40625 C 257.851562 237.855469 260.375 237.515625 262.863281 237.535156 C 269.082031 237.574219 275.273438 237.050781 281.484375 236.980469 C 283.371094 236.957031 285.253906 236.917969 287.113281 236.5 C 287.199219 236.34375 287.230469 236.191406 287.203125 236.042969 C 287.335938 236.027344 287.46875 236.011719 287.597656 235.996094 C 288.296875 235.992188 288.996094 235.988281 289.695312 235.984375 C 289.707031 235.921875 289.722656 235.859375 289.734375 235.792969 C 289.75 235.863281 289.769531 235.925781 289.789062 235.992188 C 290.949219 235.796875 292.113281 235.628906 293.261719 235.390625 C 293.785156 235.285156 294.429688 235.144531 294.34375 234.402344 C 294.277344 233.84375 293.734375 233.757812 293.269531 233.660156 C 289.917969 232.34375 286.394531 232.261719 282.867188 232.21875 C 282.867188 232.214844 282.867188 232.214844 282.867188 232.214844 C 281.960938 231.597656 280.925781 231.757812 279.941406 231.78125 C 277.53125 231.832031 275.15625 231.683594 272.878906 230.820312 L 272.867188 230.816406 C 272.863281 230.667969 272.847656 230.519531 272.832031 230.375 C 271.421875 230.363281 270.023438 229.515625 268.605469 230.316406 C 263.910156 229.878906 259.210938 229.652344 254.496094 229.796875 C 253.617188 229.335938 252.660156 229.449219 251.722656 229.441406 C 248.503906 229.410156 245.285156 229.394531 242.0625 229.375 C 241.878906 229.046875 241.308594 229.0625 241.316406 228.484375 C 243.121094 227.953125 244.945312 227.484375 246.855469 227.488281 C 249.695312 227.492188 252.53125 227.535156 255.339844 227.007812 C 255.933594 226.890625 256.203125 226.457031 256.429688 225.949219 C 256.761719 225.191406 257.375 224.789062 258.183594 224.660156 C 258.808594 224.660156 259.429688 224.660156 260.054688 224.664062 C 262.664062 225.566406 265.351562 225 268.003906 225.074219 C 268.320312 225.085938 268.648438 224.910156 268.671875 224.542969 C 268.691406 224.199219 268.441406 223.976562 268.121094 223.878906 C 267.195312 223.597656 266.246094 223.714844 265.304688 223.71875 C 265.378906 223.761719 265.453125 223.808594 265.527344 223.855469 C 265.449219 223.824219 265.371094 223.777344 265.304688 223.71875 C 264.363281 223.707031 263.421875 223.695312 262.484375 223.683594 C 261.789062 223.207031 260.996094 223.257812 260.214844 223.25 C 258.726562 223.238281 257.234375 223.1875 255.746094 223.242188 C 254.214844 223.292969 253.042969 222.878906 252.207031 221.460938 C 251.707031 220.613281 251.101562 219.730469 250.089844 219.328125 C 249.953125 219.351562 249.820312 219.347656 249.6875 219.324219 C 247.132812 218.683594 244.53125 219.101562 241.957031 219.039062 C 234.882812 218.875 227.800781 218.964844 220.722656 218.953125 C 219.886719 218.355469 218.917969 218.515625 217.988281 218.515625 C 212.578125 218.496094 207.164062 218.5 201.753906 218.492188 C 198.707031 219.664062 195.363281 219.058594 192.292969 220.070312 C 186.445312 220.011719 180.636719 221.046875 174.777344 220.753906 C 173.1875 221.847656 171.230469 221.664062 169.507812 222.28125 C 168.085938 223.050781 166.457031 222.824219 164.949219 223.210938 C 163.75 223.519531 162.714844 224.304688 161.359375 224.199219 C 158.605469 223.984375 156.042969 225.265625 153.3125 225.359375 C 153.179688 225.367188 153.046875 225.515625 152.914062 225.601562 C 152.285156 225.601562 151.65625 225.605469 151.027344 225.609375 C 150.625 225.886719 150.179688 226.011719 149.699219 226.023438 C 147.425781 226.070312 145.152344 226.128906 142.882812 226.152344 C 141.160156 226.167969 139.433594 226.085938 137.746094 226.535156 C 137.199219 226.679688 136.457031 226.898438 136.613281 227.496094 C 136.96875 228.839844 136.058594 229.910156 136.082031 231.164062 C 136.117188 233.070312 136.082031 233.074219 134.226562 233.191406 C 133.835938 233.21875 133.441406 233.214844 133.050781 233.226562 C 133.019531 233.359375 132.996094 233.492188 132.976562 233.628906 C 131.792969 234.320312 130.484375 234.117188 129.210938 234.148438 C 127.058594 234.921875 124.753906 234.589844 122.558594 235.074219 C 120.574219 235.269531 118.691406 234.863281 116.867188 234.121094 C 116.710938 234.125 116.554688 234.128906 116.402344 234.132812 C 115.691406 234.703125 114.730469 234.007812 114.027344 234.601562 C 113.746094 234.929688 113.683594 235.304688 113.871094 235.675781 C 114.511719 236.941406 113.8125 237.25 112.730469 237.546875 C 111.125 237.988281 109.496094 237.847656 107.878906 237.945312 C 106.855469 238.648438 105.488281 238.488281 104.507812 239.296875 C 102.683594 239.320312 101.195312 240.167969 99.796875 241.21875 C 96.179688 241.316406 92.851562 243.140625 89.183594 243 C 88.777344 242.984375 88.351562 243.386719 87.933594 243.59375 C 87.78125 243.59375 87.628906 243.597656 87.472656 243.605469 C 87.15625 243.601562 86.839844 243.601562 86.519531 243.597656 C 85.832031 243.96875 85.042969 244.296875 85.207031 245.292969 C 85.347656 246.148438 85.925781 246.648438 86.757812 246.851562 C 86.980469 246.902344 87.21875 246.902344 87.453125 246.929688 C 88.09375 246.921875 88.734375 246.914062 89.371094 246.90625 C 89.523438 246.902344 89.675781 246.902344 89.828125 246.902344 C 91.867188 246.910156 93.847656 247.507812 95.914062 247.417969 C 98.578125 247.300781 101.253906 247.449219 103.921875 247.375 C 107.207031 247.285156 110.5 247.644531 113.789062 247.070312 C 114.800781 246.890625 115.949219 247.332031 117.003906 247.609375 C 117.582031 247.757812 117.5 248.316406 117.335938 248.792969 C 116.148438 248.84375 115.394531 249.238281 115.796875 250.628906 C 115.953125 251.171875 115.835938 251.6875 115.445312 252.121094 C 115.351562 252.097656 115.257812 252.074219 115.164062 252.050781 C 114.882812 251.953125 114.59375 251.882812 114.304688 251.84375 C 114.097656 251.839844 113.894531 251.859375 113.695312 251.914062 C 112.898438 252.1875 112.027344 252.253906 111.328125 252.789062 C 111.277344 252.882812 111.226562 252.980469 111.175781 253.074219 C 112.40625 253.890625 113.789062 253.457031 115.101562 253.535156 C 116.105469 253.597656 116.980469 253.730469 117.386719 254.824219 C 117.835938 256.042969 118.816406 256.417969 120.027344 256.378906 C 121.996094 256.316406 123.972656 256.570312 125.929688 256.171875 C 126.324219 256.09375 126.71875 256.105469 126.773438 256.765625 C 125.964844 257.386719 124.96875 257.605469 123.964844 257.765625 C 119.535156 258.46875 115.089844 259.09375 110.667969 259.867188 C 109.25 260.117188 107.851562 260.164062 106.4375 260.179688 C 103.839844 260.585938 101.886719 262.542969 99.429688 263.277344 C 99.085938 263.246094 98.75 263.28125 98.410156 263.503906 L 98.402344 263.523438 C 97.695312 264.363281 98.03125 264.96875 98.921875 265.25 C 99.484375 265.429688 100.128906 265.34375 100.738281 265.378906 C 102.101562 265.460938 102.4375 266.304688 102.273438 267.484375 C 102.117188 268.578125 101.4375 269.328125 100.566406 269.921875 C 99.585938 270.589844 98.605469 271.292969 98.199219 272.457031 C 97.578125 274.238281 96.175781 274.714844 94.519531 274.84375 C 93.503906 274.921875 92.496094 274.882812 91.496094 275.222656 C 89.269531 275.976562 86.945312 276.328125 84.621094 276.65625 C 84.457031 276.671875 84.285156 276.683594 84.117188 276.695312 C 83.964844 276.570312 83.824219 276.589844 83.691406 276.730469 C 83.527344 276.738281 83.363281 276.746094 83.195312 276.753906 C 82.855469 276.777344 82.550781 276.902344 82.269531 277.089844 C 81.929688 277.105469 81.589844 277.125 81.253906 277.140625 C 79.503906 276.511719 78.257812 278.292969 76.605469 278.121094 C 76.265625 278.144531 75.933594 278.164062 75.597656 278.1875 C 75.234375 278.617188 74.648438 278.257812 74.253906 278.570312 C 74.0625 278.578125 73.875 278.585938 73.683594 278.59375 C 73.53125 278.480469 73.386719 278.492188 73.25 278.625 L 73.210938 278.648438 C 72.851562 279.105469 72.1875 278.6875 71.824219 279.128906 L 71.816406 279.132812 C 71.691406 279.269531 71.546875 279.394531 71.394531 279.503906 C 71.207031 279.511719 71.015625 279.519531 70.824219 279.53125 C 70.199219 279.324219 69.578125 279.214844 68.976562 279.601562 L 68.976562 279.605469 C 68.824219 279.757812 68.667969 279.910156 68.503906 280.054688 L 68.476562 280.082031 C 68.226562 280.390625 68.226562 280.703125 68.472656 281.015625 L 68.507812 281.054688 C 68.667969 281.191406 68.816406 281.339844 68.957031 281.496094 L 68.980469 281.519531 C 69.4375 281.835938 69.898438 281.792969 70.363281 281.550781 C 70.863281 281.53125 71.359375 281.519531 71.855469 281.5 C 73.1875 280.878906 74.835938 281.773438 76.058594 280.617188 C 79.859375 279.964844 83.664062 279.308594 87.464844 278.652344 C 87.722656 278.4375 88.03125 278.382812 88.347656 278.425781 C 92.296875 278.972656 96.128906 277.742188 100.039062 277.664062 C 100.949219 277.644531 101.722656 277.304688 102.226562 276.492188 C 102.238281 276.464844 102.246094 276.4375 102.257812 276.410156 C 102.667969 276.816406 103.605469 276.5625 103.660156 277.425781 C 103.15625 278.148438 102.21875 278.066406 101.691406 278.652344 C 99.679688 278.996094 97.664062 279.296875 95.667969 279.699219 C 94.214844 279.988281 93.546875 280.808594 93.695312 281.894531 C 93.820312 282.800781 94.710938 283.320312 96.109375 283.195312 C 97.511719 283.066406 98.910156 282.851562 100.308594 282.671875 C 103.257812 282.296875 106.207031 281.898438 109.160156 281.546875 C 110.265625 281.417969 111.328125 281.519531 112.304688 282.21875 C 112.792969 282.570312 113.449219 282.695312 114.03125 282.921875 C 114.039062 283.070312 114.050781 283.222656 114.066406 283.371094 C 116.816406 283.300781 119.507812 284.082031 122.269531 283.925781 C 122.574219 283.90625 122.898438 283.972656 123.191406 284.058594 C 123.96875 284.289062 124.253906 284.695312 123.625 285.40625 C 123.109375 285.988281 122.613281 286.59375 122.105469 287.1875 C 121.929688 287.332031 121.757812 287.476562 121.582031 287.625 C 121.101562 287.929688 120.617188 288.238281 120.136719 288.542969 C 118.097656 288.667969 116.097656 289.300781 114.027344 289.085938 C 113.355469 289.636719 112.535156 289.5 111.761719 289.589844 C 111.203125 289.65625 110.585938 289.761719 110.5625 290.46875 C 110.535156 291.199219 111.15625 291.375 111.710938 291.386719 C 112.96875 291.410156 114.230469 291.375 115.488281 291.300781 C 116.234375 291.257812 117.269531 290.714844 117.460938 291.816406 C 117.648438 292.898438 116.4375 292.730469 115.765625 293.023438 C 114.4375 293.589844 112.898438 292.96875 111.625 293.796875 C 111.476562 293.796875 111.328125 293.804688 111.179688 293.8125 C 109.90625 293.90625 108.570312 293.503906 107.382812 294.28125 L 107.375 294.277344 C 105.945312 294.40625 104.453125 293.945312 103.097656 294.742188 C 102.574219 294.769531 102.007812 294.691406 101.574219 295.039062 C 101.089844 295.429688 100.882812 295.882812 101.675781 296.203125 C 103.195312 297.035156 104.847656 296.484375 106.429688 296.671875 C 106.429688 296.660156 106.429688 296.652344 106.433594 296.648438 C 106.4375 296.648438 106.4375 296.648438 106.441406 296.652344 C 106.441406 296.652344 106.429688 296.671875 106.429688 296.671875 C 106.585938 296.824219 106.746094 296.980469 106.902344 297.136719 L 106.921875 297.121094 C 106.925781 297.121094 106.925781 297.121094 106.925781 297.125 C 106.917969 297.128906 106.910156 297.132812 106.902344 297.136719 C 106.980469 297.769531 107.28125 298.257812 107.84375 298.570312 C 107.851562 298.71875 107.859375 298.871094 107.863281 299.023438 C 108.304688 299.03125 108.746094 299.039062 109.1875 299.042969 C 109.175781 299.074219 109.160156 299.097656 109.148438 299.128906 C 109.210938 299.242188 109.273438 299.359375 109.332031 299.472656 C 109.632812 299.480469 109.933594 299.488281 110.230469 299.5 C 114.652344 299.496094 119.074219 299.492188 123.5 299.488281 C 123.582031 299.328125 123.605469 299.175781 123.578125 299.027344 C 123.710938 299.023438 123.84375 299.019531 123.976562 299.019531 C 127.355469 299.019531 130.738281 299.046875 134.117188 298.996094 C 135.039062 298.984375 136.277344 299.277344 136.25 297.605469 C 136.242188 297.1875 136.824219 297.152344 137.214844 297.148438 C 139.253906 297.128906 141.242188 296.457031 143.304688 296.648438 C 144.007812 296.710938 144.722656 296.664062 145.324219 296.1875 C 147.71875 296.40625 150.042969 295.535156 152.4375 295.726562 C 153.859375 295.539062 155.351562 296.019531 156.710938 295.257812 C 161.257812 295.351562 165.789062 294.921875 170.328125 294.808594 C 172.546875 294.753906 174.769531 294.738281 176.988281 294.742188 C 179.183594 295.363281 181.640625 295.53125 183.972656 294.761719 C 184.367188 294.761719 184.761719 294.765625 185.152344 294.765625 C 185.152344 294.605469 185.152344 294.445312 185.148438 294.289062 C 186.390625 294.140625 187.886719 294.785156 188.644531 293.113281 C 188.722656 292.941406 189.21875 292.878906 189.515625 292.890625 C 193.761719 293.046875 197.96875 292.074219 202.21875 292.402344 C 205.1875 291.746094 208.203125 292.058594 211.195312 291.898438 C 211.230469 292.027344 211.292969 292.167969 211.398438 292.324219 C 212.265625 293.089844 213.320312 293.003906 214.316406 292.839844 C 220.898438 291.761719 227.570312 291.589844 234.195312 291.320312 C 242.671875 290.976562 251.160156 290.40625 259.660156 290.730469 C 260.121094 290.746094 260.609375 290.816406 261.019531 290.488281 C 264.332031 290.484375 267.652344 290.128906 270.941406 290.125 C 279.785156 290.113281 288.613281 289.546875 297.453125 289.480469 C 300.007812 289.460938 302.640625 289.382812 305.152344 288.636719 C 305.613281 288.621094 306.070312 288.605469 306.53125 288.589844 C 306.5625 287.914062 306.613281 287.234375 306.097656 286.683594 " fill-opacity="1" fill-rule="nonzero"></path></g><path fill="#fcca29" d="M 93.542969 254.726562 C 94.15625 254.660156 94.644531 254.464844 94.558594 253.519531 C 94.464844 252.546875 93.980469 252.59375 93.335938 252.605469 C 90.109375 252.683594 86.984375 253.445312 83.84375 254.070312 C 83.644531 254.109375 83.480469 254.320312 82.914062 254.734375 C 86.746094 255.585938 90.148438 255.113281 93.542969 254.726562 " fill-opacity="1" fill-rule="nonzero"></path><path fill="#fcca29" d="M 135.855469 238.375 C 135.855469 238.375 135.855469 238.375 135.855469 238.371094 C 135.851562 238.371094 135.847656 238.371094 135.84375 238.371094 L 135.855469 238.375 " fill-opacity="1" fill-rule="nonzero"></path><g fill="#000000" fill-opacity="1"><g transform="translate(88.08161, 241.620805)"><g><path d="M 3.015625 -22.40625 L 12.796875 -22.40625 C 15.191406 -22.40625 17.316406 -21.9375 19.171875 -21 C 21.023438 -20.070312 22.460938 -18.757812 23.484375 -17.0625 C 24.515625 -15.375 25.03125 -13.421875 25.03125 -11.203125 C 25.03125 -8.984375 24.515625 -7.023438 23.484375 -5.328125 C 22.460938 -3.628906 21.023438 -2.316406 19.171875 -1.390625 C 17.316406 -0.460938 15.191406 0 12.796875 0 L 3.015625 0 Z M 12.609375 -3.515625 C 14.253906 -3.515625 15.695312 -3.828125 16.9375 -4.453125 C 18.1875 -5.085938 19.144531 -5.984375 19.8125 -7.140625 C 20.488281 -8.304688 20.828125 -9.660156 20.828125 -11.203125 C 20.828125 -12.734375 20.488281 -14.078125 19.8125 -15.234375 C 19.144531 -16.398438 18.1875 -17.296875 16.9375 -17.921875 C 15.695312 -18.554688 14.253906 -18.875 12.609375 -18.875 L 7.171875 -18.875 L 7.171875 -3.515625 Z M 12.609375 -3.515625 "></path></g></g></g><g fill="#000000" fill-opacity="1"><g transform="translate(114.507115, 241.620805)"><g><path d="M 19.8125 -3.484375 L 19.8125 0 L 3.015625 0 L 3.015625 -22.40625 L 19.359375 -22.40625 L 19.359375 -18.90625 L 7.171875 -18.90625 L 7.171875 -13.09375 L 17.984375 -13.09375 L 17.984375 -9.65625 L 7.171875 -9.65625 L 7.171875 -3.484375 Z M 19.8125 -3.484375 "></path></g></g></g><g fill="#000000" fill-opacity="1"><g transform="translate(135.941841, 241.620805)"><g><path d="M 3.015625 -22.40625 L 12.796875 -22.40625 C 15.191406 -22.40625 17.316406 -21.9375 19.171875 -21 C 21.023438 -20.070312 22.460938 -18.757812 23.484375 -17.0625 C 24.515625 -15.375 25.03125 -13.421875 25.03125 -11.203125 C 25.03125 -8.984375 24.515625 -7.023438 23.484375 -5.328125 C 22.460938 -3.628906 21.023438 -2.316406 19.171875 -1.390625 C 17.316406 -0.460938 15.191406 0 12.796875 0 L 3.015625 0 Z M 12.609375 -3.515625 C 14.253906 -3.515625 15.695312 -3.828125 16.9375 -4.453125 C 18.1875 -5.085938 19.144531 -5.984375 19.8125 -7.140625 C 20.488281 -8.304688 20.828125 -9.660156 20.828125 -11.203125 C 20.828125 -12.734375 20.488281 -14.078125 19.8125 -15.234375 C 19.144531 -16.398438 18.1875 -17.296875 16.9375 -17.921875 C 15.695312 -18.554688 14.253906 -18.875 12.609375 -18.875 L 7.171875 -18.875 L 7.171875 -3.515625 Z M 12.609375 -3.515625 "></path></g></g></g><g fill="#000000" fill-opacity="1"><g transform="translate(162.367346, 241.620805)"><g><path d="M 3.015625 -22.40625 L 7.171875 -22.40625 L 7.171875 0 L 3.015625 0 Z M 3.015625 -22.40625 "></path></g></g></g><g fill="#000000" fill-opacity="1"><g transform="translate(172.572832, 241.620805)"><g><path d="M 13.375 0.3125 C 11.113281 0.3125 9.070312 -0.179688 7.25 -1.171875 C 5.425781 -2.160156 3.992188 -3.53125 2.953125 -5.28125 C 1.921875 -7.03125 1.40625 -9.003906 1.40625 -11.203125 C 1.40625 -13.398438 1.925781 -15.375 2.96875 -17.125 C 4.019531 -18.875 5.457031 -20.242188 7.28125 -21.234375 C 9.101562 -22.222656 11.144531 -22.71875 13.40625 -22.71875 C 15.238281 -22.71875 16.910156 -22.394531 18.421875 -21.75 C 19.941406 -21.113281 21.222656 -20.1875 22.265625 -18.96875 L 19.578125 -16.453125 C 17.960938 -18.203125 15.96875 -19.078125 13.59375 -19.078125 C 12.0625 -19.078125 10.6875 -18.738281 9.46875 -18.0625 C 8.25 -17.394531 7.296875 -16.460938 6.609375 -15.265625 C 5.929688 -14.066406 5.59375 -12.710938 5.59375 -11.203125 C 5.59375 -9.679688 5.929688 -8.320312 6.609375 -7.125 C 7.296875 -5.9375 8.25 -5.003906 9.46875 -4.328125 C 10.6875 -3.660156 12.0625 -3.328125 13.59375 -3.328125 C 15.96875 -3.328125 17.960938 -4.210938 19.578125 -5.984375 L 22.265625 -3.421875 C 21.222656 -2.203125 19.9375 -1.273438 18.40625 -0.640625 C 16.882812 -0.00390625 15.207031 0.3125 13.375 0.3125 Z M 13.375 0.3125 "></path></g></g></g><g fill="#000000" fill-opacity="1"><g transform="translate(195.831115, 241.620805)"><g><path d="M 17.53125 -5.1875 L 6.34375 -5.1875 L 4.125 0 L -0.15625 0 L 9.921875 -22.40625 L 14.015625 -22.40625 L 24.125 0 L 19.78125 0 Z M 16.15625 -8.453125 L 11.9375 -18.234375 L 7.75 -8.453125 Z M 16.15625 -8.453125 "></path></g></g></g><g fill="#000000" fill-opacity="1"><g transform="translate(219.793222, 241.620805)"><g><path d="M 7.546875 -18.875 L 0.125 -18.875 L 0.125 -22.40625 L 19.140625 -22.40625 L 19.140625 -18.875 L 11.71875 -18.875 L 11.71875 0 L 7.546875 0 Z M 7.546875 -18.875 "></path></g></g></g><g fill="#000000" fill-opacity="1"><g transform="translate(239.052483, 241.620805)"><g><path d="M 19.8125 -3.484375 L 19.8125 0 L 3.015625 0 L 3.015625 -22.40625 L 19.359375 -22.40625 L 19.359375 -18.90625 L 7.171875 -18.90625 L 7.171875 -13.09375 L 17.984375 -13.09375 L 17.984375 -9.65625 L 7.171875 -9.65625 L 7.171875 -3.484375 Z M 19.8125 -3.484375 "></path></g></g></g><g fill="#000000" fill-opacity="1"><g transform="translate(260.487209, 241.620805)"><g><path d="M 3.015625 -22.40625 L 12.796875 -22.40625 C 15.191406 -22.40625 17.316406 -21.9375 19.171875 -21 C 21.023438 -20.070312 22.460938 -18.757812 23.484375 -17.0625 C 24.515625 -15.375 25.03125 -13.421875 25.03125 -11.203125 C 25.03125 -8.984375 24.515625 -7.023438 23.484375 -5.328125 C 22.460938 -3.628906 21.023438 -2.316406 19.171875 -1.390625 C 17.316406 -0.460938 15.191406 0 12.796875 0 L 3.015625 0 Z M 12.609375 -3.515625 C 14.253906 -3.515625 15.695312 -3.828125 16.9375 -4.453125 C 18.1875 -5.085938 19.144531 -5.984375 19.8125 -7.140625 C 20.488281 -8.304688 20.828125 -9.660156 20.828125 -11.203125 C 20.828125 -12.734375 20.488281 -14.078125 19.8125 -15.234375 C 19.144531 -16.398438 18.1875 -17.296875 16.9375 -17.921875 C 15.695312 -18.554688 14.253906 -18.875 12.609375 -18.875 L 7.171875 -18.875 L 7.171875 -3.515625 Z M 12.609375 -3.515625 "></path></g></g></g><g fill="#000000" fill-opacity="1"><g transform="translate(106.796453, 285.870802)"><g><path d="M 9.953125 0.3125 C 8.222656 0.3125 6.550781 0.0664062 4.9375 -0.421875 C 3.332031 -0.910156 2.0625 -1.5625 1.125 -2.375 L 2.5625 -5.59375 C 3.476562 -4.875 4.601562 -4.285156 5.9375 -3.828125 C 7.269531 -3.367188 8.609375 -3.140625 9.953125 -3.140625 C 11.617188 -3.140625 12.859375 -3.40625 13.671875 -3.9375 C 14.492188 -4.46875 14.90625 -5.171875 14.90625 -6.046875 C 14.90625 -6.691406 14.675781 -7.21875 14.21875 -7.625 C 13.757812 -8.039062 13.175781 -8.363281 12.46875 -8.59375 C 11.769531 -8.832031 10.8125 -9.101562 9.59375 -9.40625 C 7.894531 -9.8125 6.515625 -10.21875 5.453125 -10.625 C 4.398438 -11.03125 3.492188 -11.664062 2.734375 -12.53125 C 1.972656 -13.394531 1.59375 -14.5625 1.59375 -16.03125 C 1.59375 -17.269531 1.925781 -18.394531 2.59375 -19.40625 C 3.269531 -20.414062 4.285156 -21.21875 5.640625 -21.8125 C 7.003906 -22.414062 8.664062 -22.71875 10.625 -22.71875 C 11.988281 -22.71875 13.332031 -22.546875 14.65625 -22.203125 C 15.976562 -21.867188 17.117188 -21.378906 18.078125 -20.734375 L 16.765625 -17.5 C 15.785156 -18.082031 14.757812 -18.519531 13.6875 -18.8125 C 12.625 -19.113281 11.59375 -19.265625 10.59375 -19.265625 C 8.945312 -19.265625 7.722656 -18.984375 6.921875 -18.421875 C 6.128906 -17.867188 5.734375 -17.132812 5.734375 -16.21875 C 5.734375 -15.582031 5.960938 -15.0625 6.421875 -14.65625 C 6.878906 -14.25 7.457031 -13.925781 8.15625 -13.6875 C 8.863281 -13.457031 9.828125 -13.191406 11.046875 -12.890625 C 12.703125 -12.503906 14.0625 -12.101562 15.125 -11.6875 C 16.195312 -11.28125 17.113281 -10.648438 17.875 -9.796875 C 18.632812 -8.941406 19.015625 -7.789062 19.015625 -6.34375 C 19.015625 -5.101562 18.675781 -3.976562 18 -2.96875 C 17.320312 -1.96875 16.300781 -1.171875 14.9375 -0.578125 C 13.570312 0.015625 11.910156 0.3125 9.953125 0.3125 Z M 9.953125 0.3125 "></path></g></g></g><g fill="#000000" fill-opacity="1"><g transform="translate(126.919502, 285.870802)"><g><path d="M 12.640625 0.3125 C 9.546875 0.3125 7.132812 -0.550781 5.40625 -2.28125 C 3.675781 -4.019531 2.8125 -6.515625 2.8125 -9.765625 L 2.8125 -22.40625 L 6.96875 -22.40625 L 6.96875 -9.921875 C 6.96875 -5.523438 8.867188 -3.328125 12.671875 -3.328125 C 16.453125 -3.328125 18.34375 -5.523438 18.34375 -9.921875 L 18.34375 -22.40625 L 22.4375 -22.40625 L 22.4375 -9.765625 C 22.4375 -6.515625 21.578125 -4.019531 19.859375 -2.28125 C 18.140625 -0.550781 15.734375 0.3125 12.640625 0.3125 Z M 12.640625 0.3125 "></path></g></g></g><g fill="#000000" fill-opacity="1"><g transform="translate(152.161299, 285.870802)"><g><path d="M 12.21875 -22.40625 C 14.164062 -22.40625 15.859375 -22.082031 17.296875 -21.4375 C 18.734375 -20.800781 19.835938 -19.882812 20.609375 -18.6875 C 21.378906 -17.488281 21.765625 -16.070312 21.765625 -14.4375 C 21.765625 -12.8125 21.378906 -11.394531 20.609375 -10.1875 C 19.835938 -8.988281 18.734375 -8.066406 17.296875 -7.421875 C 15.859375 -6.785156 14.164062 -6.46875 12.21875 -6.46875 L 7.171875 -6.46875 L 7.171875 0 L 3.015625 0 L 3.015625 -22.40625 Z M 12.03125 -9.984375 C 13.84375 -9.984375 15.21875 -10.363281 16.15625 -11.125 C 17.09375 -11.894531 17.5625 -13 17.5625 -14.4375 C 17.5625 -15.863281 17.09375 -16.957031 16.15625 -17.71875 C 15.21875 -18.488281 13.84375 -18.875 12.03125 -18.875 L 7.171875 -18.875 L 7.171875 -9.984375 Z M 12.03125 -9.984375 "></path></g></g></g><g fill="#000000" fill-opacity="1"><g transform="translate(175.387585, 285.870802)"><g><path d="M 12.21875 -22.40625 C 14.164062 -22.40625 15.859375 -22.082031 17.296875 -21.4375 C 18.734375 -20.800781 19.835938 -19.882812 20.609375 -18.6875 C 21.378906 -17.488281 21.765625 -16.070312 21.765625 -14.4375 C 21.765625 -12.8125 21.378906 -11.394531 20.609375 -10.1875 C 19.835938 -8.988281 18.734375 -8.066406 17.296875 -7.421875 C 15.859375 -6.785156 14.164062 -6.46875 12.21875 -6.46875 L 7.171875 -6.46875 L 7.171875 0 L 3.015625 0 L 3.015625 -22.40625 Z M 12.03125 -9.984375 C 13.84375 -9.984375 15.21875 -10.363281 16.15625 -11.125 C 17.09375 -11.894531 17.5625 -13 17.5625 -14.4375 C 17.5625 -15.863281 17.09375 -16.957031 16.15625 -17.71875 C 15.21875 -18.488281 13.84375 -18.875 12.03125 -18.875 L 7.171875 -18.875 L 7.171875 -9.984375 Z M 12.03125 -9.984375 "></path></g></g></g><g fill="#000000" fill-opacity="1"><g transform="translate(198.613872, 285.870802)"><g><path d="M 13.46875 0.3125 C 11.1875 0.3125 9.128906 -0.179688 7.296875 -1.171875 C 5.460938 -2.160156 4.019531 -3.535156 2.96875 -5.296875 C 1.925781 -7.054688 1.40625 -9.023438 1.40625 -11.203125 C 1.40625 -13.378906 1.925781 -15.347656 2.96875 -17.109375 C 4.019531 -18.867188 5.460938 -20.242188 7.296875 -21.234375 C 9.128906 -22.222656 11.1875 -22.71875 13.46875 -22.71875 C 15.75 -22.71875 17.804688 -22.222656 19.640625 -21.234375 C 21.484375 -20.242188 22.925781 -18.875 23.96875 -17.125 C 25.007812 -15.375 25.53125 -13.398438 25.53125 -11.203125 C 25.53125 -9.003906 25.007812 -7.03125 23.96875 -5.28125 C 22.925781 -3.53125 21.484375 -2.160156 19.640625 -1.171875 C 17.804688 -0.179688 15.75 0.3125 13.46875 0.3125 Z M 13.46875 -3.328125 C 14.96875 -3.328125 16.3125 -3.660156 17.5 -4.328125 C 18.695312 -5.003906 19.632812 -5.941406 20.3125 -7.140625 C 21 -8.347656 21.34375 -9.703125 21.34375 -11.203125 C 21.34375 -12.691406 21 -14.039062 20.3125 -15.25 C 19.632812 -16.457031 18.695312 -17.394531 17.5 -18.0625 C 16.3125 -18.738281 14.96875 -19.078125 13.46875 -19.078125 C 11.976562 -19.078125 10.632812 -18.738281 9.4375 -18.0625 C 8.238281 -17.394531 7.296875 -16.457031 6.609375 -15.25 C 5.929688 -14.039062 5.59375 -12.691406 5.59375 -11.203125 C 5.59375 -9.703125 5.929688 -8.347656 6.609375 -7.140625 C 7.296875 -5.941406 8.238281 -5.003906 9.4375 -4.328125 C 10.632812 -3.660156 11.976562 -3.328125 13.46875 -3.328125 Z M 13.46875 -3.328125 "></path></g></g></g><g fill="#000000" fill-opacity="1"><g transform="translate(225.551248, 285.870802)"><g><path d="M 17.65625 0 L 13.09375 -6.5625 C 12.894531 -6.539062 12.601562 -6.53125 12.21875 -6.53125 L 7.171875 -6.53125 L 7.171875 0 L 3.015625 0 L 3.015625 -22.40625 L 12.21875 -22.40625 C 14.164062 -22.40625 15.859375 -22.082031 17.296875 -21.4375 C 18.734375 -20.800781 19.835938 -19.882812 20.609375 -18.6875 C 21.378906 -17.488281 21.765625 -16.070312 21.765625 -14.4375 C 21.765625 -12.75 21.351562 -11.296875 20.53125 -10.078125 C 19.707031 -8.859375 18.523438 -7.953125 16.984375 -7.359375 L 22.140625 0 Z M 17.5625 -14.4375 C 17.5625 -15.863281 17.09375 -16.957031 16.15625 -17.71875 C 15.21875 -18.488281 13.84375 -18.875 12.03125 -18.875 L 7.171875 -18.875 L 7.171875 -9.953125 L 12.03125 -9.953125 C 13.84375 -9.953125 15.21875 -10.335938 16.15625 -11.109375 C 17.09375 -11.890625 17.5625 -13 17.5625 -14.4375 Z M 17.5625 -14.4375 "></path></g></g></g><g fill="#000000" fill-opacity="1"><g transform="translate(248.9375, 285.870802)"><g><path d="M 7.546875 -18.875 L 0.125 -18.875 L 0.125 -22.40625 L 19.140625 -22.40625 L 19.140625 -18.875 L 11.71875 -18.875 L 11.71875 0 L 7.546875 0 Z M 7.546875 -18.875 "></path></g></g></g><g clip-path="url(#eed96a9d07)"><path fill="#000000" d="M 249.820312 159.398438 C 242.773438 152.339844 233.042969 147.953125 222.347656 147.953125 L 208.894531 147.953125 C 208.898438 147.773438 208.910156 147.597656 208.910156 147.417969 L 208.910156 140.949219 C 209.492188 140.441406 210.058594 139.914062 210.605469 139.363281 C 212.265625 137.699219 213.753906 135.851562 215.039062 133.863281 C 221.769531 133.089844 227.03125 130.738281 228.375 124.46875 C 230.515625 124.046875 232.425781 122.988281 233.914062 121.5 C 235.867188 119.542969 237.082031 116.835938 237.082031 113.867188 L 237.082031 101.882812 C 237.082031 98.90625 235.867188 96.207031 233.914062 94.246094 L 233.761719 94.105469 C 232.472656 92.863281 230.878906 91.941406 229.113281 91.453125 C 229.117188 91.410156 229.121094 91.367188 229.121094 91.324219 C 229.121094 80.734375 224.523438 71.117188 217.113281 64.152344 C 209.738281 57.21875 199.582031 52.917969 188.421875 52.917969 L 186.320312 52.917969 C 175.164062 52.917969 165.007812 57.21875 157.636719 64.152344 C 150.226562 71.117188 145.628906 80.734375 145.628906 91.324219 C 145.628906 91.367188 145.632812 91.410156 145.636719 91.453125 C 143.808594 91.957031 142.164062 92.929688 140.847656 94.242188 L 140.835938 94.253906 C 138.882812 96.21875 137.667969 98.917969 137.667969 101.882812 L 137.667969 113.867188 C 137.667969 116.761719 138.824219 119.398438 140.695312 121.347656 L 140.835938 121.5 C 142.792969 123.460938 145.488281 124.675781 148.457031 124.675781 C 150.953125 124.675781 153.253906 123.816406 155.085938 122.378906 C 156.367188 128.933594 159.59375 134.8125 164.140625 139.367188 C 164.996094 140.222656 165.890625 141.027344 166.832031 141.785156 L 166.832031 147.425781 C 166.832031 147.605469 166.839844 147.78125 166.847656 147.960938 L 152.398438 147.960938 C 141.699219 147.960938 131.972656 152.34375 124.925781 159.40625 C 117.875 166.460938 113.496094 176.210938 113.496094 186.929688 L 113.496094 190.699219 C 113.496094 192.015625 114.5625 193.085938 115.878906 193.085938 L 258.863281 193.085938 C 260.179688 193.085938 261.246094 192.015625 261.246094 190.699219 L 261.246094 186.929688 C 261.246094 176.210938 256.867188 166.460938 249.820312 159.398438 Z M 217.855469 128.417969 C 218.636719 126.488281 219.25 124.460938 219.65625 122.371094 C 220.75 123.234375 222.023438 123.890625 223.398438 124.273438 C 222.496094 126.378906 220.511719 127.660156 217.855469 128.417969 Z M 230.535156 97.621094 C 231.628906 98.714844 232.308594 100.222656 232.308594 101.878906 L 232.308594 113.863281 C 232.308594 115.519531 231.628906 117.03125 230.535156 118.121094 C 229.441406 119.21875 227.9375 119.898438 226.28125 119.898438 C 224.625 119.898438 223.117188 119.21875 222.03125 118.121094 L 222.019531 118.121094 C 220.933594 117.035156 220.257812 115.523438 220.257812 113.863281 L 220.257812 101.878906 C 220.257812 100.214844 220.933594 98.707031 222.019531 97.621094 L 222.03125 97.609375 C 223.117188 96.519531 224.621094 95.84375 226.285156 95.84375 C 227.890625 95.84375 229.359375 96.476562 230.433594 97.503906 Z M 160.890625 67.621094 C 167.40625 61.492188 176.402344 57.691406 186.316406 57.691406 L 188.421875 57.691406 C 198.332031 57.691406 207.332031 61.492188 213.847656 67.621094 C 220.308594 73.695312 224.328125 82.058594 224.34375 91.25 C 222.792969 91.535156 221.355469 92.15625 220.109375 93.039062 C 219.371094 85.203125 215.867188 78.144531 210.597656 72.863281 C 204.640625 66.894531 196.414062 63.183594 187.367188 63.183594 C 178.320312 63.183594 170.09375 66.894531 164.136719 72.863281 C 158.867188 78.144531 155.363281 85.203125 154.625 93.039062 C 153.378906 92.15625 151.941406 91.535156 150.390625 91.25 C 150.414062 82.058594 154.429688 73.695312 160.890625 67.621094 Z M 215.277344 92.710938 C 209.664062 92.6875 204.269531 91.96875 199.109375 90.554688 C 193.199219 88.933594 187.558594 86.386719 182.195312 82.917969 C 181.277344 82.324219 180.03125 82.433594 179.230469 83.242188 C 176.855469 85.628906 173.808594 87.613281 170.085938 89.203125 C 167.019531 90.507812 163.492188 91.539062 159.519531 92.300781 C 160.378906 86.078125 163.273438 80.484375 167.511719 76.238281 C 172.609375 71.128906 179.644531 67.957031 187.375 67.957031 C 195.105469 67.957031 202.136719 71.128906 207.234375 76.238281 C 211.566406 80.578125 214.496094 86.328125 215.277344 92.710938 Z M 148.457031 119.898438 C 146.800781 119.898438 145.296875 119.21875 144.207031 118.121094 L 144.09375 118.019531 C 143.066406 116.9375 142.4375 115.472656 142.4375 113.863281 L 142.4375 101.878906 C 142.4375 100.214844 143.113281 98.707031 144.199219 97.621094 L 144.210938 97.609375 C 145.296875 96.519531 146.800781 95.84375 148.464844 95.84375 C 150.125 95.84375 151.628906 96.519531 152.714844 97.609375 L 152.714844 97.621094 C 153.808594 98.714844 154.488281 100.222656 154.488281 101.878906 L 154.488281 113.863281 C 154.488281 115.519531 153.808594 117.03125 152.714844 118.121094 C 151.621094 119.21875 150.113281 119.898438 148.457031 119.898438 Z M 159.246094 116.085938 L 159.246094 97.203125 C 164.023438 96.359375 168.257812 95.160156 171.9375 93.585938 C 175.542969 92.050781 178.628906 90.152344 181.195312 87.910156 C 186.480469 91.132812 192.035156 93.542969 197.859375 95.140625 C 203.503906 96.6875 209.382812 97.464844 215.496094 97.46875 L 215.496094 116.082031 C 215.496094 120.855469 214.292969 125.355469 212.183594 129.304688 C 208.519531 129.546875 204.367188 129.394531 200.277344 129.242188 L 199.441406 129.210938 C 199.070312 127.984375 198.410156 126.886719 197.546875 126 C 196.148438 124.5625 194.210938 123.671875 192.085938 123.671875 C 189.957031 123.671875 188.019531 124.558594 186.621094 126 C 185.238281 127.417969 184.382812 129.371094 184.382812 131.519531 C 184.382812 133.671875 185.238281 135.625 186.621094 137.042969 C 188.019531 138.480469 189.957031 139.371094 192.085938 139.371094 C 194.210938 139.371094 196.148438 138.484375 197.546875 137.042969 C 198.378906 136.1875 199.015625 135.140625 199.394531 133.976562 L 200.109375 134 C 203.050781 134.113281 206.015625 134.222656 208.867188 134.199219 C 208.347656 134.820312 207.804688 135.417969 207.234375 135.992188 C 202.136719 141.101562 195.105469 144.273438 187.375 144.273438 C 182.679688 144.273438 178.246094 143.097656 174.347656 141.039062 C 173.054688 140.335938 171.824219 139.527344 170.671875 138.632812 C 170.515625 138.511719 170.351562 138.417969 170.179688 138.339844 C 169.246094 137.609375 168.351562 136.828125 167.511719 135.992188 C 162.414062 130.878906 159.246094 123.832031 159.246094 116.085938 Z M 195.015625 131.519531 C 195.015625 132.386719 194.679688 133.167969 194.136719 133.722656 C 193.613281 134.265625 192.882812 134.597656 192.078125 134.597656 C 191.273438 134.597656 190.539062 134.265625 190.015625 133.722656 C 189.472656 133.167969 189.136719 132.386719 189.136719 131.519531 C 189.136719 130.65625 189.472656 129.875 190.015625 129.320312 C 190.539062 128.777344 191.273438 128.445312 192.078125 128.445312 C 192.882812 128.445312 193.613281 128.777344 194.136719 129.320312 C 194.679688 129.875 195.015625 130.65625 195.015625 131.519531 Z M 173.898438 146.132812 C 174.867188 146.582031 175.859375 146.988281 176.875 147.335938 C 179.902344 148.382812 183.136719 148.964844 186.492188 149.027344 C 186.523438 149.027344 186.558594 149.027344 186.589844 149.03125 C 186.75 149.035156 186.90625 149.042969 187.0625 149.042969 L 188.667969 149.042969 C 192.226562 149.042969 195.65625 148.445312 198.863281 147.339844 C 200.699219 146.707031 202.464844 145.90625 204.136719 144.953125 L 204.136719 147.417969 C 204.136719 151.765625 202.359375 155.714844 199.5 158.578125 C 196.640625 161.445312 192.699219 163.222656 188.363281 163.222656 L 187.371094 163.222656 C 183.035156 163.222656 179.09375 161.445312 176.234375 158.578125 C 173.375 155.714844 171.597656 151.761719 171.597656 147.417969 L 171.597656 144.980469 C 172.347656 145.390625 173.117188 145.777344 173.898438 146.132812 Z M 118.261719 186.929688 C 118.261719 177.527344 122.101562 168.976562 128.289062 162.773438 C 134.476562 156.574219 143.011719 152.722656 152.398438 152.722656 L 167.535156 152.722656 C 168.484375 156.261719 170.351562 159.429688 172.867188 161.949219 C 176.054688 165.144531 180.285156 167.300781 184.988281 167.851562 L 184.988281 188.308594 L 118.261719 188.308594 Z M 256.480469 188.3125 L 189.753906 188.3125 L 189.753906 167.945312 C 194.855469 167.601562 199.460938 165.378906 202.875 161.953125 C 205.390625 159.433594 207.253906 156.261719 208.203125 152.726562 L 222.34375 152.726562 C 231.730469 152.726562 240.261719 156.574219 246.449219 162.777344 C 252.636719 168.976562 256.476562 177.53125 256.476562 186.933594 L 256.476562 188.3125 Z M 256.480469 188.3125 " fill-opacity="1" fill-rule="nonzero"></path></g><g fill="#000000" fill-opacity="1"><g transform="translate(92.19531, 318.67076)"><g><path d="M 4.828125 0 L 2.703125 0 L 2.703125 -10.703125 L 0.234375 -10.703125 L 0.234375 -12.59375 L 4.828125 -12.59375 Z M 4.828125 0 "></path></g></g></g><g fill="#000000" fill-opacity="1"><g transform="translate(99.161294, 318.67076)"><g><path d="M 6.234375 -12.65625 C 7.941406 -12.65625 9.257812 -12.101562 10.1875 -11 C 11.113281 -9.90625 11.578125 -8.335938 11.578125 -6.296875 C 11.578125 -4.253906 11.113281 -2.6875 10.1875 -1.59375 C 9.257812 -0.5 7.941406 0.046875 6.234375 0.046875 C 4.503906 0.046875 3.175781 -0.5 2.25 -1.59375 C 1.320312 -2.6875 0.859375 -4.253906 0.859375 -6.296875 C 0.859375 -8.335938 1.320312 -9.90625 2.25 -11 C 3.175781 -12.101562 4.503906 -12.65625 6.234375 -12.65625 Z M 6.234375 -10.984375 C 4.109375 -10.984375 3.046875 -9.421875 3.046875 -6.296875 C 3.046875 -3.179688 4.109375 -1.625 6.234375 -1.625 C 8.335938 -1.625 9.390625 -3.179688 9.390625 -6.296875 C 9.390625 -9.421875 8.335938 -10.984375 6.234375 -10.984375 Z M 6.234375 -10.984375 "></path></g></g></g><g fill="#000000" fill-opacity="1"><g transform="translate(111.599258, 318.67076)"><g><path d="M 7.265625 0 L 7.265625 -1.171875 C 6.585938 -0.328125 5.535156 0.09375 4.109375 0.09375 C 3.085938 0.09375 2.269531 -0.179688 1.65625 -0.734375 C 1.039062 -1.296875 0.734375 -2.007812 0.734375 -2.875 C 0.734375 -3.75 1.050781 -4.441406 1.6875 -4.953125 C 2.320312 -5.472656 3.210938 -5.742188 4.359375 -5.765625 L 7.25 -5.765625 L 7.25 -6.046875 C 7.25 -6.660156 7.050781 -7.132812 6.65625 -7.46875 C 6.269531 -7.800781 5.707031 -7.96875 4.96875 -7.96875 C 4.039062 -7.96875 3.097656 -7.644531 2.140625 -7 L 1.296875 -8.4375 C 2.023438 -8.875 2.679688 -9.179688 3.265625 -9.359375 C 3.847656 -9.546875 4.566406 -9.640625 5.421875 -9.640625 C 6.640625 -9.640625 7.582031 -9.34375 8.25 -8.75 C 8.925781 -8.15625 9.269531 -7.332031 9.28125 -6.28125 L 9.3125 0 Z M 4.53125 -1.546875 C 5.269531 -1.546875 5.890625 -1.71875 6.390625 -2.0625 C 6.898438 -2.40625 7.1875 -2.835938 7.25 -3.359375 L 7.25 -4.25 L 4.65625 -4.25 C 3.976562 -4.25 3.476562 -4.148438 3.15625 -3.953125 C 2.84375 -3.753906 2.6875 -3.425781 2.6875 -2.96875 C 2.6875 -2.539062 2.847656 -2.195312 3.171875 -1.9375 C 3.503906 -1.675781 3.957031 -1.546875 4.53125 -1.546875 Z M 4.53125 -1.546875 "></path></g></g></g><g fill="#000000" fill-opacity="1"><g transform="translate(122.147231, 318.67076)"><g><path d="M 14.015625 -9.640625 C 15.109375 -9.640625 15.96875 -9.3125 16.59375 -8.65625 C 17.21875 -8 17.53125 -7.097656 17.53125 -5.953125 L 17.53125 0 L 15.46875 0 L 15.46875 -5.375 C 15.46875 -6.113281 15.265625 -6.6875 14.859375 -7.09375 C 14.453125 -7.507812 13.894531 -7.71875 13.1875 -7.71875 C 12.382812 -7.695312 11.742188 -7.40625 11.265625 -6.84375 C 10.796875 -6.289062 10.5625 -5.585938 10.5625 -4.734375 L 10.5625 0 L 8.5 0 L 8.5 -5.375 C 8.5 -6.113281 8.296875 -6.6875 7.890625 -7.09375 C 7.492188 -7.507812 6.945312 -7.71875 6.25 -7.71875 C 5.425781 -7.695312 4.773438 -7.40625 4.296875 -6.84375 C 3.816406 -6.289062 3.578125 -5.585938 3.578125 -4.734375 L 3.578125 0 L 1.53125 0 L 1.53125 -9.578125 L 3.578125 -9.578125 L 3.578125 -7.71875 C 4.210938 -9 5.375 -9.640625 7.0625 -9.640625 C 7.90625 -9.640625 8.613281 -9.4375 9.1875 -9.03125 C 9.757812 -8.632812 10.160156 -8.070312 10.390625 -7.34375 C 10.972656 -8.875 12.179688 -9.640625 14.015625 -9.640625 Z M 14.015625 -9.640625 "></path></g></g></g><g fill="#000000" fill-opacity="1"><g transform="translate(140.921171, 318.67076)"><g></g></g></g><g fill="#000000" fill-opacity="1"><g transform="translate(145.56516, 318.67076)"><g><path d="M 7.296875 -4.046875 L 0 -4.046875 L 0 -5.46875 L 7.296875 -5.46875 Z M 7.296875 -4.046875 "></path></g></g></g><g fill="#000000" fill-opacity="1"><g transform="translate(152.855137, 318.67076)"><g></g></g></g><g fill="#000000" fill-opacity="1"><g transform="translate(157.499127, 318.67076)"><g><path d="M 9.828125 -10.984375 L 4.8125 0 L 2.5625 0 L 7.453125 -10.6875 L 2.5625 -10.6875 L 2.53125 -8.921875 L 0.671875 -8.921875 L 0.671875 -12.59375 L 9.828125 -12.59375 Z M 9.828125 -10.984375 "></path></g></g></g><g fill="#000000" fill-opacity="1"><g transform="translate(167.759098, 318.67076)"><g><path d="M 7.03125 -9.640625 C 8.394531 -9.640625 9.5 -9.1875 10.34375 -8.28125 C 11.1875 -7.382812 11.609375 -6.207031 11.609375 -4.75 C 11.609375 -3.3125 11.191406 -2.144531 10.359375 -1.25 C 9.535156 -0.363281 8.441406 0.078125 7.078125 0.078125 C 5.535156 0.078125 4.40625 -0.5 3.6875 -1.65625 L 3.6875 3.484375 L 1.625 3.484375 L 1.625 -9.578125 L 3.6875 -9.578125 L 3.6875 -7.921875 C 4.40625 -9.066406 5.519531 -9.640625 7.03125 -9.640625 Z M 4.5 -2.5625 C 5.050781 -1.976562 5.753906 -1.6875 6.609375 -1.6875 C 7.460938 -1.6875 8.160156 -1.976562 8.703125 -2.5625 C 9.242188 -3.144531 9.515625 -3.898438 9.515625 -4.828125 C 9.515625 -5.722656 9.242188 -6.460938 8.703125 -7.046875 C 8.160156 -7.628906 7.460938 -7.921875 6.609375 -7.921875 C 5.753906 -7.921875 5.050781 -7.628906 4.5 -7.046875 C 3.957031 -6.460938 3.6875 -5.722656 3.6875 -4.828125 C 3.6875 -3.898438 3.957031 -3.144531 4.5 -2.5625 Z M 4.5 -2.5625 "></path></g></g></g><g fill="#000000" fill-opacity="1"><g transform="translate(179.999057, 318.67076)"><g><path d="M 14.015625 -9.640625 C 15.109375 -9.640625 15.96875 -9.3125 16.59375 -8.65625 C 17.21875 -8 17.53125 -7.097656 17.53125 -5.953125 L 17.53125 0 L 15.46875 0 L 15.46875 -5.375 C 15.46875 -6.113281 15.265625 -6.6875 14.859375 -7.09375 C 14.453125 -7.507812 13.894531 -7.71875 13.1875 -7.71875 C 12.382812 -7.695312 11.742188 -7.40625 11.265625 -6.84375 C 10.796875 -6.289062 10.5625 -5.585938 10.5625 -4.734375 L 10.5625 0 L 8.5 0 L 8.5 -5.375 C 8.5 -6.113281 8.296875 -6.6875 7.890625 -7.09375 C 7.492188 -7.507812 6.945312 -7.71875 6.25 -7.71875 C 5.425781 -7.695312 4.773438 -7.40625 4.296875 -6.84375 C 3.816406 -6.289062 3.578125 -5.585938 3.578125 -4.734375 L 3.578125 0 L 1.53125 0 L 1.53125 -9.578125 L 3.578125 -9.578125 L 3.578125 -7.71875 C 4.210938 -9 5.375 -9.640625 7.0625 -9.640625 C 7.90625 -9.640625 8.613281 -9.4375 9.1875 -9.03125 C 9.757812 -8.632812 10.160156 -8.070312 10.390625 -7.34375 C 10.972656 -8.875 12.179688 -9.640625 14.015625 -9.640625 Z M 14.015625 -9.640625 "></path></g></g></g><g fill="#000000" fill-opacity="1"><g transform="translate(198.772996, 318.67076)"><g><path d="M 1.96875 -2.171875 C 2.257812 -2.171875 2.515625 -2.066406 2.734375 -1.859375 C 2.953125 -1.648438 3.0625 -1.375 3.0625 -1.03125 C 3.0625 -0.707031 2.953125 -0.390625 2.734375 -0.078125 L 1.703125 1.46875 L 0.640625 1.46875 L 1.328125 -0.09375 C 1.003906 -0.300781 0.84375 -0.613281 0.84375 -1.03125 C 0.84375 -1.363281 0.945312 -1.632812 1.15625 -1.84375 C 1.363281 -2.0625 1.632812 -2.171875 1.96875 -2.171875 Z M 1.96875 -2.171875 "></path></g></g></g><g fill="#000000" fill-opacity="1"><g transform="translate(202.624986, 318.67076)"><g></g></g></g><g fill="#000000" fill-opacity="1"><g transform="translate(207.268975, 318.67076)"><g><path d="M 14.96875 0 L 13.015625 0 L 13 -9.40625 L 9.015625 -1.3125 L 7.625 -1.3125 L 3.65625 -9.40625 L 3.65625 0 L 1.65625 0 L 1.65625 -12.59375 L 4.171875 -12.59375 L 8.328125 -4.234375 L 12.46875 -12.59375 L 14.96875 -12.59375 Z M 14.96875 0 "></path></g></g></g><g fill="#000000" fill-opacity="1"><g transform="translate(223.918926, 318.67076)"><g><path d="M 5.640625 -9.640625 C 7.109375 -9.640625 8.304688 -9.191406 9.234375 -8.296875 C 10.160156 -7.410156 10.625 -6.238281 10.625 -4.78125 C 10.625 -3.34375 10.160156 -2.171875 9.234375 -1.265625 C 8.304688 -0.367188 7.109375 0.078125 5.640625 0.078125 C 4.148438 0.078125 2.941406 -0.367188 2.015625 -1.265625 C 1.085938 -2.171875 0.625 -3.34375 0.625 -4.78125 C 0.625 -6.238281 1.085938 -7.410156 2.015625 -8.296875 C 2.941406 -9.191406 4.148438 -9.640625 5.640625 -9.640625 Z M 5.640625 -7.859375 C 4.773438 -7.859375 4.066406 -7.570312 3.515625 -7 C 2.972656 -6.425781 2.703125 -5.679688 2.703125 -4.765625 C 2.703125 -3.847656 2.972656 -3.097656 3.515625 -2.515625 C 4.066406 -1.941406 4.773438 -1.65625 5.640625 -1.65625 C 6.503906 -1.65625 7.203125 -1.941406 7.734375 -2.515625 C 8.273438 -3.097656 8.546875 -3.847656 8.546875 -4.765625 C 8.546875 -5.679688 8.269531 -6.425781 7.71875 -7 C 7.175781 -7.570312 6.484375 -7.859375 5.640625 -7.859375 Z M 5.640625 -7.859375 "></path></g></g></g><g fill="#000000" fill-opacity="1"><g transform="translate(235.168891, 318.67076)"><g><path d="M 7.125 -9.640625 C 8.238281 -9.640625 9.109375 -9.3125 9.734375 -8.65625 C 10.367188 -8.007812 10.6875 -7.109375 10.6875 -5.953125 L 10.6875 0 L 8.625 0 L 8.625 -5.375 C 8.625 -6.101562 8.414062 -6.671875 8 -7.078125 C 7.59375 -7.492188 7.03125 -7.703125 6.3125 -7.703125 C 5.550781 -7.691406 4.925781 -7.445312 4.4375 -6.96875 C 3.945312 -6.488281 3.664062 -5.863281 3.59375 -5.09375 L 3.59375 0 L 1.53125 0 L 1.53125 -9.578125 L 3.59375 -9.578125 L 3.59375 -7.734375 C 4.25 -9.003906 5.425781 -9.640625 7.125 -9.640625 Z M 7.125 -9.640625 "></path></g></g></g><g fill="#000000" fill-opacity="1"><g transform="translate(247.102857, 318.67076)"><g><path d="M 5.53125 -4.765625 L 1.09375 -4.765625 L 1.09375 -6.1875 L 5.53125 -6.1875 Z M 5.53125 -4.765625 "></path></g></g></g><g fill="#000000" fill-opacity="1"><g transform="translate(253.726835, 318.67076)"><g><path d="M 5.796875 -12.6875 C 7.429688 -12.6875 8.898438 -12.253906 10.203125 -11.390625 L 9.328125 -9.515625 C 8.035156 -10.296875 6.804688 -10.6875 5.640625 -10.6875 C 5.003906 -10.6875 4.5 -10.570312 4.125 -10.34375 C 3.757812 -10.125 3.578125 -9.800781 3.578125 -9.375 C 3.578125 -8.957031 3.742188 -8.597656 4.078125 -8.296875 C 4.421875 -8.003906 4.84375 -7.789062 5.34375 -7.65625 C 5.851562 -7.519531 6.398438 -7.347656 6.984375 -7.140625 C 7.566406 -6.929688 8.109375 -6.707031 8.609375 -6.46875 C 9.117188 -6.238281 9.539062 -5.875 9.875 -5.375 C 10.207031 -4.875 10.375 -4.269531 10.375 -3.5625 C 10.375 -2.457031 9.929688 -1.570312 9.046875 -0.90625 C 8.160156 -0.25 7.015625 0.078125 5.609375 0.078125 C 4.648438 0.078125 3.71875 -0.101562 2.8125 -0.46875 C 1.914062 -0.832031 1.132812 -1.316406 0.46875 -1.921875 L 1.390625 -3.765625 C 2.023438 -3.171875 2.722656 -2.710938 3.484375 -2.390625 C 4.242188 -2.078125 4.96875 -1.921875 5.65625 -1.921875 C 6.394531 -1.921875 6.972656 -2.054688 7.390625 -2.328125 C 7.804688 -2.597656 8.015625 -2.972656 8.015625 -3.453125 C 8.015625 -3.890625 7.84375 -4.253906 7.5 -4.546875 C 7.164062 -4.835938 6.742188 -5.050781 6.234375 -5.1875 C 5.734375 -5.332031 5.1875 -5.503906 4.59375 -5.703125 C 4.007812 -5.898438 3.46875 -6.109375 2.96875 -6.328125 C 2.46875 -6.546875 2.046875 -6.898438 1.703125 -7.390625 C 1.367188 -7.890625 1.203125 -8.488281 1.203125 -9.1875 C 1.203125 -10.25 1.617188 -11.097656 2.453125 -11.734375 C 3.296875 -12.367188 4.410156 -12.6875 5.796875 -12.6875 Z M 5.796875 -12.6875 "></path></g></g></g><g fill="#000000" fill-opacity="1"><g transform="translate(264.922806, 318.67076)"><g><path d="M 7.265625 0 L 7.265625 -1.171875 C 6.585938 -0.328125 5.535156 0.09375 4.109375 0.09375 C 3.085938 0.09375 2.269531 -0.179688 1.65625 -0.734375 C 1.039062 -1.296875 0.734375 -2.007812 0.734375 -2.875 C 0.734375 -3.75 1.050781 -4.441406 1.6875 -4.953125 C 2.320312 -5.472656 3.210938 -5.742188 4.359375 -5.765625 L 7.25 -5.765625 L 7.25 -6.046875 C 7.25 -6.660156 7.050781 -7.132812 6.65625 -7.46875 C 6.269531 -7.800781 5.707031 -7.96875 4.96875 -7.96875 C 4.039062 -7.96875 3.097656 -7.644531 2.140625 -7 L 1.296875 -8.4375 C 2.023438 -8.875 2.679688 -9.179688 3.265625 -9.359375 C 3.847656 -9.546875 4.566406 -9.640625 5.421875 -9.640625 C 6.640625 -9.640625 7.582031 -9.34375 8.25 -8.75 C 8.925781 -8.15625 9.269531 -7.332031 9.28125 -6.28125 L 9.3125 0 Z M 4.53125 -1.546875 C 5.269531 -1.546875 5.890625 -1.71875 6.390625 -2.0625 C 6.898438 -2.40625 7.1875 -2.835938 7.25 -3.359375 L 7.25 -4.25 L 4.65625 -4.25 C 3.976562 -4.25 3.476562 -4.148438 3.15625 -3.953125 C 2.84375 -3.753906 2.6875 -3.425781 2.6875 -2.96875 C 2.6875 -2.539062 2.847656 -2.195312 3.171875 -1.9375 C 3.503906 -1.675781 3.957031 -1.546875 4.53125 -1.546875 Z M 4.53125 -1.546875 "></path></g></g></g><g fill="#000000" fill-opacity="1"><g transform="translate(275.470779, 318.67076)"><g><path d="M 6.421875 -2.203125 L 6.953125 -0.609375 C 6.160156 -0.140625 5.375 0.09375 4.59375 0.09375 C 3.8125 0.09375 3.164062 -0.140625 2.65625 -0.609375 C 2.15625 -1.078125 1.90625 -1.773438 1.90625 -2.703125 L 1.90625 -7.671875 L 0.5625 -7.671875 L 0.5625 -9.21875 L 1.90625 -9.21875 L 1.90625 -11.84375 L 3.953125 -11.84375 L 3.953125 -9.21875 L 6.78125 -9.21875 L 6.78125 -7.671875 L 3.953125 -7.671875 L 3.953125 -3.078125 C 3.953125 -2.597656 4.035156 -2.257812 4.203125 -2.0625 C 4.378906 -1.875 4.640625 -1.78125 4.984375 -1.78125 C 5.367188 -1.78125 5.847656 -1.921875 6.421875 -2.203125 Z M 6.421875 -2.203125 "></path></g></g></g></svg>