<svg xmlns="http://www.w3.org/2000/svg" xmlns:xlink="http://www.w3.org/1999/xlink" width="500" viewBox="0 0 375 374.999991" height="500" preserveAspectRatio="xMidYMid meet"><defs><g></g><clipPath id="86b39d9810"><path d="M 187.5 0 C 83.945312 0 0 83.945312 0 187.5 C 0 291.054688 83.945312 375 187.5 375 C 291.054688 375 375 291.054688 375 187.5 C 375 83.945312 291.054688 0 187.5 0 " clip-rule="nonzero"></path></clipPath><clipPath id="645b0c00ea"><path d="M 145 80 L 270 80 L 270 199 L 145 199 Z M 145 80 " clip-rule="nonzero"></path></clipPath><clipPath id="caf1102ed7"><path d="M 128.28125 66.070312 L 281.203125 100.5 L 247.105469 251.957031 L 94.183594 217.53125 Z M 128.28125 66.070312 " clip-rule="nonzero"></path></clipPath><clipPath id="6306d91040"><path d="M 128.28125 66.070312 L 281.203125 100.5 L 247.105469 251.957031 L 94.183594 217.53125 Z M 128.28125 66.070312 " clip-rule="nonzero"></path></clipPath><clipPath id="14d9e47d70"><path d="M 128.28125 66.070312 L 281.203125 100.5 L 247.105469 251.957031 L 94.183594 217.53125 Z M 128.28125 66.070312 " clip-rule="nonzero"></path></clipPath><clipPath id="5d8ef32c67"><path d="M 116 81 L 195 81 L 195 224 L 116 224 Z M 116 81 " clip-rule="nonzero"></path></clipPath><clipPath id="018683efc7"><path d="M 128.28125 66.070312 L 281.203125 100.5 L 247.105469 251.957031 L 94.183594 217.53125 Z M 128.28125 66.070312 " clip-rule="nonzero"></path></clipPath><clipPath id="c139540a2c"><path d="M 128.28125 66.070312 L 281.203125 100.5 L 247.105469 251.957031 L 94.183594 217.53125 Z M 128.28125 66.070312 " clip-rule="nonzero"></path></clipPath><clipPath id="e943194b6d"><path d="M 128.28125 66.070312 L 281.203125 100.5 L 247.105469 251.957031 L 94.183594 217.53125 Z M 128.28125 66.070312 " clip-rule="nonzero"></path></clipPath><clipPath id="5e2bc40af7"><path d="M 134 168 L 171 168 L 171 194 L 134 194 Z M 134 168 " clip-rule="nonzero"></path></clipPath><clipPath id="1192f002b0"><path d="M 128.28125 66.070312 L 281.203125 100.5 L 247.105469 251.957031 L 94.183594 217.53125 Z M 128.28125 66.070312 " clip-rule="nonzero"></path></clipPath><clipPath id="28d32d55de"><path d="M 128.28125 66.070312 L 281.203125 100.5 L 247.105469 251.957031 L 94.183594 217.53125 Z M 128.28125 66.070312 " clip-rule="nonzero"></path></clipPath><clipPath id="77a29f7a10"><path d="M 128.28125 66.070312 L 281.203125 100.5 L 247.105469 251.957031 L 94.183594 217.53125 Z M 128.28125 66.070312 " clip-rule="nonzero"></path></clipPath><clipPath id="de9274d557"><path d="M 134 160 L 153 160 L 153 178 L 134 178 Z M 134 160 " clip-rule="nonzero"></path></clipPath><clipPath id="01f16626ca"><path d="M 128.28125 66.070312 L 281.203125 100.5 L 247.105469 251.957031 L 94.183594 217.53125 Z M 128.28125 66.070312 " clip-rule="nonzero"></path></clipPath><clipPath id="3a502a18b6"><path d="M 128.28125 66.070312 L 281.203125 100.5 L 247.105469 251.957031 L 94.183594 217.53125 Z M 128.28125 66.070312 " clip-rule="nonzero"></path></clipPath><clipPath id="8033e58162"><path d="M 128.28125 66.070312 L 281.203125 100.5 L 247.105469 251.957031 L 94.183594 217.53125 Z M 128.28125 66.070312 " clip-rule="nonzero"></path></clipPath><clipPath id="3bdf892ddb"><path d="M 151 184 L 170 184 L 170 202 L 151 202 Z M 151 184 " clip-rule="nonzero"></path></clipPath><clipPath id="1b08e99e3f"><path d="M 128.28125 66.070312 L 281.203125 100.5 L 247.105469 251.957031 L 94.183594 217.53125 Z M 128.28125 66.070312 " clip-rule="nonzero"></path></clipPath><clipPath id="ae37135e93"><path d="M 128.28125 66.070312 L 281.203125 100.5 L 247.105469 251.957031 L 94.183594 217.53125 Z M 128.28125 66.070312 " clip-rule="nonzero"></path></clipPath><clipPath id="8acfd239c8"><path d="M 128.28125 66.070312 L 281.203125 100.5 L 247.105469 251.957031 L 94.183594 217.53125 Z M 128.28125 66.070312 " clip-rule="nonzero"></path></clipPath><clipPath id="583c5dae3e"><path d="M 157 90 L 189 90 L 189 122 L 157 122 Z M 157 90 " clip-rule="nonzero"></path></clipPath><clipPath id="720335d4e7"><path d="M 128.28125 66.070312 L 281.203125 100.5 L 247.105469 251.957031 L 94.183594 217.53125 Z M 128.28125 66.070312 " clip-rule="nonzero"></path></clipPath><clipPath id="0e59bb024b"><path d="M 128.28125 66.070312 L 281.203125 100.5 L 247.105469 251.957031 L 94.183594 217.53125 Z M 128.28125 66.070312 " clip-rule="nonzero"></path></clipPath><clipPath id="96c22f5f3e"><path d="M 128.28125 66.070312 L 281.203125 100.5 L 247.105469 251.957031 L 94.183594 217.53125 Z M 128.28125 66.070312 " clip-rule="nonzero"></path></clipPath><clipPath id="e0cbfb1c18"><path d="M 223.238281 294.496094 L 255.128906 294.496094 L 255.128906 298.019531 L 223.238281 298.019531 Z M 223.238281 294.496094 " clip-rule="nonzero"></path></clipPath><clipPath id="28fafafcab"><path d="M 106.871094 242.519531 L 268.121094 242.519531 L 268.121094 298 L 106.871094 298 Z M 106.871094 242.519531 " clip-rule="nonzero"></path></clipPath></defs><rect x="-37.5" width="450" fill="#ffffff" y="-37.499999" height="449.999989" fill-opacity="1"></rect><path fill="#fefefe" d="M 187.5 0 C 83.945312 0 0 83.945312 0 187.5 C 0 291.054688 83.945312 375 187.5 375 C 291.054688 375 375 291.054688 375 187.5 C 375 83.945312 291.054688 0 187.5 0 " fill-opacity="1" fill-rule="nonzero"></path><g clip-path="url(#86b39d9810)"><path stroke-linecap="butt" transform="matrix(0.75, 0, 0, 0.75, 0.0000045, 0)" fill="none" stroke-linejoin="miter" d="M 249.999994 0 C 111.927078 0 -0.000006 111.927084 -0.000006 250 C -0.000006 388.072917 111.927078 500.000001 249.999994 500.000001 C 388.072911 500.000001 499.999995 388.072917 499.999995 250 C 499.999995 111.927084 388.072911 0 249.999994 0 " stroke="#fcca29" stroke-width="8" stroke-opacity="1" stroke-miterlimit="4"></path></g><g clip-path="url(#645b0c00ea)"><g clip-path="url(#caf1102ed7)"><g clip-path="url(#6306d91040)"><g clip-path="url(#14d9e47d70)"><path fill="#000000" d="M 151.980469 87.03125 L 153.59375 127.78125 L 191.511719 162.679688 L 222.679688 191.292969 L 262.585938 148.203125 L 197.3125 88.167969 Z M 150.566406 129.152344 L 147.546875 129.222656 L 145.792969 84.515625 C 145.714844 84.03125 145.816406 83.585938 145.917969 83.140625 C 146.105469 82.714844 146.382812 82.3125 146.644531 81.996094 C 146.773438 81.835938 146.992188 81.699219 147.121094 81.542969 L 147.210938 81.5625 L 147.121094 81.542969 C 147.449219 81.335938 147.667969 81.195312 147.976562 81.078125 C 148.371094 80.980469 148.769531 80.882812 149.234375 80.894531 L 149.109375 83.953125 L 149.234375 80.894531 L 198.496094 82.074219 C 199.25 82.058594 199.941406 82.308594 200.558594 82.914062 L 268.78125 145.671875 C 268.871094 145.691406 268.851562 145.78125 268.941406 145.800781 C 270.1875 146.921875 270.304688 148.914062 269.179688 150.15625 L 266.929688 148.058594 L 269.089844 150.136719 L 225.316406 197.496094 C 225.207031 197.5625 225.1875 197.652344 225.1875 197.652344 C 223.976562 198.875 222.070312 199.007812 220.820312 197.882812 L 187.421875 167.085938 L 148.714844 131.542969 C 148.082031 131.023438 147.617188 130.171875 147.546875 129.222656 Z M 150.566406 129.152344 " fill-opacity="1" fill-rule="nonzero"></path></g></g></g></g><g clip-path="url(#5d8ef32c67)"><g clip-path="url(#018683efc7)"><g clip-path="url(#c139540a2c)"><g clip-path="url(#e943194b6d)"><path fill="#000000" d="M 151.140625 86.1875 C 152.195312 84.835938 152.058594 82.933594 150.792969 81.902344 C 149.542969 80.777344 147.636719 80.910156 146.515625 82.152344 L 117.6875 115.207031 C 117.167969 115.839844 116.878906 116.710938 116.988281 117.480469 L 121.277344 220.910156 L 124.296875 220.839844 L 121.277344 220.910156 C 121.273438 222.589844 122.75 223.953125 124.367188 223.847656 C 124.457031 223.867188 124.546875 223.890625 124.566406 223.800781 L 191.84375 221.183594 L 191.683594 218.15625 L 191.84375 221.183594 C 193.464844 221.082031 194.804688 219.699219 194.71875 217.996094 C 194.71875 217.996094 194.738281 217.910156 194.738281 217.910156 L 192.539062 164.78125 C 192.453125 163.078125 191.046875 161.828125 189.339844 161.910156 C 187.742188 161.921875 186.378906 163.394531 186.484375 165.007812 L 188.503906 215.195312 L 127.171875 217.65625 L 123.089844 118.292969 Z M 151.140625 86.1875 " fill-opacity="1" fill-rule="nonzero"></path></g></g></g></g><g clip-path="url(#5e2bc40af7)"><g clip-path="url(#1192f002b0)"><g clip-path="url(#28d32d55de)"><g clip-path="url(#77a29f7a10)"><path fill="#000000" d="M 168.621094 174.355469 C 170.042969 173.457031 170.464844 171.589844 169.5625 170.171875 C 168.664062 168.753906 166.789062 168.332031 165.367188 169.226562 L 135.855469 187.824219 C 134.433594 188.71875 134.015625 190.589844 134.914062 192.007812 C 135.8125 193.425781 137.6875 193.847656 139.109375 192.949219 Z M 168.621094 174.355469 " fill-opacity="1" fill-rule="nonzero"></path></g></g></g></g><g clip-path="url(#de9274d557)"><g clip-path="url(#01f16626ca)"><g clip-path="url(#3a502a18b6)"><g clip-path="url(#8033e58162)"><path fill="#000000" d="M 145.597656 160.382812 C 148.007812 160.925781 149.929688 162.386719 151.175781 164.347656 L 148.664062 165.933594 L 151.175781 164.347656 L 151.246094 164.457031 C 152.421875 166.3125 152.925781 168.667969 152.382812 171.070312 C 151.863281 173.386719 150.378906 175.386719 148.433594 176.539062 L 146.839844 174.03125 L 148.414062 176.628906 C 148.324219 176.609375 148.304688 176.699219 148.195312 176.765625 C 146.265625 177.828125 144.011719 178.253906 141.691406 177.734375 C 139.371094 177.210938 137.359375 175.730469 136.183594 173.875 L 138.714844 172.203125 L 136.183594 173.875 C 136.113281 173.765625 136.042969 173.65625 135.972656 173.546875 C 134.886719 171.714844 134.476562 169.378906 134.976562 167.152344 C 135.515625 164.75 136.980469 162.835938 138.945312 161.597656 C 138.964844 161.507812 139.074219 161.4375 139.164062 161.457031 C 141.023438 160.289062 143.367188 159.878906 145.597656 160.382812 Z M 146.039062 167.585938 C 145.714844 166.953125 145.058594 166.523438 144.253906 166.34375 C 143.542969 166.183594 142.855469 166.308594 142.308594 166.652344 C 142.222656 166.632812 142.199219 166.722656 142.199219 166.722656 C 141.546875 167.136719 141.136719 167.699219 140.957031 168.5 C 140.796875 169.210938 140.925781 169.894531 141.179688 170.417969 C 141.25 170.527344 141.25 170.527344 141.339844 170.546875 L 141.320312 170.636719 C 141.664062 171.183594 142.320312 171.609375 143.035156 171.773438 C 143.75 171.933594 144.433594 171.804688 145.050781 171.570312 C 145.070312 171.480469 145.15625 171.5 145.179688 171.414062 C 145.8125 171.089844 146.242188 170.4375 146.402344 169.726562 C 146.582031 168.925781 146.453125 168.242188 146.039062 167.585938 Z M 146.039062 167.585938 " fill-opacity="1" fill-rule="nonzero"></path></g></g></g></g><g clip-path="url(#3bdf892ddb)"><g clip-path="url(#1b08e99e3f)"><g clip-path="url(#ae37135e93)"><g clip-path="url(#8acfd239c8)"><path fill="#000000" d="M 162.785156 184.445312 C 165.195312 184.988281 167.117188 186.449219 168.296875 188.304688 L 165.761719 189.976562 L 168.382812 188.324219 C 168.363281 188.414062 168.433594 188.519531 168.503906 188.628906 C 169.589844 190.464844 170.003906 192.800781 169.5 195.027344 C 168.960938 197.429688 167.5 199.34375 165.621094 200.601562 L 163.957031 197.984375 L 165.621094 200.601562 C 165.511719 200.671875 165.421875 200.652344 165.3125 200.71875 C 163.472656 201.800781 161.199219 202.316406 158.878906 201.796875 C 156.46875 201.253906 154.546875 199.792969 153.300781 197.828125 L 155.925781 196.175781 L 153.300781 197.828125 C 153.230469 197.71875 153.230469 197.71875 153.164062 197.609375 C 152.09375 195.6875 151.574219 193.417969 152.09375 191.105469 C 152.636719 188.703125 154.097656 186.789062 156.046875 185.640625 L 157.726562 188.167969 L 156.066406 185.550781 C 156.152344 185.570312 156.175781 185.480469 156.285156 185.410156 C 158.210938 184.351562 160.464844 183.921875 162.785156 184.445312 Z M 163.246094 191.5625 L 163.15625 191.539062 C 162.8125 190.996094 162.15625 190.566406 161.445312 190.40625 C 160.730469 190.246094 160.042969 190.371094 159.429688 190.605469 C 159.410156 190.695312 159.410156 190.695312 159.300781 190.765625 L 159.320312 190.675781 L 159.300781 190.765625 C 158.753906 191.109375 158.234375 191.742188 158.074219 192.453125 C 157.914062 193.164062 158.042969 193.847656 158.367188 194.480469 C 158.367188 194.480469 158.457031 194.503906 158.4375 194.589844 C 158.875 195.15625 159.417969 195.652344 160.222656 195.835938 C 160.9375 195.996094 161.621094 195.867188 162.167969 195.523438 C 162.257812 195.542969 162.277344 195.457031 162.277344 195.457031 L 162.367188 195.476562 C 162.933594 195.042969 163.339844 194.480469 163.519531 193.679688 C 163.679688 192.96875 163.644531 192.304688 163.296875 191.757812 C 163.226562 191.648438 163.226562 191.648438 163.136719 191.628906 Z M 163.246094 191.5625 " fill-opacity="1" fill-rule="nonzero"></path></g></g></g></g><g clip-path="url(#583c5dae3e)"><g clip-path="url(#720335d4e7)"><g clip-path="url(#0e59bb024b)"><g clip-path="url(#96c22f5f3e)"><path fill="#000000" d="M 175.980469 90.84375 C 180.085938 91.769531 183.542969 94.324219 185.691406 97.703125 C 187.769531 100.976562 188.601562 105.183594 187.679688 109.277344 C 186.738281 113.457031 184.183594 116.902344 180.902344 118.96875 C 177.515625 121.105469 173.296875 121.929688 169.1875 121.007812 C 164.992188 120.0625 161.625 117.527344 159.476562 114.144531 C 157.3125 110.851562 156.476562 106.644531 157.417969 102.464844 C 158.339844 98.371094 160.898438 94.925781 164.265625 92.878906 C 167.652344 90.746094 171.785156 89.898438 175.980469 90.84375 Z M 180.464844 100.921875 C 179.238281 98.867188 177.136719 97.367188 174.636719 96.804688 C 172.046875 96.222656 169.597656 96.699219 167.519531 98.007812 C 165.460938 99.226562 163.960938 101.320312 163.398438 103.808594 C 162.816406 106.390625 163.28125 108.925781 164.613281 110.910156 C 165.929688 112.980469 167.941406 114.460938 170.53125 115.046875 C 173.03125 115.609375 175.570312 115.152344 177.558594 113.824219 C 179.617188 112.601562 181.117188 110.511719 181.699219 107.929688 C 182.261719 105.4375 181.800781 102.90625 180.464844 100.921875 Z M 180.464844 100.921875 " fill-opacity="1" fill-rule="nonzero"></path></g></g></g></g><g clip-path="url(#e0cbfb1c18)"><path fill="#fcca29" d="M 254.101562 296.289062 C 253.007812 296.054688 251.917969 295.824219 250.789062 295.820312 C 248.925781 295.816406 247.074219 295.5625 245.21875 295.433594 C 242.359375 295.234375 239.5 294.980469 236.628906 294.863281 C 233.292969 295.121094 229.933594 294.414062 226.605469 295.109375 C 226.40625 295.148438 226.179688 295.097656 225.96875 295.074219 C 225.390625 295.015625 224.828125 295.226562 224.304688 295.710938 C 224.039062 295.953125 223.570312 295.65625 223.320312 296.074219 C 223.777344 296.144531 224.195312 296.21875 224.617188 296.273438 C 225.363281 296.378906 226.183594 296.875 226.664062 295.769531 C 226.792969 295.472656 227.1875 295.625 227.34375 295.828125 C 227.9375 296.582031 228.757812 296.464844 229.550781 296.46875 C 231.152344 296.472656 232.753906 296.46875 234.359375 296.46875 C 234.464844 296.46875 234.570312 296.472656 234.675781 296.472656 C 234.675781 296.578125 234.679688 296.683594 234.679688 296.785156 C 236.171875 296.789062 237.667969 296.789062 239.164062 296.789062 C 239.265625 296.800781 239.367188 296.804688 239.472656 296.808594 C 239.476562 296.808594 239.484375 296.808594 239.492188 296.808594 C 239.472656 296.878906 239.457031 296.953125 239.445312 297.035156 C 239.953125 297.476562 240.5625 297.257812 241.121094 297.257812 C 245.417969 297.269531 249.703125 297.425781 253.964844 298.023438 C 254.058594 297.980469 254.15625 297.933594 254.253906 297.890625 C 254.628906 297.726562 255.144531 297.679688 255.121094 297.117188 C 255.097656 296.496094 254.554688 296.382812 254.101562 296.289062 " fill-opacity="1" fill-rule="nonzero"></path></g><g clip-path="url(#28fafafcab)"><path fill="#fcca29" d="M 262.011719 288.421875 C 262.011719 288.421875 262.015625 288.417969 262.015625 288.417969 C 262.015625 288.417969 262.011719 288.421875 262.011719 288.421875 Z M 262.078125 288.398438 C 262.347656 288.308594 262.601562 288.160156 262.828125 287.925781 C 262.609375 288.171875 262.351562 288.316406 262.078125 288.398438 Z M 254.324219 288.652344 C 248.035156 288.640625 241.761719 289.234375 235.472656 289.039062 C 234.96875 289.023438 234.417969 289.203125 233.886719 288.726562 C 234.558594 288.195312 235.320312 288.300781 236.03125 288.296875 C 239.761719 288.269531 243.492188 288.25 247.226562 288.292969 C 251.574219 288.347656 255.929688 288.089844 260.277344 288.480469 C 258.285156 288.4375 256.300781 288.652344 254.324219 288.652344 Z M 142.089844 289.84375 C 142.089844 289.851562 142.085938 289.863281 142.082031 289.871094 C 142.054688 289.828125 142.023438 289.78125 141.996094 289.738281 C 141.996094 289.738281 142.089844 289.84375 142.089844 289.84375 Z M 138.226562 271.097656 C 137.949219 271.121094 137.648438 271.140625 137.332031 271.089844 C 137.632812 271.105469 137.933594 271.105469 138.226562 271.097656 Z M 146.808594 270.105469 C 149.71875 269.761719 152.605469 269.089844 155.242188 269.574219 C 154.417969 269.710938 153.25 269.167969 152.113281 269.636719 C 151.5 269.765625 150.875 269.8125 150.25 269.828125 C 149.582031 269.957031 148.902344 269.9375 148.230469 270.003906 C 147.640625 270.042969 147.074219 270.179688 146.523438 270.386719 C 146.28125 270.460938 146.03125 270.488281 145.78125 270.492188 C 145.429688 270.5 145.078125 270.496094 144.730469 270.507812 C 144.332031 270.523438 144.015625 270.664062 143.847656 271.046875 C 143.84375 271.097656 143.847656 271.144531 143.855469 271.191406 C 143.542969 270.90625 143.164062 270.820312 142.742188 270.84375 C 142.132812 270.949219 141.511719 270.75 140.902344 270.910156 C 140.460938 271.007812 140.046875 271.140625 139.828125 271.582031 C 139.828125 271.5625 139.828125 271.546875 139.824219 271.527344 C 139.585938 271.203125 139.3125 271.089844 139.003906 271.066406 C 141.738281 270.886719 144.230469 270.097656 146.808594 270.105469 Z M 125.164062 260.320312 C 126.597656 259.824219 128.054688 259.753906 129.386719 259.222656 C 129.476562 259.144531 129.539062 259.050781 129.585938 258.949219 C 130.054688 259.679688 130.898438 259.5 131.589844 259.683594 C 133.558594 259.378906 135.519531 259.722656 137.484375 259.675781 C 138.652344 259.648438 139.820312 259.527344 140.992188 259.601562 C 141.484375 259.632812 141.992188 259.347656 142.035156 258.804688 C 142.082031 258.152344 141.503906 258.105469 141.023438 258.085938 C 140.226562 258.054688 139.449219 257.78125 138.96875 257.867188 C 140.953125 257.308594 143.292969 256.832031 145.667969 256.589844 C 147.773438 256.375 149.910156 256.457031 151.964844 255.847656 C 151.988281 255.800781 152.003906 255.757812 152.019531 255.714844 C 152.1875 255.863281 152.386719 255.890625 152.605469 255.835938 C 152.609375 255.832031 152.613281 255.828125 152.613281 255.824219 C 152.617188 255.878906 152.621094 255.933594 152.621094 255.988281 C 153.179688 256.007812 153.691406 256.128906 153.828125 256.765625 C 153.976562 257.457031 153.324219 257.554688 152.960938 257.871094 C 152.917969 257.789062 152.859375 257.710938 152.785156 257.648438 C 151.738281 257.183594 150.847656 257.601562 149.953125 258.117188 C 148.117188 259.179688 146.125 259.84375 144.066406 260.324219 C 143.609375 260.464844 143.121094 260.53125 142.699219 260.765625 C 142.695312 260.765625 142.6875 260.765625 142.683594 260.765625 C 142.570312 260.660156 142.460938 260.664062 142.355469 260.777344 L 142.347656 260.785156 C 142.355469 260.894531 142.359375 261.007812 142.367188 261.121094 C 142.371094 261.121094 142.371094 261.121094 142.375 261.121094 C 142.367188 261.132812 142.363281 261.144531 142.355469 261.15625 C 142.339844 261.058594 142.316406 260.957031 142.289062 260.847656 C 142.085938 260.683594 141.859375 260.5625 141.613281 260.476562 C 136.15625 260.195312 130.695312 260.492188 125.164062 260.320312 Z M 195.792969 245.402344 C 195.808594 245.402344 195.824219 245.402344 195.84375 245.398438 C 195.773438 245.421875 195.707031 245.441406 195.640625 245.460938 C 195.644531 245.429688 195.683594 245.410156 195.792969 245.402344 Z M 223.054688 244.785156 C 222.480469 244.914062 222.058594 244.976562 222.140625 245.386719 C 222 245.335938 221.863281 245.277344 221.726562 245.210938 C 221.457031 245.050781 221.171875 244.996094 220.863281 245.042969 C 220.710938 245.082031 220.5625 245.113281 220.410156 245.144531 C 219.789062 244.855469 219.070312 245.074219 218.40625 245.019531 C 218.773438 245.003906 219.136719 244.9375 219.484375 244.742188 C 219.503906 244.722656 219.523438 244.707031 219.539062 244.691406 C 220.636719 244.722656 221.75 244.871094 223.054688 244.785156 Z M 231.519531 255.953125 C 231.527344 255.96875 231.53125 255.980469 231.539062 255.992188 C 231.515625 255.992188 231.492188 255.992188 231.46875 255.992188 C 231.484375 255.976562 231.503906 255.96875 231.519531 255.953125 Z M 241.078125 259.191406 C 241.078125 259.191406 241.074219 259.191406 241.074219 259.191406 C 241.074219 259.1875 241.078125 259.183594 241.078125 259.175781 C 241.078125 259.183594 241.078125 259.1875 241.078125 259.191406 Z M 206.4375 245.003906 C 206.515625 245.003906 206.589844 245.003906 206.667969 245.003906 C 207.125 245.003906 207.589844 245.003906 208.050781 245.003906 C 208.058594 245.003906 208.066406 245.003906 208.074219 245.003906 C 207.527344 245.003906 206.984375 245.003906 206.4375 245.003906 Z M 215.214844 245.003906 C 215.859375 245 216.5 245 217.140625 244.996094 C 217.269531 244.996094 217.398438 245 217.527344 245.003906 C 216.757812 245.003906 215.988281 245.003906 215.214844 245.003906 Z M 193.902344 248.101562 C 194.746094 248.1875 195.59375 248.203125 196.4375 248.199219 C 196.421875 248.199219 196.410156 248.199219 196.394531 248.199219 C 195.464844 248.210938 194.539062 248.269531 193.621094 248.34375 C 193.652344 248.273438 193.640625 248.171875 193.5625 248.027344 C 193.585938 248.027344 193.613281 248.027344 193.636719 248.027344 C 193.722656 248.050781 193.8125 248.074219 193.902344 248.101562 Z M 189.476562 248.734375 C 190.308594 248.636719 191.1875 248.515625 192.078125 248.488281 C 191.191406 248.578125 190.324219 248.667969 189.476562 248.734375 Z M 225.109375 254.058594 C 225.09375 254.050781 225.074219 254.042969 225.058594 254.035156 C 225.058594 254.027344 225.058594 254.015625 225.058594 254.007812 C 225.082031 254.023438 225.105469 254.035156 225.132812 254.046875 C 225.125 254.050781 225.117188 254.054688 225.109375 254.058594 Z M 227.304688 253.449219 Z M 227.402344 253.542969 C 227.40625 253.546875 227.414062 253.550781 227.421875 253.554688 C 227.457031 253.582031 227.492188 253.609375 227.527344 253.636719 C 227.484375 253.609375 227.441406 253.578125 227.402344 253.542969 Z M 200.625 248.203125 C 200.421875 248.21875 200.210938 248.207031 200.003906 248.191406 C 200.316406 248.191406 200.628906 248.191406 200.941406 248.191406 C 200.835938 248.195312 200.730469 248.195312 200.625 248.203125 Z M 203.105469 247.84375 C 203.242188 247.9375 203.378906 247.996094 203.515625 248.023438 C 202.964844 248.171875 202.398438 248.1875 201.824219 248.183594 C 201.964844 248.183594 202.105469 248.179688 202.25 248.171875 C 202.515625 248.160156 202.746094 248.0625 202.933594 247.871094 C 202.9375 247.867188 202.941406 247.859375 202.945312 247.855469 C 203 247.851562 203.054688 247.847656 203.105469 247.84375 Z M 168.804688 257.945312 C 168.804688 257.957031 168.804688 257.96875 168.804688 257.980469 C 168.800781 257.96875 168.800781 257.957031 168.800781 257.945312 C 168.800781 257.945312 168.800781 257.945312 168.804688 257.945312 Z M 197.378906 248.191406 C 197.875 248.1875 198.371094 248.179688 198.867188 248.179688 C 198.617188 248.226562 198.375 248.320312 198.148438 248.507812 C 198.136719 248.507812 198.125 248.507812 198.113281 248.507812 C 198.078125 248.511719 198.042969 248.515625 198.011719 248.519531 C 197.828125 248.316406 197.609375 248.226562 197.378906 248.191406 Z M 242.527344 264.75 C 243.933594 265.421875 245.425781 264.9375 246.871094 265.0625 C 246.976562 265.039062 247.078125 265.007812 247.183594 264.96875 C 247.234375 265 247.292969 265.027344 247.355469 265.050781 C 247.726562 265.09375 248.089844 265.203125 248.460938 265.226562 C 248.460938 265.300781 248.460938 265.375 248.460938 265.449219 C 248.429688 265.480469 248.402344 265.519531 248.378906 265.558594 C 245.695312 265.546875 242.996094 265.707031 240.132812 265.023438 C 240.3125 264.789062 240.605469 264.667969 241.117188 264.746094 C 241.507812 264.808594 241.945312 264.8125 242.273438 264.480469 C 242.304688 264.417969 242.339844 264.351562 242.375 264.289062 C 242.441406 264.257812 242.515625 264.230469 242.59375 264.214844 C 242.53125 264.40625 242.503906 264.589844 242.527344 264.75 Z M 245.175781 253.289062 C 243.285156 253.28125 241.390625 253.261719 239.5 253.347656 C 238.769531 253.382812 237.992188 253.457031 237.351562 252.945312 C 237.292969 252.898438 237.230469 252.855469 237.171875 252.816406 C 237.226562 252.789062 237.257812 252.746094 237.265625 252.679688 C 237.753906 253.285156 238.472656 253.203125 239.125 253.195312 C 241.144531 253.167969 243.160156 253.265625 245.175781 253.289062 Z M 267.710938 288.488281 C 267.605469 288.382812 267.496094 288.277344 267.390625 288.171875 L 267.367188 288.199219 C 267.367188 288.199219 267.363281 288.199219 267.363281 288.195312 C 267.371094 288.1875 267.382812 288.179688 267.390625 288.171875 C 267.179688 288.0625 266.972656 287.949219 266.761719 287.839844 C 266.753906 287.742188 266.742188 287.648438 266.730469 287.550781 C 266.007812 287.210938 264.941406 287.492188 264.515625 286.460938 C 265.003906 286.171875 265.445312 286.269531 265.859375 286.261719 C 266.773438 286.25 266.9375 285.765625 266.726562 285.007812 C 266.683594 284.960938 266.644531 284.914062 266.605469 284.863281 C 266.421875 284.835938 266.230469 284.832031 266.089844 284.6875 C 266.089844 284.6875 266.085938 284.691406 266.085938 284.691406 C 265.433594 284.644531 264.746094 284.785156 264.15625 284.371094 C 263.519531 284.363281 262.886719 284.355469 262.25 284.351562 C 260.765625 284.347656 259.273438 284.34375 257.789062 284.339844 C 257.777344 284.359375 257.769531 284.378906 257.761719 284.398438 C 257.753906 284.390625 257.746094 284.386719 257.738281 284.382812 C 257.738281 284.382812 257.789062 284.339844 257.789062 284.339844 C 257.765625 284.246094 257.75 284.148438 257.738281 284.054688 C 256.78125 284.054688 255.820312 284.039062 254.859375 284.058594 C 249.585938 284.148438 244.328125 283.578125 239.054688 283.6875 C 238.457031 283.699219 237.515625 283.796875 237.519531 282.996094 C 237.523438 282.257812 238.421875 282.253906 239.0625 282.25 C 243.054688 282.207031 247.027344 281.707031 251.023438 281.824219 C 252.957031 281.804688 254.863281 281.332031 256.804688 281.507812 C 256.910156 281.613281 257.015625 281.617188 257.113281 281.5 C 257.542969 281.5 257.976562 281.503906 258.40625 281.503906 C 258.507812 281.613281 258.613281 281.613281 258.714844 281.503906 C 259.007812 281.382812 259.316406 281.289062 259.597656 281.144531 C 260.335938 280.75 260.351562 280.324219 259.628906 279.898438 C 259.027344 279.550781 258.355469 279.371094 257.667969 279.265625 C 256.203125 279.046875 254.734375 278.839844 253.265625 278.628906 C 251.953125 278.625 250.636719 278.625 249.320312 278.617188 C 247.738281 278.609375 246.191406 278.210938 244.605469 278.253906 C 244.128906 278.269531 243.460938 278.195312 243.667969 277.367188 C 247.640625 277.359375 251.617188 277.355469 255.589844 277.34375 C 256.21875 277.339844 256.871094 277.453125 257.433594 277.035156 L 257.441406 277.03125 C 257.601562 276.996094 257.796875 276.941406 257.753906 276.761719 C 257.683594 276.449219 257.382812 276.4375 257.125 276.390625 C 255.742188 275.449219 254.160156 275.867188 252.660156 275.714844 C 252.46875 275.644531 252.28125 275.554688 252.085938 275.496094 C 250.875 275.144531 250.828125 275.074219 251.703125 274.226562 C 252.441406 273.507812 251.367188 273.589844 251.328125 273.234375 C 251.128906 273.214844 250.929688 273.195312 250.726562 273.179688 C 249.945312 272.4375 248.953125 272.605469 248.007812 272.550781 C 247.601562 272.53125 247.050781 272.609375 247.027344 272.015625 C 247 271.472656 247.488281 271.367188 247.925781 271.328125 C 248.292969 271.296875 248.667969 271.308594 249.039062 271.308594 C 250.742188 271.296875 252.445312 271.3125 254.148438 271.257812 C 254.792969 271.238281 255.835938 271.335938 255.8125 270.523438 C 255.792969 269.816406 254.773438 270.035156 254.175781 270.03125 C 249.8125 270.011719 245.449219 270.023438 241.085938 270.023438 C 240.671875 270.011719 240.253906 270.003906 239.839844 269.996094 C 239.824219 269.902344 239.8125 269.804688 239.796875 269.710938 C 239.484375 269.675781 239.121094 269.691406 238.992188 269.328125 C 238.847656 268.898438 239.144531 268.625 239.445312 268.394531 C 239.800781 268.121094 240.238281 268.132812 240.664062 268.097656 C 243.160156 267.894531 245.652344 267.679688 248.144531 267.46875 C 251.238281 267.640625 254.273438 266.96875 257.347656 266.824219 C 257.78125 266.804688 258.234375 266.761719 258.308594 266.207031 C 258.378906 265.714844 258.070312 265.410156 257.671875 265.214844 C 256.796875 264.796875 255.882812 264.539062 254.902344 264.585938 C 254.339844 264.089844 253.507812 264.457031 252.941406 263.976562 C 252.78125 263.976562 252.621094 263.976562 252.460938 263.972656 C 251.613281 263.964844 250.636719 264.121094 250.90625 262.71875 C 250.929688 262.601562 250.808594 262.371094 250.695312 262.316406 C 249.871094 261.917969 250.203125 261.347656 250.355469 260.722656 C 250.714844 259.242188 250.464844 258.917969 248.921875 258.882812 C 246.738281 258.839844 244.554688 258.859375 242.371094 258.851562 C 241.945312 258.851562 241.519531 258.855469 241.09375 258.855469 C 238.878906 258.84375 236.683594 258.429688 234.457031 258.542969 C 233.523438 258.589844 232.714844 258.136719 231.964844 257.640625 C 231.398438 257.265625 231.472656 256.703125 232.085938 256.433594 C 232.515625 256.242188 233.039062 256.335938 233.429688 256.011719 C 235.09375 255.640625 236.800781 255.410156 238.484375 255.421875 C 242.6875 255.449219 246.871094 255.097656 251.070312 255.050781 C 252.347656 255.035156 253.621094 255.007812 254.875 254.730469 C 254.933594 254.625 254.957031 254.519531 254.9375 254.417969 C 255.027344 254.410156 255.117188 254.398438 255.203125 254.386719 C 255.675781 254.386719 256.152344 254.382812 256.625 254.382812 C 256.632812 254.339844 256.640625 254.296875 256.648438 254.253906 C 256.660156 254.296875 256.671875 254.34375 256.683594 254.386719 C 257.46875 254.253906 258.257812 254.140625 259.035156 253.980469 C 259.386719 253.910156 259.824219 253.816406 259.765625 253.316406 C 259.71875 252.941406 259.351562 252.882812 259.039062 252.816406 C 256.773438 251.929688 254.390625 251.875 252.007812 251.847656 C 252.003906 251.84375 252.003906 251.84375 252.003906 251.84375 C 251.394531 251.429688 250.695312 251.539062 250.027344 251.554688 C 248.398438 251.589844 246.792969 251.488281 245.253906 250.90625 L 245.246094 250.902344 C 245.242188 250.804688 245.234375 250.707031 245.222656 250.605469 C 244.269531 250.597656 243.324219 250.03125 242.363281 250.566406 C 239.191406 250.273438 236.015625 250.121094 232.828125 250.21875 C 232.230469 249.910156 231.585938 249.984375 230.953125 249.980469 C 228.777344 249.957031 226.597656 249.949219 224.421875 249.933594 C 224.296875 249.714844 223.910156 249.722656 223.917969 249.335938 C 225.136719 248.976562 226.371094 248.664062 227.660156 248.664062 C 229.578125 248.667969 231.5 248.695312 233.398438 248.339844 C 233.800781 248.261719 233.980469 247.96875 234.132812 247.628906 C 234.359375 247.121094 234.773438 246.847656 235.320312 246.761719 C 235.742188 246.761719 236.164062 246.761719 236.582031 246.765625 C 238.347656 247.371094 240.164062 246.992188 241.957031 247.042969 C 242.171875 247.046875 242.394531 246.929688 242.410156 246.683594 C 242.425781 246.453125 242.253906 246.304688 242.035156 246.238281 C 241.414062 246.046875 240.769531 246.125 240.132812 246.128906 C 240.183594 246.15625 240.234375 246.1875 240.285156 246.222656 C 240.230469 246.199219 240.179688 246.167969 240.132812 246.128906 C 239.496094 246.121094 238.863281 246.113281 238.226562 246.105469 C 237.757812 245.785156 237.21875 245.820312 236.691406 245.816406 C 235.683594 245.804688 234.675781 245.773438 233.671875 245.808594 C 232.636719 245.84375 231.84375 245.5625 231.277344 244.609375 C 230.941406 244.042969 230.53125 243.445312 229.847656 243.175781 C 229.753906 243.191406 229.664062 243.1875 229.574219 243.171875 C 227.847656 242.742188 226.089844 243.023438 224.351562 242.980469 C 219.566406 242.871094 214.78125 242.933594 209.992188 242.925781 C 209.429688 242.519531 208.773438 242.628906 208.144531 242.628906 C 204.488281 242.617188 200.828125 242.617188 197.167969 242.613281 C 195.109375 243.402344 192.851562 242.992188 190.773438 243.675781 C 186.820312 243.636719 182.894531 244.332031 178.933594 244.132812 C 177.855469 244.871094 176.535156 244.746094 175.371094 245.164062 C 174.40625 245.679688 173.308594 245.527344 172.289062 245.789062 C 171.476562 245.996094 170.777344 246.523438 169.863281 246.453125 C 168 246.308594 166.265625 247.171875 164.421875 247.234375 C 164.332031 247.238281 164.242188 247.339844 164.152344 247.394531 C 163.726562 247.398438 163.300781 247.398438 162.875 247.398438 C 162.605469 247.585938 162.304688 247.671875 161.980469 247.679688 C 160.441406 247.710938 158.90625 247.75 157.371094 247.765625 C 156.207031 247.777344 155.039062 247.722656 153.898438 248.023438 C 153.527344 248.121094 153.027344 248.269531 153.132812 248.671875 C 153.371094 249.574219 152.757812 250.296875 152.773438 251.136719 C 152.796875 252.417969 152.773438 252.421875 151.519531 252.503906 C 151.253906 252.519531 150.988281 252.519531 150.722656 252.523438 C 150.703125 252.613281 150.6875 252.703125 150.675781 252.796875 C 149.875 253.261719 148.988281 253.125 148.128906 253.144531 C 146.671875 253.664062 145.113281 253.441406 143.632812 253.769531 C 142.289062 253.898438 141.015625 253.628906 139.78125 253.125 C 139.675781 253.132812 139.570312 253.132812 139.46875 253.136719 C 138.988281 253.519531 138.339844 253.050781 137.863281 253.449219 C 137.671875 253.671875 137.632812 253.925781 137.757812 254.175781 C 138.191406 255.023438 137.71875 255.234375 136.988281 255.429688 C 135.898438 255.726562 134.800781 255.632812 133.707031 255.699219 C 133.015625 256.171875 132.089844 256.066406 131.429688 256.609375 C 130.195312 256.625 129.1875 257.195312 128.242188 257.902344 C 125.796875 257.96875 123.546875 259.195312 121.070312 259.101562 C 120.792969 259.089844 120.503906 259.359375 120.222656 259.5 C 120.117188 259.5 120.015625 259.503906 119.910156 259.507812 C 119.695312 259.507812 119.484375 259.503906 119.269531 259.503906 C 118.800781 259.753906 118.269531 259.972656 118.378906 260.644531 C 118.472656 261.21875 118.863281 261.554688 119.425781 261.691406 C 119.578125 261.726562 119.738281 261.726562 119.898438 261.742188 C 120.332031 261.738281 120.761719 261.734375 121.195312 261.726562 C 121.296875 261.726562 121.402344 261.726562 121.503906 261.726562 C 122.882812 261.730469 124.21875 262.132812 125.617188 262.074219 C 127.417969 261.996094 129.226562 262.09375 131.03125 262.042969 C 133.253906 261.984375 135.480469 262.226562 137.703125 261.839844 C 138.386719 261.71875 139.164062 262.015625 139.875 262.199219 C 140.265625 262.300781 140.210938 262.675781 140.097656 262.996094 C 139.296875 263.03125 138.789062 263.296875 139.058594 264.234375 C 139.164062 264.597656 139.085938 264.945312 138.820312 265.234375 C 138.757812 265.21875 138.695312 265.203125 138.632812 265.1875 C 138.441406 265.121094 138.246094 265.078125 138.050781 265.050781 C 137.910156 265.046875 137.773438 265.058594 137.636719 265.097656 C 137.101562 265.28125 136.511719 265.324219 136.039062 265.683594 C 136.003906 265.75 135.96875 265.8125 135.9375 265.878906 C 136.765625 266.429688 137.703125 266.136719 138.589844 266.1875 C 139.269531 266.230469 139.859375 266.320312 140.132812 267.054688 C 140.4375 267.875 141.101562 268.128906 141.921875 268.101562 C 143.25 268.058594 144.585938 268.230469 145.910156 267.960938 C 146.175781 267.90625 146.445312 267.917969 146.480469 268.363281 C 145.933594 268.777344 145.261719 268.925781 144.582031 269.035156 C 141.585938 269.507812 138.582031 269.925781 135.59375 270.449219 C 134.632812 270.617188 133.6875 270.648438 132.730469 270.65625 C 130.976562 270.929688 129.65625 272.246094 127.992188 272.742188 C 127.761719 272.71875 127.535156 272.746094 127.304688 272.894531 L 127.300781 272.90625 C 126.820312 273.472656 127.050781 273.878906 127.652344 274.070312 C 128.03125 274.1875 128.46875 274.132812 128.878906 274.15625 C 129.800781 274.210938 130.027344 274.777344 129.917969 275.574219 C 129.8125 276.308594 129.351562 276.8125 128.765625 277.210938 C 128.097656 277.660156 127.4375 278.132812 127.164062 278.917969 C 126.746094 280.117188 125.792969 280.4375 124.675781 280.523438 C 123.988281 280.574219 123.308594 280.546875 122.632812 280.777344 C 121.125 281.285156 119.554688 281.519531 117.984375 281.742188 C 117.871094 281.75 117.757812 281.761719 117.644531 281.769531 C 117.539062 281.683594 117.445312 281.699219 117.355469 281.792969 C 117.242188 281.796875 117.132812 281.800781 117.019531 281.808594 C 116.789062 281.824219 116.582031 281.90625 116.394531 282.035156 C 116.164062 282.046875 115.933594 282.054688 115.707031 282.066406 C 114.523438 281.644531 113.683594 282.84375 112.5625 282.726562 C 112.335938 282.742188 112.109375 282.757812 111.882812 282.769531 C 111.636719 283.058594 111.242188 282.820312 110.972656 283.03125 C 110.847656 283.035156 110.71875 283.039062 110.589844 283.046875 C 110.484375 282.96875 110.386719 282.976562 110.296875 283.066406 L 110.269531 283.082031 C 110.027344 283.390625 109.578125 283.105469 109.332031 283.40625 L 109.328125 283.40625 C 109.242188 283.5 109.144531 283.582031 109.042969 283.65625 C 108.914062 283.664062 108.785156 283.667969 108.65625 283.675781 C 108.234375 283.539062 107.8125 283.464844 107.40625 283.722656 L 107.40625 283.726562 C 107.304688 283.828125 107.199219 283.929688 107.089844 284.027344 L 107.070312 284.046875 C 106.902344 284.253906 106.902344 284.464844 107.066406 284.675781 L 107.089844 284.699219 C 107.199219 284.792969 107.296875 284.890625 107.394531 284.996094 L 107.410156 285.011719 C 107.71875 285.226562 108.03125 285.195312 108.34375 285.035156 C 108.679688 285.023438 109.015625 285.011719 109.351562 285 C 110.253906 284.582031 111.371094 285.183594 112.195312 284.40625 C 114.765625 283.964844 117.335938 283.523438 119.90625 283.085938 C 120.078125 282.941406 120.289062 282.902344 120.503906 282.929688 C 123.171875 283.300781 125.765625 282.472656 128.40625 282.417969 C 129.023438 282.40625 129.542969 282.179688 129.886719 281.632812 C 129.894531 281.613281 129.898438 281.59375 129.90625 281.574219 C 130.183594 281.851562 130.816406 281.679688 130.855469 282.257812 C 130.515625 282.746094 129.878906 282.691406 129.523438 283.082031 C 128.164062 283.316406 126.800781 283.519531 125.449219 283.789062 C 124.46875 283.984375 124.015625 284.535156 124.117188 285.265625 C 124.203125 285.875 124.804688 286.226562 125.75 286.140625 C 126.699219 286.054688 127.644531 285.910156 128.585938 285.789062 C 130.582031 285.535156 132.574219 285.269531 134.574219 285.03125 C 135.320312 284.945312 136.039062 285.011719 136.699219 285.484375 C 137.027344 285.71875 137.472656 285.804688 137.867188 285.957031 C 137.871094 286.054688 137.878906 286.160156 137.890625 286.257812 C 139.75 286.210938 141.570312 286.738281 143.433594 286.632812 C 143.640625 286.621094 143.859375 286.664062 144.058594 286.722656 C 144.585938 286.878906 144.777344 287.152344 144.351562 287.628906 C 144.003906 288.019531 143.667969 288.425781 143.324219 288.828125 C 143.207031 288.925781 143.089844 289.023438 142.96875 289.121094 C 142.644531 289.324219 142.320312 289.53125 141.996094 289.738281 C 140.613281 289.820312 139.265625 290.246094 137.863281 290.101562 C 137.410156 290.472656 136.855469 290.382812 136.332031 290.441406 C 135.953125 290.488281 135.539062 290.558594 135.519531 291.035156 C 135.503906 291.523438 135.921875 291.644531 136.296875 291.652344 C 137.148438 291.667969 138 291.644531 138.851562 291.59375 C 139.355469 291.5625 140.054688 291.199219 140.183594 291.941406 C 140.3125 292.667969 139.492188 292.554688 139.039062 292.75 C 138.140625 293.132812 137.097656 292.714844 136.238281 293.273438 C 136.140625 293.273438 136.039062 293.277344 135.9375 293.285156 C 135.078125 293.34375 134.175781 293.078125 133.371094 293.597656 L 133.367188 293.597656 C 132.402344 293.683594 131.390625 293.371094 130.476562 293.910156 C 130.121094 293.929688 129.738281 293.875 129.445312 294.109375 C 129.117188 294.371094 128.976562 294.675781 129.515625 294.890625 C 130.539062 295.449219 131.660156 295.082031 132.726562 295.207031 C 132.726562 295.199219 132.726562 295.195312 132.730469 295.191406 C 132.730469 295.191406 132.734375 295.191406 132.734375 295.191406 C 132.734375 295.191406 132.726562 295.207031 132.726562 295.207031 C 132.832031 295.308594 132.941406 295.414062 133.046875 295.519531 L 133.058594 295.507812 C 133.0625 295.507812 133.0625 295.507812 133.0625 295.511719 C 133.058594 295.511719 133.050781 295.515625 133.046875 295.519531 C 133.101562 295.945312 133.304688 296.273438 133.683594 296.484375 C 133.6875 296.585938 133.691406 296.6875 133.695312 296.789062 C 133.996094 296.792969 134.292969 296.796875 134.589844 296.804688 C 134.582031 296.820312 134.574219 296.839844 134.566406 296.859375 C 134.605469 296.9375 134.648438 297.015625 134.691406 297.089844 C 134.890625 297.097656 135.09375 297.101562 135.296875 297.109375 C 138.285156 297.105469 141.277344 297.105469 144.265625 297.101562 C 144.320312 296.996094 144.339844 296.890625 144.320312 296.792969 C 144.410156 296.789062 144.5 296.785156 144.589844 296.785156 C 146.875 296.785156 149.160156 296.804688 151.445312 296.769531 C 152.070312 296.761719 152.90625 296.960938 152.886719 295.835938 C 152.882812 295.554688 153.273438 295.53125 153.539062 295.527344 C 154.917969 295.511719 156.261719 295.0625 157.65625 295.191406 C 158.132812 295.234375 158.617188 295.199219 159.019531 294.878906 C 160.640625 295.027344 162.210938 294.441406 163.832031 294.570312 C 164.789062 294.445312 165.800781 294.769531 166.71875 294.253906 C 169.792969 294.320312 172.855469 294.027344 175.925781 293.953125 C 177.425781 293.914062 178.925781 293.90625 180.429688 293.910156 C 181.910156 294.328125 183.574219 294.441406 185.148438 293.921875 C 185.414062 293.921875 185.683594 293.921875 185.949219 293.921875 C 185.949219 293.816406 185.945312 293.710938 185.945312 293.601562 C 186.785156 293.503906 187.792969 293.9375 188.308594 292.8125 C 188.359375 292.695312 188.695312 292.65625 188.894531 292.664062 C 191.769531 292.765625 194.609375 292.113281 197.484375 292.335938 C 199.492188 291.894531 201.53125 292.105469 203.550781 291.996094 C 203.578125 292.082031 203.621094 292.175781 203.691406 292.28125 C 204.277344 292.796875 204.988281 292.738281 205.664062 292.628906 C 210.113281 291.902344 214.625 291.789062 219.101562 291.605469 C 224.832031 291.375 230.570312 290.992188 236.316406 291.210938 C 236.628906 291.222656 236.960938 291.269531 237.234375 291.046875 C 239.476562 291.042969 241.71875 290.804688 243.945312 290.800781 C 249.925781 290.792969 255.890625 290.414062 261.867188 290.371094 C 263.59375 290.355469 265.375 290.304688 267.074219 289.800781 C 267.074219 289.800781 267.074219 289.800781 267.070312 289.800781 C 267.382812 289.792969 267.695312 289.78125 268.003906 289.769531 C 268.023438 289.316406 268.058594 288.859375 267.710938 288.488281 " fill-opacity="1" fill-rule="nonzero"></path></g><path fill="#fcca29" d="M 124.015625 266.988281 C 124.429688 266.941406 124.761719 266.8125 124.699219 266.175781 C 124.636719 265.523438 124.3125 265.554688 123.875 265.5625 C 121.691406 265.613281 119.582031 266.125 117.457031 266.546875 C 117.324219 266.574219 117.210938 266.714844 116.832031 266.992188 C 119.417969 267.566406 121.71875 267.25 124.015625 266.988281 " fill-opacity="1" fill-rule="nonzero"></path><g fill="#000000" fill-opacity="1"><g transform="translate(98.811516, 278.754006)"><g><path d="M 3.015625 -22.40625 L 12.796875 -22.40625 C 15.191406 -22.40625 17.316406 -21.9375 19.171875 -21 C 21.023438 -20.070312 22.460938 -18.757812 23.484375 -17.0625 C 24.515625 -15.375 25.03125 -13.421875 25.03125 -11.203125 C 25.03125 -8.984375 24.515625 -7.023438 23.484375 -5.328125 C 22.460938 -3.628906 21.023438 -2.316406 19.171875 -1.390625 C 17.316406 -0.460938 15.191406 0 12.796875 0 L 3.015625 0 Z M 12.609375 -3.515625 C 14.253906 -3.515625 15.695312 -3.828125 16.9375 -4.453125 C 18.1875 -5.085938 19.144531 -5.984375 19.8125 -7.140625 C 20.488281 -8.304688 20.828125 -9.660156 20.828125 -11.203125 C 20.828125 -12.734375 20.488281 -14.078125 19.8125 -15.234375 C 19.144531 -16.398438 18.1875 -17.296875 16.9375 -17.921875 C 15.695312 -18.554688 14.253906 -18.875 12.609375 -18.875 L 7.171875 -18.875 L 7.171875 -3.515625 Z M 12.609375 -3.515625 "></path></g></g></g><g fill="#000000" fill-opacity="1"><g transform="translate(125.237021, 278.754006)"><g><path d="M 3.015625 -22.40625 L 7.171875 -22.40625 L 7.171875 0 L 3.015625 0 Z M 3.015625 -22.40625 "></path></g></g></g><g fill="#000000" fill-opacity="1"><g transform="translate(135.442507, 278.754006)"><g><path d="M 9.953125 0.3125 C 8.222656 0.3125 6.550781 0.0664062 4.9375 -0.421875 C 3.332031 -0.910156 2.0625 -1.5625 1.125 -2.375 L 2.5625 -5.59375 C 3.476562 -4.875 4.601562 -4.285156 5.9375 -3.828125 C 7.269531 -3.367188 8.609375 -3.140625 9.953125 -3.140625 C 11.617188 -3.140625 12.859375 -3.40625 13.671875 -3.9375 C 14.492188 -4.46875 14.90625 -5.171875 14.90625 -6.046875 C 14.90625 -6.691406 14.675781 -7.21875 14.21875 -7.625 C 13.757812 -8.039062 13.175781 -8.363281 12.46875 -8.59375 C 11.769531 -8.832031 10.8125 -9.101562 9.59375 -9.40625 C 7.894531 -9.8125 6.515625 -10.21875 5.453125 -10.625 C 4.398438 -11.03125 3.492188 -11.664062 2.734375 -12.53125 C 1.972656 -13.394531 1.59375 -14.5625 1.59375 -16.03125 C 1.59375 -17.269531 1.925781 -18.394531 2.59375 -19.40625 C 3.269531 -20.414062 4.285156 -21.21875 5.640625 -21.8125 C 7.003906 -22.414062 8.664062 -22.71875 10.625 -22.71875 C 11.988281 -22.71875 13.332031 -22.546875 14.65625 -22.203125 C 15.976562 -21.867188 17.117188 -21.378906 18.078125 -20.734375 L 16.765625 -17.5 C 15.785156 -18.082031 14.757812 -18.519531 13.6875 -18.8125 C 12.625 -19.113281 11.59375 -19.265625 10.59375 -19.265625 C 8.945312 -19.265625 7.722656 -18.984375 6.921875 -18.421875 C 6.128906 -17.867188 5.734375 -17.132812 5.734375 -16.21875 C 5.734375 -15.582031 5.960938 -15.0625 6.421875 -14.65625 C 6.878906 -14.25 7.457031 -13.925781 8.15625 -13.6875 C 8.863281 -13.457031 9.828125 -13.191406 11.046875 -12.890625 C 12.703125 -12.503906 14.0625 -12.101562 15.125 -11.6875 C 16.195312 -11.28125 17.113281 -10.648438 17.875 -9.796875 C 18.632812 -8.941406 19.015625 -7.789062 19.015625 -6.34375 C 19.015625 -5.101562 18.675781 -3.976562 18 -2.96875 C 17.320312 -1.96875 16.300781 -1.171875 14.9375 -0.578125 C 13.570312 0.015625 11.910156 0.3125 9.953125 0.3125 Z M 9.953125 0.3125 "></path></g></g></g><g fill="#000000" fill-opacity="1"><g transform="translate(155.565556, 278.754006)"><g><path d="M 13.375 0.3125 C 11.113281 0.3125 9.070312 -0.179688 7.25 -1.171875 C 5.425781 -2.160156 3.992188 -3.53125 2.953125 -5.28125 C 1.921875 -7.03125 1.40625 -9.003906 1.40625 -11.203125 C 1.40625 -13.398438 1.925781 -15.375 2.96875 -17.125 C 4.019531 -18.875 5.457031 -20.242188 7.28125 -21.234375 C 9.101562 -22.222656 11.144531 -22.71875 13.40625 -22.71875 C 15.238281 -22.71875 16.910156 -22.394531 18.421875 -21.75 C 19.941406 -21.113281 21.222656 -20.1875 22.265625 -18.96875 L 19.578125 -16.453125 C 17.960938 -18.203125 15.96875 -19.078125 13.59375 -19.078125 C 12.0625 -19.078125 10.6875 -18.738281 9.46875 -18.0625 C 8.25 -17.394531 7.296875 -16.460938 6.609375 -15.265625 C 5.929688 -14.066406 5.59375 -12.710938 5.59375 -11.203125 C 5.59375 -9.679688 5.929688 -8.320312 6.609375 -7.125 C 7.296875 -5.9375 8.25 -5.003906 9.46875 -4.328125 C 10.6875 -3.660156 12.0625 -3.328125 13.59375 -3.328125 C 15.96875 -3.328125 17.960938 -4.210938 19.578125 -5.984375 L 22.265625 -3.421875 C 21.222656 -2.203125 19.9375 -1.273438 18.40625 -0.640625 C 16.882812 -0.00390625 15.207031 0.3125 13.375 0.3125 Z M 13.375 0.3125 "></path></g></g></g><g fill="#000000" fill-opacity="1"><g transform="translate(178.82384, 278.754006)"><g><path d="M 13.46875 0.3125 C 11.1875 0.3125 9.128906 -0.179688 7.296875 -1.171875 C 5.460938 -2.160156 4.019531 -3.535156 2.96875 -5.296875 C 1.925781 -7.054688 1.40625 -9.023438 1.40625 -11.203125 C 1.40625 -13.378906 1.925781 -15.347656 2.96875 -17.109375 C 4.019531 -18.867188 5.460938 -20.242188 7.296875 -21.234375 C 9.128906 -22.222656 11.1875 -22.71875 13.46875 -22.71875 C 15.75 -22.71875 17.804688 -22.222656 19.640625 -21.234375 C 21.484375 -20.242188 22.925781 -18.875 23.96875 -17.125 C 25.007812 -15.375 25.53125 -13.398438 25.53125 -11.203125 C 25.53125 -9.003906 25.007812 -7.03125 23.96875 -5.28125 C 22.925781 -3.53125 21.484375 -2.160156 19.640625 -1.171875 C 17.804688 -0.179688 15.75 0.3125 13.46875 0.3125 Z M 13.46875 -3.328125 C 14.96875 -3.328125 16.3125 -3.660156 17.5 -4.328125 C 18.695312 -5.003906 19.632812 -5.941406 20.3125 -7.140625 C 21 -8.347656 21.34375 -9.703125 21.34375 -11.203125 C 21.34375 -12.691406 21 -14.039062 20.3125 -15.25 C 19.632812 -16.457031 18.695312 -17.394531 17.5 -18.0625 C 16.3125 -18.738281 14.96875 -19.078125 13.46875 -19.078125 C 11.976562 -19.078125 10.632812 -18.738281 9.4375 -18.0625 C 8.238281 -17.394531 7.296875 -16.457031 6.609375 -15.25 C 5.929688 -14.039062 5.59375 -12.691406 5.59375 -11.203125 C 5.59375 -9.703125 5.929688 -8.347656 6.609375 -7.140625 C 7.296875 -5.941406 8.238281 -5.003906 9.4375 -4.328125 C 10.632812 -3.660156 11.976562 -3.328125 13.46875 -3.328125 Z M 13.46875 -3.328125 "></path></g></g></g><g fill="#000000" fill-opacity="1"><g transform="translate(205.761216, 278.754006)"><g><path d="M 12.640625 0.3125 C 9.546875 0.3125 7.132812 -0.550781 5.40625 -2.28125 C 3.675781 -4.019531 2.8125 -6.515625 2.8125 -9.765625 L 2.8125 -22.40625 L 6.96875 -22.40625 L 6.96875 -9.921875 C 6.96875 -5.523438 8.867188 -3.328125 12.671875 -3.328125 C 16.453125 -3.328125 18.34375 -5.523438 18.34375 -9.921875 L 18.34375 -22.40625 L 22.4375 -22.40625 L 22.4375 -9.765625 C 22.4375 -6.515625 21.578125 -4.019531 19.859375 -2.28125 C 18.140625 -0.550781 15.734375 0.3125 12.640625 0.3125 Z M 12.640625 0.3125 "></path></g></g></g><g fill="#000000" fill-opacity="1"><g transform="translate(231.003013, 278.754006)"><g><path d="M 22.90625 -22.40625 L 22.90625 0 L 19.484375 0 L 7.140625 -15.171875 L 7.140625 0 L 3.015625 0 L 3.015625 -22.40625 L 6.4375 -22.40625 L 18.78125 -7.234375 L 18.78125 -22.40625 Z M 22.90625 -22.40625 "></path></g></g></g><g fill="#000000" fill-opacity="1"><g transform="translate(256.916647, 278.754006)"><g><path d="M 7.546875 -18.875 L 0.125 -18.875 L 0.125 -22.40625 L 19.140625 -22.40625 L 19.140625 -18.875 L 11.71875 -18.875 L 11.71875 0 L 7.546875 0 Z M 7.546875 -18.875 "></path></g></g></g><g fill="#000000" fill-opacity="1"><g transform="translate(141.398434, 305.479024)"><g><path d="M 10.21875 -9.578125 L 10.21875 0 L 8.15625 0 L 8.15625 -1.875 C 7.53125 -0.601562 6.390625 0.046875 4.734375 0.078125 C 3.640625 0.078125 2.78125 -0.25 2.15625 -0.90625 C 1.53125 -1.570312 1.21875 -2.476562 1.21875 -3.625 L 1.21875 -9.578125 L 3.296875 -9.578125 L 3.296875 -4.1875 C 3.296875 -3.46875 3.492188 -2.898438 3.890625 -2.484375 C 4.285156 -2.078125 4.832031 -1.875 5.53125 -1.875 C 6.332031 -1.882812 6.96875 -2.164062 7.4375 -2.71875 C 7.914062 -3.28125 8.15625 -3.992188 8.15625 -4.859375 L 8.15625 -9.578125 Z M 10.21875 -9.578125 "></path></g></g></g><g fill="#000000" fill-opacity="1"><g transform="translate(153.152396, 305.479024)"><g><path d="M 7.03125 -9.640625 C 8.394531 -9.640625 9.5 -9.1875 10.34375 -8.28125 C 11.1875 -7.382812 11.609375 -6.207031 11.609375 -4.75 C 11.609375 -3.3125 11.191406 -2.144531 10.359375 -1.25 C 9.535156 -0.363281 8.441406 0.078125 7.078125 0.078125 C 5.535156 0.078125 4.40625 -0.5 3.6875 -1.65625 L 3.6875 3.484375 L 1.625 3.484375 L 1.625 -9.578125 L 3.6875 -9.578125 L 3.6875 -7.921875 C 4.40625 -9.066406 5.519531 -9.640625 7.03125 -9.640625 Z M 4.5 -2.5625 C 5.050781 -1.976562 5.753906 -1.6875 6.609375 -1.6875 C 7.460938 -1.6875 8.160156 -1.976562 8.703125 -2.5625 C 9.242188 -3.144531 9.515625 -3.898438 9.515625 -4.828125 C 9.515625 -5.722656 9.242188 -6.460938 8.703125 -7.046875 C 8.160156 -7.628906 7.460938 -7.921875 6.609375 -7.921875 C 5.753906 -7.921875 5.050781 -7.628906 4.5 -7.046875 C 3.957031 -6.460938 3.6875 -5.722656 3.6875 -4.828125 C 3.6875 -3.898438 3.957031 -3.144531 4.5 -2.5625 Z M 4.5 -2.5625 "></path></g></g></g><g fill="#000000" fill-opacity="1"><g transform="translate(165.392355, 305.479024)"><g></g></g></g><g fill="#000000" fill-opacity="1"><g transform="translate(170.036345, 305.479024)"><g><path d="M 6.421875 -2.203125 L 6.953125 -0.609375 C 6.160156 -0.140625 5.375 0.09375 4.59375 0.09375 C 3.8125 0.09375 3.164062 -0.140625 2.65625 -0.609375 C 2.15625 -1.078125 1.90625 -1.773438 1.90625 -2.703125 L 1.90625 -7.671875 L 0.5625 -7.671875 L 0.5625 -9.21875 L 1.90625 -9.21875 L 1.90625 -11.84375 L 3.953125 -11.84375 L 3.953125 -9.21875 L 6.78125 -9.21875 L 6.78125 -7.671875 L 3.953125 -7.671875 L 3.953125 -3.078125 C 3.953125 -2.597656 4.035156 -2.257812 4.203125 -2.0625 C 4.378906 -1.875 4.640625 -1.78125 4.984375 -1.78125 C 5.367188 -1.78125 5.847656 -1.921875 6.421875 -2.203125 Z M 6.421875 -2.203125 "></path></g></g></g><g fill="#000000" fill-opacity="1"><g transform="translate(177.362325, 305.479024)"><g><path d="M 5.640625 -9.640625 C 7.109375 -9.640625 8.304688 -9.191406 9.234375 -8.296875 C 10.160156 -7.410156 10.625 -6.238281 10.625 -4.78125 C 10.625 -3.34375 10.160156 -2.171875 9.234375 -1.265625 C 8.304688 -0.367188 7.109375 0.078125 5.640625 0.078125 C 4.148438 0.078125 2.941406 -0.367188 2.015625 -1.265625 C 1.085938 -2.171875 0.625 -3.34375 0.625 -4.78125 C 0.625 -6.238281 1.085938 -7.410156 2.015625 -8.296875 C 2.941406 -9.191406 4.148438 -9.640625 5.640625 -9.640625 Z M 5.640625 -7.859375 C 4.773438 -7.859375 4.066406 -7.570312 3.515625 -7 C 2.972656 -6.425781 2.703125 -5.679688 2.703125 -4.765625 C 2.703125 -3.847656 2.972656 -3.097656 3.515625 -2.515625 C 4.066406 -1.941406 4.773438 -1.65625 5.640625 -1.65625 C 6.503906 -1.65625 7.203125 -1.941406 7.734375 -2.515625 C 8.273438 -3.097656 8.546875 -3.847656 8.546875 -4.765625 C 8.546875 -5.679688 8.269531 -6.425781 7.71875 -7 C 7.175781 -7.570312 6.484375 -7.859375 5.640625 -7.859375 Z M 5.640625 -7.859375 "></path></g></g></g><g fill="#000000" fill-opacity="1"><g transform="translate(188.61229, 305.479024)"><g></g></g></g><g fill="#000000" fill-opacity="1"><g transform="translate(193.256279, 305.479024)"><g><path d="M 9.109375 -10.6875 L 3.390625 -10.6875 L 3.390625 -7.96875 L 5.109375 -7.984375 C 6.460938 -7.984375 7.550781 -7.625 8.375 -6.90625 C 9.195312 -6.1875 9.609375 -5.269531 9.609375 -4.15625 C 9.609375 -2.875 9.1875 -1.847656 8.34375 -1.078125 C 7.5 -0.304688 6.367188 0.078125 4.953125 0.078125 C 4.203125 0.078125 3.421875 -0.0507812 2.609375 -0.3125 C 1.804688 -0.582031 1.09375 -0.9375 0.46875 -1.375 L 1.3125 -3.09375 C 2.363281 -2.207031 3.5 -1.765625 4.71875 -1.765625 C 5.53125 -1.765625 6.171875 -1.960938 6.640625 -2.359375 C 7.109375 -2.765625 7.34375 -3.320312 7.34375 -4.03125 C 7.34375 -4.664062 7.109375 -5.171875 6.640625 -5.546875 C 6.171875 -5.921875 5.535156 -6.109375 4.734375 -6.109375 C 3.546875 -6.109375 2.441406 -6.050781 1.421875 -5.9375 L 1.421875 -12.59375 L 9.09375 -12.59375 Z M 9.109375 -10.6875 "></path></g></g></g><g fill="#000000" fill-opacity="1"><g transform="translate(203.64225, 305.479024)"><g><path d="M 6.234375 -12.65625 C 7.941406 -12.65625 9.257812 -12.101562 10.1875 -11 C 11.113281 -9.90625 11.578125 -8.335938 11.578125 -6.296875 C 11.578125 -4.253906 11.113281 -2.6875 10.1875 -1.59375 C 9.257812 -0.5 7.941406 0.046875 6.234375 0.046875 C 4.503906 0.046875 3.175781 -0.5 2.25 -1.59375 C 1.320312 -2.6875 0.859375 -4.253906 0.859375 -6.296875 C 0.859375 -8.335938 1.320312 -9.90625 2.25 -11 C 3.175781 -12.101562 4.503906 -12.65625 6.234375 -12.65625 Z M 6.234375 -10.984375 C 4.109375 -10.984375 3.046875 -9.421875 3.046875 -6.296875 C 3.046875 -3.179688 4.109375 -1.625 6.234375 -1.625 C 8.335938 -1.625 9.390625 -3.179688 9.390625 -6.296875 C 9.390625 -9.421875 8.335938 -10.984375 6.234375 -10.984375 Z M 6.234375 -10.984375 "></path></g></g></g><g fill="#000000" fill-opacity="1"><g transform="translate(216.080214, 305.479024)"><g><path d="M 1.578125 -11.640625 C 2.171875 -12.304688 2.984375 -12.640625 4.015625 -12.640625 C 5.046875 -12.640625 5.859375 -12.304688 6.453125 -11.640625 C 7.046875 -10.972656 7.34375 -10.054688 7.34375 -8.890625 C 7.34375 -7.710938 7.046875 -6.785156 6.453125 -6.109375 C 5.859375 -5.441406 5.046875 -5.109375 4.015625 -5.109375 C 2.984375 -5.109375 2.171875 -5.441406 1.578125 -6.109375 C 0.984375 -6.785156 0.6875 -7.710938 0.6875 -8.890625 C 0.6875 -10.054688 0.984375 -10.972656 1.578125 -11.640625 Z M 3.0625 0 L 12.328125 -12.59375 L 14.3125 -12.59375 L 5.0625 0 Z M 5.453125 -10.75 C 5.117188 -11.1875 4.640625 -11.40625 4.015625 -11.40625 C 3.390625 -11.40625 2.90625 -11.1875 2.5625 -10.75 C 2.226562 -10.3125 2.0625 -9.691406 2.0625 -8.890625 C 2.0625 -8.078125 2.226562 -7.445312 2.5625 -7 C 2.90625 -6.5625 3.390625 -6.34375 4.015625 -6.34375 C 4.640625 -6.34375 5.117188 -6.566406 5.453125 -7.015625 C 5.796875 -7.460938 5.96875 -8.085938 5.96875 -8.890625 C 5.96875 -9.691406 5.796875 -10.3125 5.453125 -10.75 Z M 11.0625 -6.46875 C 11.65625 -7.132812 12.46875 -7.46875 13.5 -7.46875 C 14.53125 -7.46875 15.34375 -7.132812 15.9375 -6.46875 C 16.53125 -5.800781 16.828125 -4.882812 16.828125 -3.71875 C 16.828125 -2.550781 16.53125 -1.632812 15.9375 -0.96875 C 15.34375 -0.300781 14.53125 0.03125 13.5 0.03125 C 12.46875 0.03125 11.65625 -0.300781 11.0625 -0.96875 C 10.46875 -1.632812 10.171875 -2.550781 10.171875 -3.71875 C 10.171875 -4.882812 10.46875 -5.800781 11.0625 -6.46875 Z M 14.953125 -5.59375 C 14.609375 -6.039062 14.125 -6.265625 13.5 -6.265625 C 12.875 -6.265625 12.394531 -6.039062 12.0625 -5.59375 C 11.726562 -5.15625 11.5625 -4.53125 11.5625 -3.71875 C 11.5625 -2.90625 11.726562 -2.28125 12.0625 -1.84375 C 12.394531 -1.40625 12.875 -1.1875 13.5 -1.1875 C 14.125 -1.1875 14.609375 -1.40625 14.953125 -1.84375 C 15.296875 -2.289062 15.46875 -2.914062 15.46875 -3.71875 C 15.46875 -4.53125 15.296875 -5.15625 14.953125 -5.59375 Z M 14.953125 -5.59375 "></path></g></g></g></svg>