<svg xmlns="http://www.w3.org/2000/svg" xmlns:xlink="http://www.w3.org/1999/xlink" width="500" viewBox="0 0 375 374.999991" height="500" preserveAspectRatio="xMidYMid meet"><defs><g></g><clipPath id="82a7695df9"><path d="M 187.5 0 C 83.945312 0 0 83.945312 0 187.5 C 0 291.054688 83.945312 375 187.5 375 C 291.054688 375 375 291.054688 375 187.5 C 375 83.945312 291.054688 0 187.5 0 " clip-rule="nonzero"></path></clipPath><clipPath id="fb6b727d62"><path d="M 62.324219 128 L 76 128 L 76 137 L 62.324219 137 Z M 62.324219 128 " clip-rule="nonzero"></path></clipPath><clipPath id="027ea0c562"><path d="M 117.378906 64.480469 L 312.640625 64.480469 L 312.640625 189.730469 L 117.378906 189.730469 Z M 117.378906 64.480469 " clip-rule="nonzero"></path></clipPath><clipPath id="c7df826ac5"><path d="M 216.105469 255.292969 L 241.472656 255.292969 L 241.472656 258.101562 L 216.105469 258.101562 Z M 216.105469 255.292969 " clip-rule="nonzero"></path></clipPath><clipPath id="3703c9b460"><path d="M 123.550781 213.851562 L 251.800781 213.851562 L 251.800781 258 L 123.550781 258 Z M 123.550781 213.851562 " clip-rule="nonzero"></path></clipPath><clipPath id="8a49aa9307"><path d="M 225.183594 296.449219 L 258.855469 296.449219 L 258.855469 300.210938 L 225.183594 300.210938 Z M 225.183594 296.449219 " clip-rule="nonzero"></path></clipPath><clipPath id="dd20974eec"><path d="M 102.320312 241 L 272.570312 241 L 272.570312 300 L 102.320312 300 Z M 102.320312 241 " clip-rule="nonzero"></path></clipPath></defs><rect x="-37.5" width="450" fill="#ffffff" y="-37.499999" height="449.999989" fill-opacity="1"></rect><rect x="-37.5" width="450" fill="#ffffff" y="-37.499999" height="449.999989" fill-opacity="1"></rect><path fill="#fefefe" d="M 187.5 0 C 83.945312 0 0 83.945312 0 187.5 C 0 291.054688 83.945312 375 187.5 375 C 291.054688 375 375 291.054688 375 187.5 C 375 83.945312 291.054688 0 187.5 0 " fill-opacity="1" fill-rule="nonzero"></path><g clip-path="url(#82a7695df9)"><path stroke-linecap="butt" transform="matrix(0.75, 0, 0, 0.75, 0.0000045, 0.000000000000042633)" fill="none" stroke-linejoin="miter" d="M 249.999994 -0.000000000000056843 C 111.927078 -0.000000000000056843 -0.000006 111.927084 -0.000006 250 C -0.000006 388.072917 111.927078 500.000001 249.999994 500.000001 C 388.072911 500.000001 499.999995 388.072917 499.999995 250 C 499.999995 111.927084 388.072911 -0.000000000000056843 249.999994 -0.000000000000056843 " stroke="#fcca29" stroke-width="8" stroke-opacity="1" stroke-miterlimit="4"></path></g><path fill="#1f2124" d="M 136.503906 153.578125 C 136.503906 151.496094 134.886719 149.808594 132.890625 149.808594 L 98.273438 149.808594 C 96.277344 149.808594 94.660156 151.496094 94.660156 153.578125 C 94.660156 155.65625 96.277344 157.34375 98.273438 157.34375 L 132.890625 157.34375 C 134.886719 157.34375 136.503906 155.65625 136.503906 153.578125 " fill-opacity="1" fill-rule="nonzero"></path><path fill="#1f2124" d="M 98.972656 107.375 C 96.976562 107.375 95.359375 109.0625 95.359375 111.144531 C 95.359375 113.222656 96.976562 114.910156 98.972656 114.910156 L 131.871094 114.910156 C 133.867188 114.910156 135.484375 113.222656 135.484375 111.144531 C 135.484375 109.0625 133.867188 107.375 131.871094 107.375 L 98.972656 107.375 " fill-opacity="1" fill-rule="nonzero"></path><path fill="#1f2124" d="M 90.339844 93.691406 L 100.460938 93.691406 C 102.457031 93.691406 104.074219 92.003906 104.074219 89.925781 C 104.074219 87.84375 102.457031 86.160156 100.460938 86.160156 L 90.339844 86.160156 C 88.34375 86.160156 86.722656 87.84375 86.722656 89.925781 C 86.722656 92.003906 88.34375 93.691406 90.339844 93.691406 " fill-opacity="1" fill-rule="nonzero"></path><path fill="#1f2124" d="M 150.757812 132.359375 C 150.757812 130.28125 149.136719 128.59375 147.140625 128.59375 L 91.0625 128.59375 C 89.066406 128.59375 87.445312 130.28125 87.445312 132.359375 C 87.445312 134.441406 89.066406 136.125 91.0625 136.125 L 147.140625 136.125 C 149.136719 136.125 150.757812 134.441406 150.757812 132.359375 " fill-opacity="1" fill-rule="nonzero"></path><g clip-path="url(#fb6b727d62)"><path fill="#1f2124" d="M 72.265625 128.59375 L 66.117188 128.59375 C 64.121094 128.59375 62.503906 130.28125 62.503906 132.359375 C 62.503906 134.441406 64.121094 136.125 66.117188 136.125 L 72.265625 136.125 C 74.261719 136.125 75.878906 134.441406 75.878906 132.359375 C 75.878906 130.28125 74.261719 128.59375 72.265625 128.59375 " fill-opacity="1" fill-rule="nonzero"></path></g><path fill="#1f2124" d="M 114.421875 93.691406 L 148.949219 93.691406 C 150.367188 93.691406 151.59375 92.839844 152.1875 91.597656 C 152.429688 91.09375 152.5625 90.527344 152.5625 89.925781 C 152.5625 89.324219 152.429688 88.757812 152.1875 88.253906 C 151.59375 87.011719 150.367188 86.160156 148.949219 86.160156 L 114.421875 86.160156 C 113.003906 86.160156 111.777344 87.011719 111.1875 88.25 C 110.945312 88.753906 110.808594 89.324219 110.808594 89.925781 C 110.808594 90.527344 110.945312 91.097656 111.1875 91.601562 C 111.777344 92.839844 113.003906 93.691406 114.421875 93.691406 " fill-opacity="1" fill-rule="nonzero"></path><g clip-path="url(#027ea0c562)"><path fill="#1f2124" d="M 305.410156 162.507812 C 305.410156 166.101562 302.613281 169.019531 299.164062 169.019531 L 296.363281 169.019531 C 296.367188 168.890625 296.371094 168.769531 296.371094 168.640625 C 296.371094 157.011719 287.292969 147.550781 276.128906 147.550781 C 264.96875 147.550781 255.886719 157.011719 255.886719 168.640625 C 255.886719 168.769531 255.890625 168.890625 255.894531 169.019531 L 242.511719 169.019531 L 242.511719 91.054688 L 279.523438 91.054688 C 282.136719 91.054688 284.5625 92.453125 285.953125 94.761719 L 303.832031 124.441406 C 304.8125 126.066406 305.347656 127.933594 305.398438 129.847656 L 272.152344 129.847656 L 272.152344 103.9375 C 272.152344 101.886719 270.609375 100.152344 268.640625 100.097656 C 266.597656 100.039062 264.921875 101.746094 264.921875 103.859375 L 264.921875 133.613281 C 264.921875 135.695312 266.542969 137.382812 268.539062 137.382812 L 305.410156 137.382812 Z M 289.128906 169.277344 C 288.824219 176.234375 283.414062 181.867188 276.738281 182.1875 C 269.082031 182.550781 262.777344 175.984375 263.128906 168.003906 C 263.4375 161.050781 268.84375 155.417969 275.519531 155.097656 C 283.175781 154.730469 289.480469 161.300781 289.128906 169.277344 Z M 178.511719 169.277344 C 178.203125 176.234375 172.800781 181.867188 166.125 182.1875 C 158.464844 182.550781 152.160156 175.984375 152.511719 168.003906 C 152.820312 161.050781 158.226562 155.417969 164.902344 155.097656 C 172.558594 154.730469 178.863281 161.300781 178.511719 169.277344 Z M 309.957031 120.433594 L 292.074219 90.753906 C 289.347656 86.226562 284.65625 83.523438 279.523438 83.523438 L 242.503906 83.523438 C 242.46875 80.472656 241.757812 77.589844 240.519531 75.03125 C 237.367188 68.511719 230.875 64.480469 223.867188 64.480469 L 131.132812 64.480469 C 125.832031 65.199219 121.222656 68.25 118.285156 72.605469 C 116.480469 75.285156 117.46875 78.023438 120.566406 78.574219 C 121.96875 78.820312 123.355469 78.203125 124.140625 77.011719 C 126.203125 73.894531 129.652344 71.847656 133.5625 71.847656 L 223.851562 71.847656 C 230.164062 71.847656 235.277344 77.179688 235.277344 83.753906 L 235.277344 169.019531 L 185.746094 169.019531 C 185.75 168.890625 185.757812 168.769531 185.757812 168.640625 C 185.757812 157.011719 176.675781 147.550781 165.511719 147.550781 C 154.351562 147.550781 145.269531 157.011719 145.269531 168.640625 C 145.269531 168.769531 145.277344 168.890625 145.277344 169.019531 L 133.5625 169.019531 C 130.589844 169.019531 127.886719 167.835938 125.855469 165.898438 C 125.175781 165.253906 124.300781 164.875 123.382812 164.875 C 120.101562 164.875 118.511719 169.074219 120.921875 171.394531 C 124.246094 174.59375 128.691406 176.550781 133.5625 176.550781 L 146.75 176.550781 C 149.761719 184.273438 157.035156 189.734375 165.511719 189.734375 C 173.992188 189.734375 181.265625 184.273438 184.273438 176.550781 L 257.371094 176.550781 C 260.378906 184.273438 267.652344 189.734375 276.128906 189.734375 C 284.609375 189.734375 291.878906 184.273438 294.890625 176.550781 L 299.164062 176.550781 C 306.605469 176.550781 312.640625 170.261719 312.640625 162.507812 L 312.640625 130.152344 C 312.640625 126.710938 311.710938 123.351562 309.957031 120.433594 " fill-opacity="1" fill-rule="nonzero"></path></g><g clip-path="url(#c7df826ac5)"><path fill="#fcca29" d="M 240.652344 256.722656 C 239.785156 256.539062 238.917969 256.351562 238.019531 256.351562 C 236.535156 256.347656 235.066406 256.144531 233.589844 256.042969 C 231.3125 255.882812 229.039062 255.679688 226.757812 255.585938 C 224.105469 255.792969 221.429688 255.230469 218.785156 255.78125 C 218.625 255.816406 218.445312 255.773438 218.277344 255.757812 C 217.816406 255.707031 217.371094 255.878906 216.953125 256.265625 C 216.742188 256.457031 216.371094 256.222656 216.171875 256.554688 C 216.535156 256.609375 216.867188 256.667969 217.199219 256.714844 C 217.792969 256.796875 218.449219 257.191406 218.832031 256.308594 C 218.933594 256.070312 219.246094 256.195312 219.371094 256.355469 C 219.839844 256.957031 220.496094 256.863281 221.125 256.867188 C 222.402344 256.871094 223.675781 256.867188 224.949219 256.867188 C 225.035156 256.867188 225.121094 256.871094 225.203125 256.871094 C 225.203125 256.953125 225.203125 257.039062 225.203125 257.121094 C 226.394531 257.121094 227.582031 257.125 228.773438 257.125 C 228.851562 257.132812 228.933594 257.136719 229.015625 257.136719 C 229.023438 257.136719 229.027344 257.136719 229.035156 257.136719 C 229.015625 257.191406 229.003906 257.253906 228.996094 257.320312 C 229.398438 257.671875 229.886719 257.496094 230.332031 257.496094 C 233.746094 257.503906 237.15625 257.632812 240.542969 258.109375 C 240.621094 258.074219 240.699219 258.035156 240.773438 258.003906 C 241.074219 257.871094 241.484375 257.835938 241.464844 257.382812 C 241.445312 256.886719 241.011719 256.800781 240.652344 256.722656 " fill-opacity="1" fill-rule="nonzero"></path></g><g clip-path="url(#3703c9b460)"><path fill="#fcca29" d="M 246.945312 250.449219 C 246.945312 250.449219 246.949219 250.449219 246.949219 250.449219 C 246.949219 250.449219 246.945312 250.449219 246.945312 250.449219 Z M 247 250.433594 C 247.214844 250.363281 247.417969 250.242188 247.597656 250.054688 C 247.421875 250.253906 247.21875 250.367188 247 250.433594 Z M 240.832031 250.636719 C 235.828125 250.628906 230.839844 251.097656 225.835938 250.945312 C 225.4375 250.929688 224.996094 251.074219 224.574219 250.695312 C 225.109375 250.269531 225.714844 250.355469 226.28125 250.351562 C 229.246094 250.332031 232.214844 250.3125 235.183594 250.351562 C 238.644531 250.390625 242.109375 250.1875 245.566406 250.496094 C 243.980469 250.464844 242.402344 250.636719 240.832031 250.636719 Z M 151.558594 251.585938 C 151.558594 251.59375 151.554688 251.601562 151.554688 251.609375 C 151.527344 251.574219 151.503906 251.535156 151.480469 251.503906 C 151.480469 251.503906 151.558594 251.585938 151.558594 251.585938 Z M 148.484375 236.640625 C 148.261719 236.660156 148.027344 236.671875 147.773438 236.632812 C 148.011719 236.644531 148.25 236.644531 148.484375 236.640625 Z M 155.3125 235.847656 C 157.625 235.574219 159.921875 235.039062 162.019531 235.421875 C 161.363281 235.535156 160.433594 235.101562 159.53125 235.472656 C 159.042969 235.578125 158.546875 235.617188 158.046875 235.628906 C 157.515625 235.730469 156.976562 235.714844 156.441406 235.769531 C 155.972656 235.796875 155.523438 235.90625 155.085938 236.074219 C 154.890625 236.132812 154.691406 236.152344 154.492188 236.15625 C 154.214844 236.164062 153.933594 236.160156 153.65625 236.167969 C 153.34375 236.183594 153.089844 236.292969 152.957031 236.601562 C 152.953125 236.640625 152.957031 236.675781 152.960938 236.714844 C 152.714844 236.488281 152.410156 236.417969 152.078125 236.4375 C 151.589844 236.519531 151.097656 236.363281 150.613281 236.492188 C 150.261719 236.566406 149.929688 236.675781 149.757812 237.023438 C 149.757812 237.011719 149.757812 236.996094 149.753906 236.980469 C 149.566406 236.722656 149.347656 236.632812 149.101562 236.613281 C 151.277344 236.46875 153.257812 235.84375 155.3125 235.847656 Z M 138.09375 228.046875 C 139.234375 227.652344 140.390625 227.59375 141.453125 227.171875 C 141.523438 227.109375 141.574219 227.035156 141.613281 226.953125 C 141.984375 227.539062 142.65625 227.390625 143.207031 227.539062 C 144.769531 227.296875 146.332031 227.570312 147.894531 227.535156 C 148.824219 227.511719 149.75 227.414062 150.683594 227.472656 C 151.078125 227.496094 151.480469 227.269531 151.515625 226.839844 C 151.554688 226.320312 151.089844 226.28125 150.710938 226.265625 C 150.074219 226.238281 149.457031 226.023438 149.074219 226.089844 C 150.652344 225.644531 152.515625 225.265625 154.40625 225.074219 C 156.078125 224.898438 157.777344 224.96875 159.414062 224.480469 C 159.429688 224.445312 159.441406 224.410156 159.457031 224.375 C 159.589844 224.492188 159.746094 224.515625 159.921875 224.472656 C 159.925781 224.46875 159.925781 224.464844 159.929688 224.460938 C 159.933594 224.507812 159.933594 224.550781 159.933594 224.59375 C 160.378906 224.609375 160.785156 224.703125 160.894531 225.210938 C 161.015625 225.761719 160.492188 225.839844 160.207031 226.09375 C 160.171875 226.027344 160.125 225.96875 160.066406 225.917969 C 159.230469 225.546875 158.523438 225.878906 157.8125 226.292969 C 156.351562 227.136719 154.769531 227.667969 153.128906 228.050781 C 152.765625 228.164062 152.378906 228.214844 152.042969 228.402344 C 152.039062 228.402344 152.035156 228.402344 152.03125 228.402344 C 151.941406 228.320312 151.855469 228.320312 151.769531 228.410156 L 151.761719 228.417969 C 151.769531 228.503906 151.773438 228.59375 151.777344 228.683594 C 151.78125 228.683594 151.78125 228.683594 151.785156 228.683594 C 151.785156 228.683594 151.785156 228.683594 151.78125 228.6875 C 151.777344 228.695312 151.773438 228.703125 151.769531 228.714844 C 151.753906 228.636719 151.738281 228.554688 151.714844 228.464844 C 151.554688 228.335938 151.375 228.242188 151.179688 228.171875 C 146.839844 227.949219 142.496094 228.183594 138.09375 228.046875 Z M 194.273438 216.152344 C 194.289062 216.152344 194.300781 216.152344 194.3125 216.152344 C 194.257812 216.167969 194.207031 216.183594 194.152344 216.199219 C 194.15625 216.175781 194.1875 216.15625 194.273438 216.152344 Z M 215.960938 215.660156 C 215.5 215.765625 215.164062 215.8125 215.230469 216.140625 C 215.121094 216.097656 215.011719 216.054688 214.902344 216 C 214.6875 215.875 214.460938 215.828125 214.214844 215.867188 C 214.09375 215.898438 213.976562 215.921875 213.855469 215.949219 C 213.363281 215.71875 212.789062 215.890625 212.261719 215.847656 C 212.554688 215.835938 212.84375 215.78125 213.121094 215.625 C 213.136719 215.613281 213.148438 215.597656 213.164062 215.585938 C 214.035156 215.609375 214.921875 215.730469 215.960938 215.660156 Z M 222.691406 224.566406 C 222.695312 224.574219 222.703125 224.585938 222.707031 224.597656 C 222.6875 224.597656 222.671875 224.597656 222.652344 224.597656 C 222.664062 224.585938 222.679688 224.578125 222.691406 224.566406 Z M 230.296875 227.148438 C 230.292969 227.148438 230.292969 227.148438 230.289062 227.148438 C 230.292969 227.144531 230.292969 227.140625 230.296875 227.136719 C 230.296875 227.140625 230.296875 227.144531 230.296875 227.148438 Z M 202.742188 215.835938 C 202.800781 215.835938 202.863281 215.835938 202.921875 215.835938 C 203.289062 215.835938 203.65625 215.835938 204.023438 215.835938 C 204.03125 215.835938 204.035156 215.835938 204.042969 215.835938 C 203.609375 215.835938 203.175781 215.835938 202.742188 215.835938 Z M 209.722656 215.835938 C 210.234375 215.832031 210.746094 215.832031 211.253906 215.828125 C 211.355469 215.828125 211.460938 215.832031 211.5625 215.835938 C 210.949219 215.835938 210.335938 215.835938 209.722656 215.835938 Z M 192.769531 218.304688 C 193.441406 218.371094 194.113281 218.386719 194.785156 218.382812 C 194.777344 218.382812 194.765625 218.382812 194.75 218.382812 C 194.011719 218.390625 193.273438 218.4375 192.546875 218.5 C 192.570312 218.441406 192.5625 218.359375 192.5 218.246094 C 192.519531 218.246094 192.539062 218.246094 192.558594 218.246094 C 192.628906 218.265625 192.699219 218.285156 192.769531 218.304688 Z M 189.25 218.808594 C 189.914062 218.730469 190.609375 218.636719 191.320312 218.613281 C 190.613281 218.683594 189.921875 218.753906 189.25 218.808594 Z M 217.59375 223.054688 C 217.582031 223.046875 217.566406 223.042969 217.554688 223.035156 C 217.554688 223.027344 217.554688 223.019531 217.554688 223.015625 C 217.574219 223.023438 217.589844 223.035156 217.609375 223.042969 C 217.605469 223.046875 217.597656 223.050781 217.59375 223.054688 Z M 219.339844 222.566406 Z M 219.417969 222.640625 C 219.421875 222.644531 219.425781 222.648438 219.433594 222.652344 C 219.460938 222.675781 219.488281 222.695312 219.515625 222.714844 C 219.480469 222.695312 219.449219 222.667969 219.417969 222.640625 Z M 198.117188 218.386719 C 197.957031 218.398438 197.789062 218.390625 197.621094 218.375 C 197.871094 218.375 198.121094 218.375 198.371094 218.375 C 198.285156 218.378906 198.203125 218.382812 198.117188 218.386719 Z M 200.089844 218.101562 C 200.199219 218.175781 200.308594 218.21875 200.417969 218.242188 C 199.980469 218.359375 199.527344 218.371094 199.070312 218.371094 C 199.183594 218.367188 199.296875 218.367188 199.410156 218.359375 C 199.621094 218.351562 199.804688 218.273438 199.953125 218.121094 C 199.957031 218.117188 199.960938 218.113281 199.964844 218.109375 C 200.007812 218.105469 200.046875 218.105469 200.089844 218.101562 Z M 172.804688 226.152344 C 172.804688 226.160156 172.804688 226.171875 172.804688 226.179688 C 172.804688 226.171875 172.804688 226.160156 172.804688 226.152344 Z M 195.535156 218.378906 C 195.929688 218.371094 196.324219 218.367188 196.71875 218.367188 C 196.519531 218.402344 196.328125 218.480469 196.148438 218.628906 C 196.136719 218.628906 196.128906 218.628906 196.121094 218.628906 C 196.09375 218.632812 196.066406 218.632812 196.039062 218.636719 C 195.890625 218.476562 195.71875 218.40625 195.535156 218.378906 Z M 231.449219 231.578125 C 232.566406 232.117188 233.753906 231.730469 234.902344 231.828125 C 234.988281 231.808594 235.070312 231.78125 235.148438 231.753906 C 235.191406 231.777344 235.238281 231.800781 235.289062 231.816406 C 235.582031 231.855469 235.871094 231.9375 236.167969 231.960938 C 236.167969 232.019531 236.167969 232.078125 236.167969 232.136719 C 236.144531 232.160156 236.121094 232.191406 236.101562 232.222656 C 233.96875 232.214844 231.820312 232.339844 229.542969 231.796875 C 229.683594 231.609375 229.917969 231.511719 230.324219 231.578125 C 230.636719 231.625 230.984375 231.628906 231.246094 231.363281 C 231.269531 231.3125 231.296875 231.261719 231.324219 231.210938 C 231.378906 231.183594 231.441406 231.164062 231.5 231.152344 C 231.449219 231.304688 231.429688 231.453125 231.449219 231.578125 Z M 233.554688 222.4375 C 232.050781 222.433594 230.542969 222.417969 229.039062 222.488281 C 228.457031 222.515625 227.839844 222.574219 227.328125 222.167969 C 227.285156 222.128906 227.234375 222.09375 227.1875 222.0625 C 227.230469 222.042969 227.257812 222.007812 227.261719 221.953125 C 227.652344 222.4375 228.222656 222.371094 228.742188 222.363281 C 230.347656 222.34375 231.949219 222.421875 233.554688 222.4375 Z M 251.480469 250.503906 C 251.480469 250.503906 251.480469 250.503906 251.476562 250.503906 C 251.394531 250.421875 251.308594 250.335938 251.226562 250.253906 L 251.207031 250.273438 C 251.203125 250.273438 251.203125 250.273438 251.203125 250.273438 C 251.210938 250.265625 251.21875 250.261719 251.226562 250.253906 C 251.058594 250.164062 250.890625 250.078125 250.726562 249.988281 C 250.71875 249.910156 250.710938 249.835938 250.699219 249.757812 C 250.125 249.484375 249.277344 249.710938 248.9375 248.890625 C 249.328125 248.660156 249.675781 248.734375 250.007812 248.730469 C 250.734375 248.722656 250.863281 248.335938 250.695312 247.730469 C 250.664062 247.691406 250.628906 247.652344 250.597656 247.617188 C 250.453125 247.59375 250.300781 247.589844 250.1875 247.472656 C 250.1875 247.472656 250.1875 247.476562 250.1875 247.476562 C 249.667969 247.441406 249.121094 247.554688 248.652344 247.222656 C 248.144531 247.214844 247.640625 247.210938 247.136719 247.207031 C 245.953125 247.203125 244.769531 247.199219 243.585938 247.195312 C 243.578125 247.210938 243.570312 247.226562 243.5625 247.242188 C 243.558594 247.238281 243.550781 247.234375 243.546875 247.230469 C 243.546875 247.230469 243.585938 247.195312 243.585938 247.195312 C 243.570312 247.121094 243.558594 247.046875 243.546875 246.96875 C 242.785156 246.96875 242.019531 246.957031 241.257812 246.972656 C 237.0625 247.042969 232.878906 246.589844 228.683594 246.675781 C 228.210938 246.683594 227.460938 246.765625 227.464844 246.125 C 227.46875 245.535156 228.183594 245.535156 228.691406 245.53125 C 231.867188 245.496094 235.027344 245.101562 238.207031 245.191406 C 239.742188 245.175781 241.257812 244.800781 242.804688 244.9375 C 242.886719 245.023438 242.96875 245.027344 243.050781 244.933594 C 243.394531 244.933594 243.734375 244.9375 244.078125 244.9375 C 244.160156 245.023438 244.242188 245.023438 244.324219 244.9375 C 244.558594 244.839844 244.804688 244.765625 245.023438 244.648438 C 245.613281 244.335938 245.625 243.996094 245.050781 243.65625 C 244.570312 243.378906 244.035156 243.234375 243.492188 243.152344 C 242.324219 242.976562 241.15625 242.8125 239.992188 242.644531 C 238.945312 242.640625 237.898438 242.640625 236.851562 242.636719 C 235.59375 242.628906 234.363281 242.3125 233.097656 242.347656 C 232.722656 242.355469 232.191406 242.300781 232.355469 241.636719 C 235.515625 241.632812 238.675781 241.628906 241.839844 241.617188 C 242.335938 241.617188 242.859375 241.707031 243.304688 241.375 L 243.3125 241.371094 C 243.4375 241.34375 243.59375 241.296875 243.558594 241.152344 C 243.503906 240.90625 243.261719 240.898438 243.058594 240.859375 C 241.960938 240.109375 240.699219 240.441406 239.507812 240.320312 C 239.355469 240.261719 239.207031 240.191406 239.050781 240.148438 C 238.085938 239.863281 238.046875 239.808594 238.746094 239.132812 C 239.332031 238.5625 238.480469 238.628906 238.449219 238.34375 C 238.289062 238.328125 238.128906 238.3125 237.96875 238.300781 C 237.347656 237.707031 236.558594 237.839844 235.808594 237.800781 C 235.484375 237.78125 235.046875 237.84375 235.027344 237.371094 C 235.007812 236.9375 235.390625 236.851562 235.742188 236.820312 C 236.035156 236.796875 236.332031 236.808594 236.628906 236.808594 C 237.984375 236.796875 239.335938 236.8125 240.691406 236.765625 C 241.203125 236.75 242.035156 236.832031 242.015625 236.179688 C 242 235.617188 241.1875 235.792969 240.710938 235.789062 C 237.242188 235.773438 233.773438 235.78125 230.300781 235.78125 C 229.972656 235.773438 229.640625 235.769531 229.308594 235.761719 C 229.296875 235.683594 229.289062 235.609375 229.277344 235.535156 C 229.027344 235.507812 228.738281 235.515625 228.636719 235.226562 C 228.519531 234.886719 228.757812 234.667969 228.996094 234.484375 C 229.277344 234.265625 229.625 234.277344 229.964844 234.25 C 231.949219 234.085938 233.933594 233.914062 235.914062 233.746094 C 238.378906 233.882812 240.792969 233.347656 243.234375 233.234375 C 243.582031 233.214844 243.941406 233.179688 244 232.742188 C 244.058594 232.347656 243.8125 232.105469 243.492188 231.949219 C 242.800781 231.617188 242.070312 231.410156 241.289062 231.449219 C 240.84375 231.050781 240.183594 231.347656 239.730469 230.964844 C 239.605469 230.960938 239.476562 230.960938 239.351562 230.960938 C 238.675781 230.953125 237.898438 231.074219 238.113281 229.960938 C 238.132812 229.863281 238.035156 229.683594 237.945312 229.640625 C 237.289062 229.320312 237.554688 228.863281 237.675781 228.367188 C 237.960938 227.1875 237.761719 226.929688 236.535156 226.902344 C 234.796875 226.867188 233.058594 226.882812 231.324219 226.875 C 230.984375 226.875 230.644531 226.878906 230.308594 226.878906 C 228.542969 226.867188 226.796875 226.539062 225.027344 226.628906 C 224.285156 226.667969 223.640625 226.304688 223.046875 225.910156 C 222.597656 225.609375 222.65625 225.160156 223.140625 224.945312 C 223.484375 224.796875 223.898438 224.867188 224.210938 224.613281 C 224.210938 224.613281 224.210938 224.613281 224.210938 224.609375 C 225.535156 224.316406 226.894531 224.132812 228.230469 224.140625 C 231.574219 224.164062 234.902344 223.882812 238.242188 223.847656 C 239.257812 223.832031 240.273438 223.8125 241.269531 223.589844 C 241.316406 223.503906 241.332031 223.421875 241.320312 223.34375 C 241.390625 223.335938 241.460938 223.324219 241.53125 223.316406 C 241.90625 223.316406 242.285156 223.3125 242.660156 223.3125 C 242.667969 223.277344 242.671875 223.246094 242.679688 223.210938 C 242.6875 223.246094 242.699219 223.28125 242.710938 223.316406 C 243.332031 223.210938 243.960938 223.121094 244.578125 222.992188 C 244.859375 222.933594 245.207031 222.859375 245.160156 222.464844 C 245.121094 222.164062 244.832031 222.117188 244.582031 222.0625 C 242.777344 221.359375 240.882812 221.3125 238.988281 221.289062 C 238.5 220.957031 237.945312 221.046875 237.414062 221.058594 C 236.117188 221.085938 234.839844 221.003906 233.617188 220.542969 L 233.609375 220.539062 C 233.609375 220.460938 233.601562 220.378906 233.589844 220.300781 C 232.832031 220.296875 232.082031 219.84375 231.316406 220.269531 C 228.792969 220.035156 226.265625 219.914062 223.730469 219.992188 C 223.257812 219.746094 222.746094 219.804688 222.242188 219.800781 C 220.507812 219.785156 218.777344 219.777344 217.042969 219.765625 C 216.945312 219.589844 216.640625 219.597656 216.644531 219.289062 C 217.613281 219.003906 218.59375 218.753906 219.621094 218.753906 C 221.148438 218.757812 222.675781 218.777344 224.1875 218.496094 C 224.503906 218.433594 224.648438 218.199219 224.769531 217.929688 C 224.949219 217.523438 225.28125 217.304688 225.714844 217.238281 C 226.050781 217.238281 226.382812 217.238281 226.71875 217.238281 C 228.125 217.722656 229.570312 217.417969 230.996094 217.460938 C 231.164062 217.464844 231.34375 217.371094 231.355469 217.175781 C 231.367188 216.992188 231.230469 216.871094 231.058594 216.816406 C 230.5625 216.667969 230.050781 216.730469 229.542969 216.730469 C 229.582031 216.753906 229.621094 216.78125 229.664062 216.804688 C 229.621094 216.789062 229.578125 216.765625 229.542969 216.730469 C 229.039062 216.726562 228.53125 216.71875 228.027344 216.714844 C 227.652344 216.457031 227.226562 216.484375 226.804688 216.480469 C 226.003906 216.476562 225.203125 216.449219 224.402344 216.476562 C 223.578125 216.503906 222.949219 216.28125 222.5 215.519531 C 222.230469 215.066406 221.90625 214.59375 221.363281 214.375 C 221.289062 214.390625 221.21875 214.386719 221.144531 214.375 C 219.769531 214.03125 218.371094 214.253906 216.988281 214.222656 C 213.183594 214.132812 209.375 214.183594 205.570312 214.175781 C 205.121094 213.855469 204.597656 213.941406 204.097656 213.941406 C 201.191406 213.929688 198.277344 213.933594 195.371094 213.929688 C 193.730469 214.558594 191.933594 214.230469 190.28125 214.777344 C 187.136719 214.746094 184.011719 215.300781 180.863281 215.140625 C 180.007812 215.730469 178.957031 215.628906 178.027344 215.960938 C 177.265625 216.375 176.386719 216.25 175.578125 216.460938 C 174.933594 216.625 174.375 217.046875 173.648438 216.992188 C 172.167969 216.875 170.789062 217.5625 169.320312 217.613281 C 169.25 217.617188 169.179688 217.695312 169.109375 217.742188 C 168.769531 217.742188 168.429688 217.746094 168.089844 217.746094 C 167.875 217.894531 167.636719 217.964844 167.378906 217.96875 C 166.15625 217.992188 164.933594 218.023438 163.710938 218.039062 C 162.785156 218.046875 161.859375 218.003906 160.949219 218.242188 C 160.65625 218.320312 160.257812 218.4375 160.339844 218.757812 C 160.53125 219.476562 160.042969 220.054688 160.054688 220.726562 C 160.074219 221.746094 160.054688 221.75 159.058594 221.8125 C 158.847656 221.828125 158.636719 221.824219 158.425781 221.832031 C 158.410156 221.902344 158.394531 221.976562 158.386719 222.046875 C 157.75 222.417969 157.046875 222.308594 156.359375 222.324219 C 155.203125 222.742188 153.964844 222.5625 152.785156 222.824219 C 151.71875 222.925781 150.703125 222.710938 149.722656 222.3125 C 149.636719 222.316406 149.554688 222.316406 149.472656 222.316406 C 149.089844 222.625 148.574219 222.25 148.195312 222.570312 C 148.042969 222.746094 148.011719 222.945312 148.113281 223.148438 C 148.457031 223.824219 148.078125 223.992188 147.5 224.148438 C 146.632812 224.386719 145.757812 224.308594 144.886719 224.363281 C 144.339844 224.742188 143.601562 224.65625 143.078125 225.089844 C 142.097656 225.097656 141.296875 225.554688 140.542969 226.117188 C 138.597656 226.171875 136.808594 227.148438 134.835938 227.074219 C 134.617188 227.066406 134.386719 227.28125 134.164062 227.390625 C 134.082031 227.394531 134 227.394531 133.917969 227.398438 C 133.746094 227.398438 133.574219 227.398438 133.40625 227.394531 C 133.035156 227.59375 132.609375 227.769531 132.695312 228.304688 C 132.773438 228.761719 133.082031 229.03125 133.53125 229.140625 C 133.652344 229.167969 133.78125 229.167969 133.90625 229.179688 C 134.25 229.175781 134.59375 229.171875 134.9375 229.167969 C 135.019531 229.167969 135.101562 229.167969 135.183594 229.167969 C 136.28125 229.171875 137.34375 229.492188 138.453125 229.445312 C 139.886719 229.382812 141.324219 229.460938 142.761719 229.421875 C 144.527344 229.371094 146.296875 229.566406 148.070312 229.257812 C 148.613281 229.160156 149.230469 229.398438 149.796875 229.546875 C 150.105469 229.625 150.0625 229.925781 149.972656 230.179688 C 149.335938 230.207031 148.929688 230.421875 149.148438 231.167969 C 149.230469 231.457031 149.167969 231.734375 148.957031 231.964844 C 148.90625 231.953125 148.855469 231.941406 148.804688 231.929688 C 148.65625 231.875 148.5 231.839844 148.34375 231.816406 C 148.234375 231.816406 148.125 231.824219 148.015625 231.855469 C 147.589844 232.003906 147.121094 232.035156 146.742188 232.324219 C 146.71875 232.375 146.691406 232.425781 146.664062 232.476562 C 147.324219 232.917969 148.066406 232.683594 148.773438 232.726562 C 149.3125 232.757812 149.785156 232.828125 150.003906 233.414062 C 150.246094 234.070312 150.769531 234.273438 151.421875 234.25 C 152.480469 234.214844 153.542969 234.351562 154.597656 234.140625 C 154.808594 234.097656 155.019531 234.105469 155.050781 234.457031 C 154.617188 234.789062 154.078125 234.90625 153.539062 234.992188 C 151.15625 235.371094 148.765625 235.707031 146.390625 236.121094 C 145.628906 236.253906 144.875 236.28125 144.113281 236.289062 C 142.71875 236.507812 141.667969 237.554688 140.34375 237.949219 C 140.160156 237.933594 139.980469 237.953125 139.796875 238.070312 L 139.792969 238.082031 C 139.414062 238.53125 139.59375 238.855469 140.074219 239.007812 C 140.375 239.105469 140.722656 239.058594 141.050781 239.078125 C 141.785156 239.121094 141.960938 239.574219 141.875 240.207031 C 141.792969 240.792969 141.425781 241.195312 140.957031 241.511719 C 140.429688 241.871094 139.902344 242.25 139.683594 242.875 C 139.351562 243.828125 138.59375 244.085938 137.703125 244.152344 C 137.160156 244.195312 136.617188 244.175781 136.082031 244.355469 C 134.882812 244.761719 133.632812 244.949219 132.382812 245.125 C 132.292969 245.132812 132.203125 245.140625 132.113281 245.148438 C 132.03125 245.082031 131.953125 245.089844 131.882812 245.164062 C 131.792969 245.167969 131.707031 245.175781 131.617188 245.179688 C 131.433594 245.191406 131.269531 245.257812 131.117188 245.359375 C 130.933594 245.367188 130.753906 245.375 130.570312 245.386719 C 129.628906 245.046875 128.960938 246.003906 128.070312 245.914062 C 127.890625 245.925781 127.710938 245.933594 127.53125 245.945312 C 127.335938 246.175781 127.019531 245.984375 126.808594 246.152344 C 126.707031 246.15625 126.601562 246.160156 126.5 246.164062 C 126.417969 246.105469 126.339844 246.109375 126.269531 246.183594 L 126.246094 246.195312 C 126.054688 246.441406 125.699219 246.214844 125.5 246.453125 C 125.429688 246.527344 125.351562 246.59375 125.269531 246.652344 C 125.167969 246.65625 125.066406 246.664062 124.960938 246.667969 C 124.628906 246.558594 124.292969 246.5 123.96875 246.707031 C 123.886719 246.789062 123.804688 246.871094 123.714844 246.949219 L 123.703125 246.964844 C 123.566406 247.128906 123.566406 247.296875 123.699219 247.464844 L 123.71875 247.484375 C 123.804688 247.558594 123.882812 247.636719 123.957031 247.722656 L 123.972656 247.734375 C 124.21875 247.902344 124.464844 247.878906 124.714844 247.75 C 124.984375 247.742188 125.25 247.734375 125.515625 247.726562 C 126.234375 247.390625 127.121094 247.871094 127.777344 247.25 C 129.820312 246.898438 131.867188 246.546875 133.910156 246.195312 C 134.050781 246.082031 134.21875 246.050781 134.386719 246.074219 C 136.507812 246.367188 138.570312 245.710938 140.671875 245.667969 C 141.164062 245.65625 141.578125 245.472656 141.851562 245.039062 C 141.855469 245.023438 141.859375 245.007812 141.867188 244.992188 C 142.085938 245.210938 142.589844 245.078125 142.621094 245.539062 C 142.351562 245.925781 141.84375 245.882812 141.5625 246.195312 C 140.480469 246.378906 139.398438 246.542969 138.324219 246.757812 C 137.542969 246.914062 137.183594 247.351562 137.261719 247.933594 C 137.332031 248.421875 137.808594 248.703125 138.558594 248.632812 C 139.316406 248.566406 140.066406 248.449219 140.816406 248.351562 C 142.402344 248.152344 143.988281 247.9375 145.578125 247.75 C 146.171875 247.679688 146.746094 247.734375 147.269531 248.109375 C 147.53125 248.296875 147.886719 248.363281 148.199219 248.484375 C 148.203125 248.566406 148.207031 248.648438 148.214844 248.726562 C 149.695312 248.6875 151.144531 249.109375 152.625 249.023438 C 152.789062 249.015625 152.964844 249.050781 153.125 249.097656 C 153.542969 249.222656 153.695312 249.4375 153.359375 249.820312 C 153.078125 250.132812 152.8125 250.457031 152.539062 250.773438 C 152.445312 250.851562 152.351562 250.929688 152.257812 251.007812 C 152 251.171875 151.738281 251.335938 151.480469 251.503906 C 150.382812 251.566406 149.308594 251.90625 148.195312 251.792969 C 147.835938 252.085938 147.394531 252.015625 146.976562 252.0625 C 146.675781 252.097656 146.347656 252.15625 146.332031 252.535156 C 146.316406 252.925781 146.652344 253.019531 146.949219 253.027344 C 147.625 253.039062 148.304688 253.019531 148.980469 252.980469 C 149.382812 252.957031 149.9375 252.667969 150.042969 253.257812 C 150.140625 253.839844 149.492188 253.75 149.128906 253.902344 C 148.417969 254.210938 147.589844 253.875 146.90625 254.320312 C 146.824219 254.320312 146.746094 254.324219 146.664062 254.328125 C 145.980469 254.378906 145.261719 254.164062 144.621094 254.578125 L 144.617188 254.578125 C 143.851562 254.648438 143.046875 254.398438 142.320312 254.828125 C 142.039062 254.84375 141.730469 254.800781 141.5 254.984375 C 141.238281 255.195312 141.125 255.4375 141.554688 255.609375 C 142.371094 256.054688 143.261719 255.761719 144.109375 255.859375 C 144.109375 255.855469 144.109375 255.851562 144.113281 255.847656 C 144.113281 255.851562 144.113281 255.851562 144.117188 255.851562 C 144.117188 255.851562 144.109375 255.859375 144.109375 255.859375 C 144.195312 255.945312 144.28125 256.027344 144.363281 256.109375 L 144.375 256.101562 C 144.375 256.101562 144.378906 256.101562 144.378906 256.105469 C 144.371094 256.105469 144.367188 256.109375 144.363281 256.109375 C 144.40625 256.449219 144.566406 256.710938 144.871094 256.878906 C 144.875 256.960938 144.878906 257.042969 144.882812 257.125 C 145.117188 257.128906 145.355469 257.128906 145.59375 257.132812 C 145.585938 257.148438 145.578125 257.164062 145.570312 257.179688 C 145.605469 257.242188 145.636719 257.304688 145.671875 257.363281 C 145.832031 257.367188 145.992188 257.371094 146.15625 257.378906 C 148.53125 257.375 150.910156 257.375 153.289062 257.371094 C 153.332031 257.285156 153.347656 257.203125 153.332031 257.125 C 153.402344 257.125 153.476562 257.121094 153.546875 257.121094 C 155.363281 257.121094 157.179688 257.136719 158.996094 257.109375 C 159.496094 257.101562 160.160156 257.257812 160.144531 256.363281 C 160.140625 256.140625 160.453125 256.117188 160.664062 256.117188 C 161.761719 256.105469 162.828125 255.746094 163.9375 255.847656 C 164.316406 255.882812 164.703125 255.855469 165.023438 255.601562 C 166.3125 255.71875 167.5625 255.253906 168.851562 255.355469 C 169.613281 255.253906 170.417969 255.511719 171.148438 255.101562 C 173.59375 255.152344 176.03125 254.921875 178.472656 254.863281 C 179.664062 254.832031 180.859375 254.824219 182.050781 254.828125 C 183.230469 255.160156 184.554688 255.25 185.808594 254.835938 C 186.019531 254.835938 186.230469 254.839844 186.441406 254.839844 C 186.441406 254.753906 186.441406 254.667969 186.441406 254.582031 C 187.109375 254.503906 187.914062 254.851562 188.320312 253.953125 C 188.363281 253.859375 188.628906 253.828125 188.789062 253.835938 C 191.070312 253.917969 193.332031 253.394531 195.621094 253.570312 C 197.214844 253.21875 198.835938 253.386719 200.445312 253.300781 C 200.464844 253.371094 200.5 253.445312 200.554688 253.53125 C 201.023438 253.941406 201.589844 253.894531 202.125 253.808594 C 205.664062 253.226562 209.253906 253.136719 212.8125 252.992188 C 217.371094 252.808594 221.9375 252.5 226.507812 252.675781 C 226.757812 252.683594 227.019531 252.722656 227.238281 252.542969 C 229.019531 252.542969 230.804688 252.351562 232.574219 252.351562 C 237.332031 252.34375 242.078125 252.039062 246.832031 252.003906 C 248.203125 251.992188 249.621094 251.953125 250.972656 251.554688 C 251.21875 251.542969 251.464844 251.535156 251.710938 251.527344 C 251.730469 251.164062 251.753906 250.800781 251.480469 250.503906 " fill-opacity="1" fill-rule="nonzero"></path></g><path fill="#fcca29" d="M 137.179688 233.363281 C 137.507812 233.328125 137.773438 233.222656 137.726562 232.714844 C 137.675781 232.195312 137.417969 232.21875 137.070312 232.226562 C 135.332031 232.265625 133.652344 232.675781 131.964844 233.011719 C 131.855469 233.03125 131.769531 233.144531 131.464844 233.367188 C 133.523438 233.824219 135.355469 233.570312 137.179688 233.363281 " fill-opacity="1" fill-rule="nonzero"></path><g clip-path="url(#8a49aa9307)"><path fill="#fcca29" d="M 257.769531 298.363281 C 256.617188 298.113281 255.464844 297.867188 254.273438 297.867188 C 252.304688 297.859375 250.351562 297.589844 248.394531 297.449219 C 245.371094 297.238281 242.355469 296.964844 239.324219 296.839844 C 235.800781 297.117188 232.253906 296.363281 228.742188 297.105469 C 228.527344 297.148438 228.292969 297.09375 228.066406 297.070312 C 227.457031 297.003906 226.863281 297.234375 226.308594 297.75 C 226.03125 298.007812 225.535156 297.691406 225.273438 298.136719 C 225.753906 298.210938 226.195312 298.289062 226.640625 298.351562 C 227.425781 298.460938 228.296875 298.992188 228.804688 297.808594 C 228.9375 297.492188 229.355469 297.65625 229.519531 297.871094 C 230.144531 298.675781 231.011719 298.554688 231.851562 298.558594 C 233.542969 298.5625 235.234375 298.558594 236.925781 298.554688 C 236.925781 298.554688 236.925781 298.554688 236.925781 298.558594 C 237.039062 298.558594 237.152344 298.558594 237.261719 298.5625 C 237.261719 298.671875 237.265625 298.785156 237.265625 298.894531 C 238.84375 298.898438 240.421875 298.898438 242 298.902344 C 242.105469 298.910156 242.214844 298.914062 242.324219 298.917969 C 242.332031 298.917969 242.339844 298.917969 242.347656 298.917969 C 242.324219 298.992188 242.308594 299.074219 242.296875 299.164062 C 242.832031 299.632812 243.476562 299.398438 244.066406 299.398438 C 248.601562 299.410156 253.125 299.578125 257.625 300.21875 C 257.726562 300.171875 257.828125 300.121094 257.929688 300.074219 C 258.328125 299.902344 258.871094 299.851562 258.847656 299.246094 C 258.824219 298.582031 258.25 298.464844 257.769531 298.363281 " fill-opacity="1" fill-rule="nonzero"></path></g><g clip-path="url(#dd20974eec)"><path fill="#fcca29" d="M 266.121094 289.964844 C 266.125 289.964844 266.125 289.964844 266.125 289.964844 C 266.125 289.964844 266.125 289.964844 266.121094 289.964844 Z M 266.195312 289.941406 C 266.480469 289.84375 266.746094 289.6875 266.988281 289.4375 C 266.753906 289.699219 266.484375 289.855469 266.195312 289.941406 Z M 258.003906 290.210938 C 251.363281 290.199219 244.742188 290.832031 238.101562 290.625 C 237.570312 290.605469 236.988281 290.800781 236.425781 290.292969 C 237.140625 289.722656 237.941406 289.835938 238.691406 289.832031 C 242.628906 289.804688 246.570312 289.78125 250.511719 289.828125 C 255.101562 289.886719 259.699219 289.613281 264.292969 290.027344 C 262.1875 289.984375 260.089844 290.214844 258.003906 290.210938 Z M 139.507812 291.484375 C 139.507812 291.492188 139.503906 291.503906 139.5 291.515625 C 139.46875 291.46875 139.4375 291.417969 139.40625 291.371094 C 139.40625 291.371094 139.507812 291.484375 139.507812 291.484375 Z M 135.429688 271.472656 C 135.132812 271.496094 134.820312 271.515625 134.484375 271.464844 C 134.804688 271.476562 135.117188 271.476562 135.429688 271.472656 Z M 144.492188 270.410156 C 147.5625 270.046875 150.609375 269.328125 153.390625 269.84375 C 152.523438 269.992188 151.292969 269.414062 150.089844 269.910156 C 149.441406 270.050781 148.78125 270.101562 148.121094 270.117188 C 147.417969 270.253906 146.699219 270.230469 145.988281 270.304688 C 145.367188 270.347656 144.769531 270.492188 144.191406 270.714844 C 143.933594 270.792969 143.667969 270.820312 143.402344 270.824219 C 143.035156 270.832031 142.664062 270.832031 142.292969 270.84375 C 141.878906 270.859375 141.539062 271.007812 141.363281 271.417969 C 141.359375 271.472656 141.363281 271.523438 141.371094 271.570312 C 141.042969 271.269531 140.640625 271.175781 140.195312 271.199219 C 139.550781 271.3125 138.898438 271.101562 138.253906 271.273438 C 137.789062 271.375 137.347656 271.519531 137.121094 271.988281 C 137.121094 271.96875 137.117188 271.949219 137.113281 271.929688 C 136.867188 271.582031 136.574219 271.464844 136.25 271.4375 C 139.136719 271.246094 141.765625 270.40625 144.492188 270.410156 Z M 121.636719 259.96875 C 123.152344 259.4375 124.6875 259.359375 126.097656 258.792969 C 126.1875 258.710938 126.257812 258.609375 126.308594 258.5 C 126.800781 259.285156 127.691406 259.089844 128.421875 259.289062 C 130.5 258.960938 132.574219 259.328125 134.648438 259.277344 C 135.878906 259.246094 137.109375 259.121094 138.347656 259.199219 C 138.871094 259.230469 139.40625 258.925781 139.449219 258.347656 C 139.5 257.652344 138.890625 257.597656 138.382812 257.578125 C 137.539062 257.546875 136.71875 257.257812 136.210938 257.347656 C 138.308594 256.75 140.777344 256.242188 143.285156 255.984375 C 145.507812 255.753906 147.765625 255.84375 149.933594 255.191406 C 149.957031 255.140625 149.976562 255.09375 149.992188 255.046875 C 150.167969 255.207031 150.378906 255.238281 150.609375 255.179688 C 150.613281 255.175781 150.617188 255.171875 150.621094 255.167969 C 150.625 255.226562 150.625 255.28125 150.625 255.339844 C 151.214844 255.363281 151.757812 255.488281 151.902344 256.171875 C 152.058594 256.90625 151.367188 257.011719 150.988281 257.351562 C 150.941406 257.261719 150.878906 257.179688 150.800781 257.113281 C 149.691406 256.617188 148.753906 257.0625 147.808594 257.617188 C 145.871094 258.746094 143.769531 259.457031 141.59375 259.96875 C 141.109375 260.121094 140.597656 260.191406 140.152344 260.441406 C 140.148438 260.441406 140.140625 260.441406 140.136719 260.441406 C 140.015625 260.332031 139.902344 260.332031 139.789062 260.453125 L 139.78125 260.460938 C 139.785156 260.582031 139.792969 260.699219 139.800781 260.820312 C 139.804688 260.820312 139.804688 260.820312 139.808594 260.820312 C 139.800781 260.835938 139.796875 260.847656 139.789062 260.859375 C 139.769531 260.753906 139.746094 260.644531 139.714844 260.527344 C 139.503906 260.355469 139.261719 260.226562 139.003906 260.132812 C 133.242188 259.832031 127.476562 260.148438 121.636719 259.96875 Z M 196.207031 244.039062 C 196.226562 244.039062 196.242188 244.039062 196.261719 244.039062 C 196.1875 244.058594 196.117188 244.082031 196.046875 244.105469 C 196.054688 244.070312 196.09375 244.046875 196.207031 244.039062 Z M 224.992188 243.382812 C 224.382812 243.519531 223.9375 243.585938 224.023438 244.023438 C 223.878906 243.96875 223.730469 243.90625 223.585938 243.835938 C 223.304688 243.667969 223.003906 243.605469 222.675781 243.65625 C 222.515625 243.699219 222.359375 243.734375 222.199219 243.765625 C 221.542969 243.457031 220.785156 243.6875 220.082031 243.632812 C 220.472656 243.613281 220.855469 243.542969 221.222656 243.332031 C 221.242188 243.316406 221.261719 243.296875 221.28125 243.28125 C 222.4375 243.3125 223.613281 243.472656 224.992188 243.382812 Z M 233.929688 255.304688 C 233.9375 255.320312 233.941406 255.332031 233.949219 255.347656 C 233.921875 255.347656 233.898438 255.347656 233.875 255.347656 C 233.894531 255.332031 233.910156 255.320312 233.929688 255.304688 Z M 244.019531 258.761719 C 244.019531 258.761719 244.015625 258.761719 244.015625 258.761719 C 244.015625 258.757812 244.019531 258.75 244.023438 258.746094 C 244.023438 258.75 244.023438 258.757812 244.019531 258.761719 Z M 207.445312 243.613281 C 207.527344 243.613281 207.609375 243.613281 207.6875 243.613281 C 208.171875 243.613281 208.664062 243.613281 209.148438 243.613281 C 209.160156 243.613281 209.167969 243.613281 209.175781 243.613281 C 208.597656 243.613281 208.023438 243.613281 207.445312 243.613281 Z M 216.714844 243.613281 C 217.394531 243.613281 218.070312 243.609375 218.746094 243.605469 C 218.882812 243.605469 219.019531 243.609375 219.15625 243.613281 C 218.339844 243.613281 217.527344 243.613281 216.714844 243.613281 Z M 194.210938 246.921875 C 195.101562 247.011719 195.996094 247.03125 196.886719 247.027344 C 196.875 247.027344 196.859375 247.027344 196.84375 247.027344 C 195.859375 247.039062 194.882812 247.101562 193.914062 247.179688 C 193.945312 247.105469 193.933594 246.996094 193.855469 246.84375 C 193.878906 246.84375 193.90625 246.84375 193.929688 246.84375 C 194.023438 246.867188 194.117188 246.894531 194.210938 246.921875 Z M 189.539062 247.597656 C 190.417969 247.492188 191.34375 247.363281 192.285156 247.332031 C 191.351562 247.429688 190.433594 247.523438 189.539062 247.597656 Z M 227.160156 253.28125 C 227.144531 253.273438 227.125 253.265625 227.109375 253.253906 C 227.109375 253.246094 227.109375 253.238281 227.109375 253.226562 C 227.132812 253.242188 227.160156 253.253906 227.183594 253.265625 C 227.175781 253.269531 227.167969 253.277344 227.160156 253.28125 Z M 229.476562 252.628906 Z M 229.582031 252.730469 C 229.585938 252.734375 229.59375 252.738281 229.601562 252.742188 C 229.640625 252.773438 229.675781 252.800781 229.714844 252.828125 C 229.667969 252.800781 229.621094 252.765625 229.582031 252.730469 Z M 201.308594 247.03125 C 201.09375 247.046875 200.875 247.035156 200.652344 247.015625 C 200.984375 247.015625 201.3125 247.015625 201.644531 247.015625 C 201.535156 247.019531 201.421875 247.023438 201.308594 247.03125 Z M 203.929688 246.648438 C 204.074219 246.75 204.21875 246.808594 204.359375 246.835938 C 203.78125 246.996094 203.179688 247.011719 202.578125 247.011719 C 202.726562 247.007812 202.875 247.007812 203.023438 246.996094 C 203.308594 246.984375 203.546875 246.878906 203.75 246.675781 C 203.753906 246.671875 203.757812 246.664062 203.761719 246.660156 C 203.816406 246.65625 203.871094 246.652344 203.929688 246.648438 Z M 167.710938 257.429688 C 167.710938 257.441406 167.710938 257.453125 167.710938 257.46875 C 167.710938 257.457031 167.710938 257.441406 167.707031 257.429688 C 167.710938 257.429688 167.710938 257.429688 167.710938 257.429688 Z M 197.882812 247.019531 C 198.40625 247.011719 198.929688 247.003906 199.453125 247.003906 C 199.191406 247.054688 198.933594 247.15625 198.695312 247.355469 C 198.683594 247.355469 198.671875 247.355469 198.65625 247.355469 C 198.621094 247.359375 198.585938 247.363281 198.550781 247.367188 C 198.355469 247.152344 198.125 247.054688 197.882812 247.019531 Z M 245.550781 264.695312 C 247.035156 265.414062 248.609375 264.898438 250.136719 265.027344 C 250.25 265.003906 250.359375 264.96875 250.464844 264.929688 C 250.523438 264.960938 250.582031 264.992188 250.648438 265.015625 C 251.039062 265.0625 251.421875 265.175781 251.816406 265.207031 C 251.816406 265.285156 251.816406 265.363281 251.816406 265.441406 C 251.78125 265.476562 251.753906 265.515625 251.730469 265.558594 C 248.894531 265.546875 246.042969 265.714844 243.023438 264.984375 C 243.210938 264.734375 243.523438 264.605469 244.058594 264.691406 C 244.472656 264.757812 244.933594 264.761719 245.28125 264.40625 C 245.316406 264.339844 245.351562 264.269531 245.386719 264.203125 C 245.460938 264.167969 245.539062 264.140625 245.621094 264.121094 C 245.554688 264.328125 245.527344 264.527344 245.550781 264.695312 Z M 248.347656 252.457031 C 246.347656 252.449219 244.351562 252.429688 242.355469 252.523438 C 241.582031 252.558594 240.761719 252.640625 240.085938 252.09375 C 240.023438 252.042969 239.960938 251.996094 239.894531 251.953125 C 239.953125 251.925781 239.988281 251.878906 239.996094 251.808594 C 240.511719 252.453125 241.269531 252.367188 241.960938 252.359375 C 244.089844 252.328125 246.21875 252.433594 248.347656 252.457031 Z M 272.140625 290.035156 C 272.027344 289.925781 271.914062 289.8125 271.800781 289.703125 L 271.777344 289.726562 C 271.773438 289.726562 271.773438 289.726562 271.773438 289.726562 C 271.78125 289.71875 271.792969 289.710938 271.800781 289.703125 C 271.582031 289.582031 271.359375 289.464844 271.136719 289.34375 C 271.128906 289.242188 271.117188 289.140625 271.105469 289.035156 C 270.339844 288.671875 269.214844 288.972656 268.765625 287.875 C 269.285156 287.566406 269.746094 287.667969 270.1875 287.660156 C 271.148438 287.648438 271.324219 287.132812 271.097656 286.320312 C 271.054688 286.269531 271.011719 286.21875 270.972656 286.167969 C 270.777344 286.136719 270.574219 286.132812 270.425781 285.980469 C 270.425781 285.980469 270.421875 285.980469 270.425781 285.980469 C 269.734375 285.933594 269.011719 286.085938 268.386719 285.640625 C 267.714844 285.632812 267.046875 285.625 266.375 285.621094 C 264.804688 285.617188 263.234375 285.609375 261.664062 285.605469 C 261.652344 285.628906 261.644531 285.648438 261.632812 285.667969 C 261.625 285.664062 261.617188 285.660156 261.609375 285.65625 C 261.609375 285.652344 261.664062 285.605469 261.664062 285.605469 C 261.640625 285.507812 261.625 285.40625 261.609375 285.304688 C 260.597656 285.304688 259.585938 285.289062 258.574219 285.304688 C 253.003906 285.402344 247.453125 284.792969 241.882812 284.910156 C 241.253906 284.921875 240.257812 285.03125 240.261719 284.171875 C 240.269531 283.382812 241.214844 283.382812 241.894531 283.375 C 246.105469 283.328125 250.304688 282.800781 254.523438 282.921875 C 256.5625 282.902344 258.574219 282.398438 260.625 282.585938 C 260.734375 282.695312 260.84375 282.699219 260.949219 282.578125 C 261.40625 282.578125 261.859375 282.582031 262.316406 282.582031 C 262.425781 282.699219 262.53125 282.699219 262.640625 282.582031 C 262.953125 282.453125 263.277344 282.351562 263.574219 282.195312 C 264.351562 281.773438 264.371094 281.320312 263.605469 280.867188 C 262.96875 280.496094 262.261719 280.300781 261.535156 280.191406 C 259.988281 279.957031 258.4375 279.738281 256.890625 279.511719 C 255.5 279.507812 254.109375 279.507812 252.722656 279.5 C 251.054688 279.492188 249.421875 279.066406 247.742188 279.113281 C 247.242188 279.125 246.535156 279.050781 246.753906 278.164062 C 250.953125 278.15625 255.148438 278.152344 259.34375 278.136719 C 260.007812 278.136719 260.695312 278.257812 261.289062 277.8125 L 261.296875 277.804688 C 261.464844 277.769531 261.671875 277.710938 261.628906 277.515625 C 261.550781 277.1875 261.234375 277.171875 260.960938 277.121094 C 259.503906 276.117188 257.832031 276.5625 256.25 276.402344 C 256.046875 276.324219 255.847656 276.230469 255.640625 276.167969 C 254.363281 275.789062 254.3125 275.71875 255.238281 274.808594 C 256.015625 274.046875 254.882812 274.132812 254.84375 273.75 C 254.632812 273.734375 254.421875 273.710938 254.210938 273.695312 C 253.382812 272.902344 252.335938 273.082031 251.335938 273.023438 C 250.90625 273.003906 250.328125 273.085938 250.300781 272.453125 C 250.273438 271.871094 250.785156 271.757812 251.25 271.714844 C 251.636719 271.683594 252.035156 271.699219 252.425781 271.695312 C 254.226562 271.683594 256.023438 271.703125 257.820312 271.640625 C 258.5 271.621094 259.601562 271.726562 259.578125 270.855469 C 259.554688 270.105469 258.480469 270.335938 257.847656 270.332031 C 253.242188 270.3125 248.636719 270.324219 244.027344 270.324219 C 243.589844 270.3125 243.152344 270.304688 242.710938 270.296875 C 242.710938 270.296875 242.710938 270.296875 242.710938 270.292969 C 242.699219 270.195312 242.683594 270.09375 242.667969 269.992188 C 242.335938 269.953125 241.953125 269.96875 241.820312 269.582031 C 241.664062 269.125 241.980469 268.832031 242.296875 268.585938 C 242.671875 268.292969 243.132812 268.308594 243.585938 268.269531 C 246.21875 268.050781 248.847656 267.824219 251.480469 267.597656 C 254.75 267.78125 257.953125 267.0625 261.199219 266.910156 C 261.65625 266.886719 262.132812 266.839844 262.214844 266.25 C 262.289062 265.722656 261.964844 265.398438 261.539062 265.191406 C 260.617188 264.746094 259.652344 264.46875 258.617188 264.519531 C 258.023438 263.988281 257.144531 264.382812 256.546875 263.871094 C 256.378906 263.871094 256.207031 263.867188 256.039062 263.867188 C 255.144531 263.855469 254.113281 264.023438 254.398438 262.527344 C 254.421875 262.398438 254.296875 262.15625 254.175781 262.097656 C 253.304688 261.671875 253.65625 261.0625 253.816406 260.394531 C 254.195312 258.816406 253.929688 258.46875 252.300781 258.433594 C 249.996094 258.386719 247.691406 258.40625 245.386719 258.398438 C 244.933594 258.398438 244.484375 258.402344 244.039062 258.402344 C 241.699219 258.390625 239.378906 257.949219 237.03125 258.070312 C 236.042969 258.121094 235.1875 257.632812 234.398438 257.105469 C 233.800781 256.703125 233.878906 256.101562 234.527344 255.816406 C 234.980469 255.613281 235.53125 255.710938 235.945312 255.367188 C 237.703125 254.96875 239.503906 254.726562 241.28125 254.738281 C 245.71875 254.765625 250.136719 254.390625 254.570312 254.339844 C 255.917969 254.324219 257.261719 254.292969 258.589844 253.996094 C 258.652344 253.882812 258.671875 253.773438 258.65625 253.667969 C 258.75 253.65625 258.84375 253.644531 258.933594 253.632812 C 259.433594 253.628906 259.933594 253.628906 260.433594 253.625 C 260.441406 253.582031 260.449219 253.535156 260.457031 253.488281 C 260.472656 253.535156 260.484375 253.582031 260.5 253.632812 C 261.328125 253.488281 262.160156 253.367188 262.980469 253.199219 C 263.351562 253.121094 263.8125 253.019531 263.75 252.488281 C 263.703125 252.089844 263.316406 252.027344 262.984375 251.957031 C 260.589844 251.011719 258.078125 250.953125 255.558594 250.917969 C 254.910156 250.472656 254.171875 250.589844 253.46875 250.605469 C 251.75 250.644531 250.054688 250.539062 248.429688 249.917969 L 248.421875 249.914062 C 248.417969 249.808594 248.410156 249.703125 248.394531 249.597656 C 247.390625 249.585938 246.390625 248.980469 245.378906 249.554688 C 242.027344 249.238281 238.671875 249.078125 235.308594 249.183594 C 234.679688 248.851562 234 248.929688 233.328125 248.925781 C 231.03125 248.902344 228.734375 248.894531 226.433594 248.878906 C 226.304688 248.640625 225.894531 248.652344 225.902344 248.238281 C 227.1875 247.855469 228.492188 247.519531 229.855469 247.523438 C 231.878906 247.527344 233.90625 247.554688 235.910156 247.175781 C 236.335938 247.09375 236.527344 246.78125 236.6875 246.417969 C 236.925781 245.875 237.363281 245.582031 237.941406 245.492188 C 238.386719 245.492188 238.832031 245.492188 239.277344 245.496094 C 241.136719 246.140625 243.058594 245.734375 244.949219 245.789062 C 245.175781 245.796875 245.410156 245.671875 245.425781 245.40625 C 245.441406 245.160156 245.261719 245 245.03125 244.929688 C 244.375 244.730469 243.695312 244.8125 243.023438 244.816406 C 243.074219 244.847656 243.128906 244.878906 243.183594 244.914062 C 243.125 244.890625 243.070312 244.859375 243.023438 244.816406 C 242.351562 244.808594 241.679688 244.796875 241.007812 244.792969 C 240.515625 244.449219 239.945312 244.484375 239.390625 244.480469 C 238.328125 244.472656 237.261719 244.433594 236.199219 244.472656 C 235.109375 244.511719 234.269531 244.210938 233.675781 243.191406 C 233.316406 242.585938 232.882812 241.953125 232.164062 241.660156 C 232.066406 241.679688 231.96875 241.675781 231.875 241.660156 C 230.050781 241.199219 228.195312 241.5 226.359375 241.457031 C 221.308594 241.335938 216.253906 241.402344 211.203125 241.394531 C 210.605469 240.964844 209.914062 241.078125 209.25 241.078125 C 205.386719 241.066406 201.523438 241.066406 197.660156 241.0625 C 195.488281 241.902344 193.101562 241.46875 190.910156 242.195312 C 186.734375 242.15625 182.589844 242.898438 178.40625 242.6875 C 177.269531 243.472656 175.875 243.339844 174.644531 243.785156 C 173.628906 244.335938 172.46875 244.171875 171.390625 244.453125 C 170.535156 244.671875 169.796875 245.238281 168.832031 245.160156 C 166.863281 245.007812 165.035156 245.925781 163.085938 245.996094 C 162.988281 246 162.898438 246.109375 162.800781 246.167969 C 162.351562 246.167969 161.902344 246.171875 161.453125 246.171875 C 161.167969 246.371094 160.851562 246.464844 160.507812 246.472656 C 158.882812 246.503906 157.261719 246.546875 155.640625 246.5625 C 154.410156 246.578125 153.179688 246.515625 151.976562 246.839844 C 151.582031 246.941406 151.054688 247.101562 151.167969 247.53125 C 151.417969 248.492188 150.769531 249.261719 150.785156 250.160156 C 150.8125 251.53125 150.785156 251.535156 149.464844 251.621094 C 149.183594 251.640625 148.902344 251.636719 148.621094 251.644531 C 148.601562 251.738281 148.585938 251.835938 148.570312 251.933594 C 147.726562 252.429688 146.792969 252.28125 145.882812 252.304688 C 144.347656 252.859375 142.699219 252.621094 141.136719 252.972656 C 139.71875 253.109375 138.375 252.820312 137.070312 252.285156 C 136.960938 252.289062 136.847656 252.292969 136.738281 252.292969 C 136.234375 252.703125 135.546875 252.207031 135.042969 252.632812 C 134.84375 252.867188 134.800781 253.136719 134.933594 253.40625 C 135.390625 254.3125 134.890625 254.535156 134.121094 254.746094 C 132.972656 255.0625 131.8125 254.960938 130.65625 255.035156 C 129.925781 255.539062 128.949219 255.425781 128.25 256.003906 C 126.949219 256.019531 125.886719 256.628906 124.886719 257.382812 C 122.304688 257.457031 119.929688 258.765625 117.3125 258.664062 C 117.023438 258.652344 116.71875 258.941406 116.421875 259.089844 C 116.308594 259.089844 116.203125 259.09375 116.089844 259.097656 C 115.867188 259.097656 115.640625 259.09375 115.414062 259.09375 C 114.917969 259.359375 114.355469 259.59375 114.472656 260.3125 C 114.574219 260.921875 114.984375 261.285156 115.578125 261.429688 C 115.742188 261.46875 115.910156 261.46875 116.078125 261.484375 C 116.535156 261.480469 116.992188 261.472656 117.445312 261.46875 C 117.554688 261.46875 117.664062 261.464844 117.773438 261.464844 C 119.226562 261.472656 120.640625 261.902344 122.113281 261.835938 C 124.019531 261.753906 125.925781 261.859375 127.832031 261.804688 C 130.175781 261.742188 132.527344 262 134.875 261.585938 C 135.597656 261.457031 136.417969 261.773438 137.167969 261.972656 C 137.582031 262.082031 137.523438 262.480469 137.40625 262.824219 C 136.558594 262.859375 136.023438 263.144531 136.308594 264.144531 C 136.417969 264.535156 136.335938 264.902344 136.058594 265.214844 C 135.988281 265.199219 135.921875 265.179688 135.855469 265.164062 C 135.65625 265.09375 135.449219 265.042969 135.242188 265.015625 C 135.09375 265.011719 134.949219 265.027344 134.808594 265.066406 C 134.238281 265.261719 133.617188 265.308594 133.117188 265.691406 C 133.082031 265.761719 133.046875 265.832031 133.011719 265.898438 C 133.886719 266.484375 134.875 266.171875 135.8125 266.230469 C 136.527344 266.273438 137.152344 266.371094 137.441406 267.15625 C 137.765625 268.03125 138.464844 268.300781 139.328125 268.273438 C 140.734375 268.226562 142.144531 268.410156 143.542969 268.125 C 143.824219 268.066406 144.105469 268.078125 144.144531 268.550781 C 143.566406 268.996094 142.855469 269.152344 142.140625 269.269531 C 138.976562 269.773438 135.800781 270.222656 132.648438 270.777344 C 131.636719 270.957031 130.636719 270.992188 129.628906 271 C 127.773438 271.292969 126.378906 272.699219 124.625 273.226562 C 124.382812 273.203125 124.140625 273.230469 123.898438 273.386719 C 123.898438 273.390625 123.898438 273.390625 123.898438 273.390625 L 123.890625 273.402344 C 123.386719 274.007812 123.628906 274.441406 124.261719 274.644531 C 124.664062 274.773438 125.125 274.710938 125.558594 274.734375 C 126.535156 274.792969 126.773438 275.402344 126.65625 276.25 C 126.542969 277.035156 126.058594 277.570312 125.4375 277.996094 C 124.738281 278.480469 124.039062 278.984375 123.746094 279.820312 C 123.304688 281.097656 122.300781 281.441406 121.121094 281.535156 C 120.398438 281.589844 119.675781 281.558594 118.964844 281.804688 C 117.375 282.34375 115.714844 282.597656 114.058594 282.835938 C 113.9375 282.84375 113.816406 282.855469 113.695312 282.863281 C 113.589844 282.773438 113.484375 282.789062 113.390625 282.886719 C 113.273438 282.894531 113.15625 282.898438 113.039062 282.90625 C 112.792969 282.921875 112.578125 283.011719 112.375 283.148438 C 112.132812 283.160156 111.894531 283.171875 111.652344 283.183594 C 110.402344 282.730469 109.515625 284.007812 108.332031 283.886719 C 108.09375 283.902344 107.855469 283.917969 107.613281 283.933594 C 107.355469 284.242188 106.9375 283.984375 106.65625 284.210938 C 106.519531 284.214844 106.382812 284.21875 106.25 284.226562 C 106.140625 284.144531 106.035156 284.152344 105.9375 284.25 L 105.914062 284.265625 C 105.65625 284.59375 105.183594 284.292969 104.921875 284.613281 L 104.917969 284.613281 C 104.824219 284.710938 104.726562 284.800781 104.617188 284.878906 C 104.480469 284.886719 104.34375 284.890625 104.207031 284.898438 C 103.761719 284.753906 103.316406 284.671875 102.890625 284.949219 L 102.886719 284.953125 C 102.78125 285.0625 102.667969 285.171875 102.550781 285.277344 L 102.53125 285.296875 C 102.355469 285.515625 102.355469 285.742188 102.527344 285.964844 L 102.554688 285.992188 C 102.667969 286.09375 102.773438 286.199219 102.875 286.3125 L 102.894531 286.328125 C 103.214844 286.554688 103.546875 286.523438 103.878906 286.347656 C 104.234375 286.335938 104.589844 286.328125 104.941406 286.316406 C 105.894531 285.867188 107.074219 286.511719 107.941406 285.679688 C 110.65625 285.210938 113.371094 284.738281 116.085938 284.269531 C 116.269531 284.113281 116.492188 284.074219 116.714844 284.105469 C 119.535156 284.5 122.269531 283.617188 125.0625 283.558594 C 125.710938 283.542969 126.261719 283.300781 126.621094 282.714844 C 126.628906 282.695312 126.636719 282.679688 126.644531 282.65625 C 126.9375 282.949219 127.605469 282.769531 127.644531 283.386719 C 127.285156 283.90625 126.617188 283.847656 126.238281 284.265625 C 124.804688 284.515625 123.367188 284.730469 121.941406 285.019531 C 120.902344 285.226562 120.425781 285.816406 120.53125 286.597656 C 120.621094 287.25 121.257812 287.621094 122.257812 287.53125 C 123.257812 287.4375 124.253906 287.285156 125.25 287.15625 C 127.359375 286.886719 129.460938 286.597656 131.570312 286.347656 C 132.359375 286.253906 133.117188 286.328125 133.816406 286.828125 C 134.164062 287.082031 134.632812 287.171875 135.046875 287.332031 C 135.054688 287.441406 135.0625 287.550781 135.074219 287.65625 C 137.035156 287.605469 138.957031 288.167969 140.925781 288.054688 C 141.144531 288.042969 141.375 288.089844 141.585938 288.152344 C 142.140625 288.316406 142.347656 288.609375 141.898438 289.117188 C 141.527344 289.539062 141.171875 289.972656 140.8125 290.398438 C 140.6875 290.503906 140.5625 290.605469 140.4375 290.710938 C 140.09375 290.929688 139.75 291.152344 139.40625 291.371094 C 137.949219 291.460938 136.523438 291.914062 135.042969 291.761719 C 134.566406 292.15625 133.980469 292.058594 133.425781 292.125 C 133.027344 292.171875 132.589844 292.246094 132.570312 292.753906 C 132.550781 293.277344 132.996094 293.40625 133.390625 293.414062 C 134.289062 293.429688 135.191406 293.40625 136.085938 293.351562 C 136.621094 293.320312 137.359375 292.929688 137.496094 293.722656 C 137.628906 294.5 136.765625 294.378906 136.285156 294.589844 C 135.339844 294.996094 134.238281 294.550781 133.332031 295.144531 C 133.226562 295.144531 133.117188 295.148438 133.011719 295.15625 C 132.105469 295.222656 131.152344 294.933594 130.300781 295.492188 L 130.296875 295.492188 C 129.277344 295.582031 128.210938 295.25 127.246094 295.824219 C 126.871094 295.84375 126.464844 295.789062 126.15625 296.039062 C 125.808594 296.316406 125.664062 296.640625 126.230469 296.871094 C 127.3125 297.46875 128.492188 297.074219 129.621094 297.207031 C 129.625 297.203125 129.625 297.195312 129.625 297.191406 C 129.628906 297.195312 129.628906 297.195312 129.632812 297.195312 C 129.632812 297.195312 129.621094 297.207031 129.621094 297.207031 C 129.734375 297.320312 129.847656 297.429688 129.960938 297.542969 L 129.972656 297.53125 C 129.976562 297.53125 129.976562 297.53125 129.976562 297.535156 C 129.972656 297.535156 129.964844 297.539062 129.960938 297.542969 C 130.015625 297.996094 130.230469 298.347656 130.632812 298.570312 C 130.636719 298.679688 130.640625 298.789062 130.644531 298.898438 C 130.960938 298.90625 131.277344 298.910156 131.589844 298.914062 C 131.582031 298.933594 131.570312 298.953125 131.5625 298.972656 C 131.605469 299.058594 131.652344 299.140625 131.695312 299.222656 C 131.910156 299.226562 132.121094 299.234375 132.335938 299.238281 C 135.492188 299.238281 138.648438 299.234375 141.804688 299.234375 C 141.863281 299.117188 141.882812 299.007812 141.863281 298.902344 C 141.957031 298.898438 142.050781 298.894531 142.148438 298.894531 C 144.558594 298.894531 146.972656 298.914062 149.382812 298.878906 C 150.042969 298.871094 150.925781 299.082031 150.90625 297.878906 C 150.902344 297.582031 151.316406 297.554688 151.597656 297.550781 C 153.050781 297.535156 154.46875 297.054688 155.941406 297.191406 C 156.445312 297.238281 156.957031 297.203125 157.382812 296.859375 C 159.09375 297.019531 160.753906 296.394531 162.460938 296.53125 C 163.476562 296.394531 164.542969 296.742188 165.511719 296.195312 C 168.757812 296.261719 171.992188 295.953125 175.230469 295.871094 C 176.816406 295.832031 178.402344 295.820312 179.984375 295.824219 C 181.550781 296.269531 183.304688 296.390625 184.96875 295.839844 C 185.25 295.839844 185.53125 295.839844 185.8125 295.839844 C 185.8125 295.726562 185.8125 295.609375 185.808594 295.496094 C 186.695312 295.390625 187.761719 295.855469 188.304688 294.65625 C 188.359375 294.53125 188.714844 294.488281 188.925781 294.496094 C 191.957031 294.605469 194.960938 293.90625 197.996094 294.144531 C 200.113281 293.671875 202.265625 293.898438 204.402344 293.78125 C 204.425781 293.875 204.472656 293.972656 204.546875 294.085938 C 205.164062 294.636719 205.917969 294.574219 206.628906 294.457031 C 211.328125 293.683594 216.089844 293.558594 220.816406 293.367188 C 226.867188 293.121094 232.925781 292.710938 238.992188 292.941406 C 239.324219 292.953125 239.671875 293.003906 239.964844 292.769531 C 242.328125 292.765625 244.699219 292.511719 247.046875 292.507812 C 253.359375 292.5 259.660156 292.09375 265.96875 292.046875 C 267.792969 292.03125 269.671875 291.976562 271.464844 291.441406 C 271.792969 291.429688 272.121094 291.417969 272.449219 291.40625 C 272.472656 290.917969 272.507812 290.433594 272.140625 290.035156 " fill-opacity="1" fill-rule="nonzero"></path></g><path fill="#fcca29" d="M 120.425781 267.085938 C 120.859375 267.035156 121.210938 266.898438 121.148438 266.21875 C 121.082031 265.519531 120.738281 265.550781 120.277344 265.5625 C 117.972656 265.617188 115.742188 266.164062 113.5 266.613281 C 113.359375 266.640625 113.242188 266.792969 112.839844 267.089844 C 115.570312 267.703125 118 267.363281 120.425781 267.085938 " fill-opacity="1" fill-rule="nonzero"></path><g fill="#000000" fill-opacity="1"><g transform="translate(144.176538, 243.652909)"><g><path d="M 7.171875 -18.90625 L 7.171875 -12.09375 L 17.984375 -12.09375 L 17.984375 -8.578125 L 7.171875 -8.578125 L 7.171875 0 L 3.015625 0 L 3.015625 -22.40625 L 19.359375 -22.40625 L 19.359375 -18.90625 Z M 7.171875 -18.90625 "></path></g></g></g><g fill="#000000" fill-opacity="1"><g transform="translate(164.555524, 243.652909)"><g><path d="M 17.65625 0 L 13.09375 -6.5625 C 12.894531 -6.539062 12.601562 -6.53125 12.21875 -6.53125 L 7.171875 -6.53125 L 7.171875 0 L 3.015625 0 L 3.015625 -22.40625 L 12.21875 -22.40625 C 14.164062 -22.40625 15.859375 -22.082031 17.296875 -21.4375 C 18.734375 -20.800781 19.835938 -19.882812 20.609375 -18.6875 C 21.378906 -17.488281 21.765625 -16.070312 21.765625 -14.4375 C 21.765625 -12.75 21.351562 -11.296875 20.53125 -10.078125 C 19.707031 -8.859375 18.523438 -7.953125 16.984375 -7.359375 L 22.140625 0 Z M 17.5625 -14.4375 C 17.5625 -15.863281 17.09375 -16.957031 16.15625 -17.71875 C 15.21875 -18.488281 13.84375 -18.875 12.03125 -18.875 L 7.171875 -18.875 L 7.171875 -9.953125 L 12.03125 -9.953125 C 13.84375 -9.953125 15.21875 -10.335938 16.15625 -11.109375 C 17.09375 -11.890625 17.5625 -13 17.5625 -14.4375 Z M 17.5625 -14.4375 "></path></g></g></g><g fill="#000000" fill-opacity="1"><g transform="translate(187.941775, 243.652909)"><g><path d="M 19.8125 -3.484375 L 19.8125 0 L 3.015625 0 L 3.015625 -22.40625 L 19.359375 -22.40625 L 19.359375 -18.90625 L 7.171875 -18.90625 L 7.171875 -13.09375 L 17.984375 -13.09375 L 17.984375 -9.65625 L 7.171875 -9.65625 L 7.171875 -3.484375 Z M 19.8125 -3.484375 "></path></g></g></g><g fill="#000000" fill-opacity="1"><g transform="translate(209.376501, 243.652909)"><g><path d="M 19.8125 -3.484375 L 19.8125 0 L 3.015625 0 L 3.015625 -22.40625 L 19.359375 -22.40625 L 19.359375 -18.90625 L 7.171875 -18.90625 L 7.171875 -13.09375 L 17.984375 -13.09375 L 17.984375 -9.65625 L 7.171875 -9.65625 L 7.171875 -3.484375 Z M 19.8125 -3.484375 "></path></g></g></g><g fill="#000000" fill-opacity="1"><g transform="translate(105.743897, 277.196804)"><g><path d="M 9.953125 0.3125 C 8.222656 0.3125 6.550781 0.0664062 4.9375 -0.421875 C 3.332031 -0.910156 2.0625 -1.5625 1.125 -2.375 L 2.5625 -5.59375 C 3.476562 -4.875 4.601562 -4.285156 5.9375 -3.828125 C 7.269531 -3.367188 8.609375 -3.140625 9.953125 -3.140625 C 11.617188 -3.140625 12.859375 -3.40625 13.671875 -3.9375 C 14.492188 -4.46875 14.90625 -5.171875 14.90625 -6.046875 C 14.90625 -6.691406 14.675781 -7.21875 14.21875 -7.625 C 13.757812 -8.039062 13.175781 -8.363281 12.46875 -8.59375 C 11.769531 -8.832031 10.8125 -9.101562 9.59375 -9.40625 C 7.894531 -9.8125 6.515625 -10.21875 5.453125 -10.625 C 4.398438 -11.03125 3.492188 -11.664062 2.734375 -12.53125 C 1.972656 -13.394531 1.59375 -14.5625 1.59375 -16.03125 C 1.59375 -17.269531 1.925781 -18.394531 2.59375 -19.40625 C 3.269531 -20.414062 4.285156 -21.21875 5.640625 -21.8125 C 7.003906 -22.414062 8.664062 -22.71875 10.625 -22.71875 C 11.988281 -22.71875 13.332031 -22.546875 14.65625 -22.203125 C 15.976562 -21.867188 17.117188 -21.378906 18.078125 -20.734375 L 16.765625 -17.5 C 15.785156 -18.082031 14.757812 -18.519531 13.6875 -18.8125 C 12.625 -19.113281 11.59375 -19.265625 10.59375 -19.265625 C 8.945312 -19.265625 7.722656 -18.984375 6.921875 -18.421875 C 6.128906 -17.867188 5.734375 -17.132812 5.734375 -16.21875 C 5.734375 -15.582031 5.960938 -15.0625 6.421875 -14.65625 C 6.878906 -14.25 7.457031 -13.925781 8.15625 -13.6875 C 8.863281 -13.457031 9.828125 -13.191406 11.046875 -12.890625 C 12.703125 -12.503906 14.0625 -12.101562 15.125 -11.6875 C 16.195312 -11.28125 17.113281 -10.648438 17.875 -9.796875 C 18.632812 -8.941406 19.015625 -7.789062 19.015625 -6.34375 C 19.015625 -5.101562 18.675781 -3.976562 18 -2.96875 C 17.320312 -1.96875 16.300781 -1.171875 14.9375 -0.578125 C 13.570312 0.015625 11.910156 0.3125 9.953125 0.3125 Z M 9.953125 0.3125 "></path></g></g></g><g fill="#000000" fill-opacity="1"><g transform="translate(125.866947, 277.196804)"><g><path d="M 22.90625 -22.40625 L 22.90625 0 L 18.75 0 L 18.75 -9.59375 L 7.171875 -9.59375 L 7.171875 0 L 3.015625 0 L 3.015625 -22.40625 L 7.171875 -22.40625 L 7.171875 -13.15625 L 18.75 -13.15625 L 18.75 -22.40625 Z M 22.90625 -22.40625 "></path></g></g></g><g fill="#000000" fill-opacity="1"><g transform="translate(151.78058, 277.196804)"><g><path d="M 3.015625 -22.40625 L 7.171875 -22.40625 L 7.171875 0 L 3.015625 0 Z M 3.015625 -22.40625 "></path></g></g></g><g fill="#000000" fill-opacity="1"><g transform="translate(161.986066, 277.196804)"><g><path d="M 12.21875 -22.40625 C 14.164062 -22.40625 15.859375 -22.082031 17.296875 -21.4375 C 18.734375 -20.800781 19.835938 -19.882812 20.609375 -18.6875 C 21.378906 -17.488281 21.765625 -16.070312 21.765625 -14.4375 C 21.765625 -12.8125 21.378906 -11.394531 20.609375 -10.1875 C 19.835938 -8.988281 18.734375 -8.066406 17.296875 -7.421875 C 15.859375 -6.785156 14.164062 -6.46875 12.21875 -6.46875 L 7.171875 -6.46875 L 7.171875 0 L 3.015625 0 L 3.015625 -22.40625 Z M 12.03125 -9.984375 C 13.84375 -9.984375 15.21875 -10.363281 16.15625 -11.125 C 17.09375 -11.894531 17.5625 -13 17.5625 -14.4375 C 17.5625 -15.863281 17.09375 -16.957031 16.15625 -17.71875 C 15.21875 -18.488281 13.84375 -18.875 12.03125 -18.875 L 7.171875 -18.875 L 7.171875 -9.984375 Z M 12.03125 -9.984375 "></path></g></g></g><g fill="#000000" fill-opacity="1"><g transform="translate(185.212352, 277.196804)"><g><path d="M 12.21875 -22.40625 C 14.164062 -22.40625 15.859375 -22.082031 17.296875 -21.4375 C 18.734375 -20.800781 19.835938 -19.882812 20.609375 -18.6875 C 21.378906 -17.488281 21.765625 -16.070312 21.765625 -14.4375 C 21.765625 -12.8125 21.378906 -11.394531 20.609375 -10.1875 C 19.835938 -8.988281 18.734375 -8.066406 17.296875 -7.421875 C 15.859375 -6.785156 14.164062 -6.46875 12.21875 -6.46875 L 7.171875 -6.46875 L 7.171875 0 L 3.015625 0 L 3.015625 -22.40625 Z M 12.03125 -9.984375 C 13.84375 -9.984375 15.21875 -10.363281 16.15625 -11.125 C 17.09375 -11.894531 17.5625 -13 17.5625 -14.4375 C 17.5625 -15.863281 17.09375 -16.957031 16.15625 -17.71875 C 15.21875 -18.488281 13.84375 -18.875 12.03125 -18.875 L 7.171875 -18.875 L 7.171875 -9.984375 Z M 12.03125 -9.984375 "></path></g></g></g><g fill="#000000" fill-opacity="1"><g transform="translate(208.438639, 277.196804)"><g><path d="M 3.015625 -22.40625 L 7.171875 -22.40625 L 7.171875 0 L 3.015625 0 Z M 3.015625 -22.40625 "></path></g></g></g><g fill="#000000" fill-opacity="1"><g transform="translate(218.644125, 277.196804)"><g><path d="M 22.90625 -22.40625 L 22.90625 0 L 19.484375 0 L 7.140625 -15.171875 L 7.140625 0 L 3.015625 0 L 3.015625 -22.40625 L 6.4375 -22.40625 L 18.78125 -7.234375 L 18.78125 -22.40625 Z M 22.90625 -22.40625 "></path></g></g></g><g fill="#000000" fill-opacity="1"><g transform="translate(244.557758, 277.196804)"><g><path d="M 18.296875 -11.453125 L 22.234375 -11.453125 L 22.234375 -2.53125 C 21.085938 -1.613281 19.742188 -0.910156 18.203125 -0.421875 C 16.671875 0.0664062 15.09375 0.3125 13.46875 0.3125 C 11.1875 0.3125 9.128906 -0.179688 7.296875 -1.171875 C 5.460938 -2.160156 4.019531 -3.53125 2.96875 -5.28125 C 1.925781 -7.03125 1.40625 -9.003906 1.40625 -11.203125 C 1.40625 -13.398438 1.925781 -15.375 2.96875 -17.125 C 4.019531 -18.875 5.46875 -20.242188 7.3125 -21.234375 C 9.15625 -22.222656 11.226562 -22.71875 13.53125 -22.71875 C 15.414062 -22.71875 17.125 -22.40625 18.65625 -21.78125 C 20.1875 -21.164062 21.476562 -20.265625 22.53125 -19.078125 L 19.90625 -16.515625 C 18.195312 -18.222656 16.140625 -19.078125 13.734375 -19.078125 C 12.148438 -19.078125 10.742188 -18.742188 9.515625 -18.078125 C 8.296875 -17.421875 7.335938 -16.492188 6.640625 -15.296875 C 5.941406 -14.097656 5.59375 -12.734375 5.59375 -11.203125 C 5.59375 -9.703125 5.941406 -8.351562 6.640625 -7.15625 C 7.335938 -5.96875 8.296875 -5.03125 9.515625 -4.34375 C 10.742188 -3.664062 12.140625 -3.328125 13.703125 -3.328125 C 15.441406 -3.328125 16.972656 -3.710938 18.296875 -4.484375 Z M 18.296875 -11.453125 "></path></g></g></g><g fill="#000000" fill-opacity="1"><g transform="translate(134.6996, 307.071366)"><g><path d="M 5.640625 -9.640625 C 7.109375 -9.640625 8.304688 -9.191406 9.234375 -8.296875 C 10.160156 -7.410156 10.625 -6.238281 10.625 -4.78125 C 10.625 -3.34375 10.160156 -2.171875 9.234375 -1.265625 C 8.304688 -0.367188 7.109375 0.078125 5.640625 0.078125 C 4.148438 0.078125 2.941406 -0.367188 2.015625 -1.265625 C 1.085938 -2.171875 0.625 -3.34375 0.625 -4.78125 C 0.625 -6.238281 1.085938 -7.410156 2.015625 -8.296875 C 2.941406 -9.191406 4.148438 -9.640625 5.640625 -9.640625 Z M 5.640625 -7.859375 C 4.773438 -7.859375 4.066406 -7.570312 3.515625 -7 C 2.972656 -6.425781 2.703125 -5.679688 2.703125 -4.765625 C 2.703125 -3.847656 2.972656 -3.097656 3.515625 -2.515625 C 4.066406 -1.941406 4.773438 -1.65625 5.640625 -1.65625 C 6.503906 -1.65625 7.203125 -1.941406 7.734375 -2.515625 C 8.273438 -3.097656 8.546875 -3.847656 8.546875 -4.765625 C 8.546875 -5.679688 8.269531 -6.425781 7.71875 -7 C 7.175781 -7.570312 6.484375 -7.859375 5.640625 -7.859375 Z M 5.640625 -7.859375 "></path></g></g></g><g fill="#000000" fill-opacity="1"><g transform="translate(145.949565, 307.071366)"><g><path d="M 5.875 0 L 3.71875 0 L 0.015625 -9.578125 L 2.171875 -9.578125 L 4.84375 -2.03125 L 7.46875 -9.578125 L 9.546875 -9.578125 Z M 5.875 0 "></path></g></g></g><g fill="#000000" fill-opacity="1"><g transform="translate(155.399534, 307.071366)"><g><path d="M 5.46875 -9.640625 C 7.113281 -9.640625 8.304688 -9.144531 9.046875 -8.15625 C 9.785156 -7.164062 10.085938 -5.78125 9.953125 -4 L 2.71875 -4 C 2.882812 -3.25 3.226562 -2.660156 3.75 -2.234375 C 4.28125 -1.816406 4.925781 -1.609375 5.6875 -1.609375 C 6.769531 -1.609375 7.671875 -1.976562 8.390625 -2.71875 L 9.484375 -1.546875 C 8.503906 -0.460938 7.1875 0.078125 5.53125 0.078125 C 4.050781 0.078125 2.863281 -0.367188 1.96875 -1.265625 C 1.070312 -2.160156 0.625 -3.328125 0.625 -4.765625 C 0.625 -6.210938 1.070312 -7.382812 1.96875 -8.28125 C 2.875 -9.175781 4.039062 -9.628906 5.46875 -9.640625 Z M 2.6875 -5.515625 L 8.15625 -5.515625 C 8.113281 -6.273438 7.851562 -6.875 7.375 -7.3125 C 6.894531 -7.757812 6.265625 -7.984375 5.484375 -7.984375 C 4.734375 -7.984375 4.109375 -7.757812 3.609375 -7.3125 C 3.109375 -6.875 2.800781 -6.273438 2.6875 -5.515625 Z M 2.6875 -5.515625 "></path></g></g></g><g fill="#000000" fill-opacity="1"><g transform="translate(165.983499, 307.071366)"><g><path d="M 3.59375 -9.578125 L 3.59375 -7.671875 C 4.257812 -8.984375 5.363281 -9.640625 6.90625 -9.640625 L 6.90625 -7.671875 C 5.957031 -7.710938 5.1875 -7.488281 4.59375 -7 C 4.007812 -6.507812 3.675781 -5.84375 3.59375 -5 L 3.59375 0 L 1.53125 0 L 1.53125 -9.578125 Z M 3.59375 -9.578125 "></path></g></g></g><g fill="#000000" fill-opacity="1"><g transform="translate(173.075482, 307.071366)"><g></g></g></g><g fill="#000000" fill-opacity="1"><g transform="translate(177.719472, 307.071366)"><g><path d="M 9.640625 0 L 7.34375 -3.8125 C 7.21875 -3.800781 7.023438 -3.796875 6.765625 -3.796875 L 3.78125 -3.796875 L 3.78125 0 L 1.65625 0 L 1.65625 -12.59375 L 6.765625 -12.59375 C 8.378906 -12.59375 9.628906 -12.21875 10.515625 -11.46875 C 11.398438 -10.71875 11.84375 -9.660156 11.84375 -8.296875 C 11.84375 -7.285156 11.617188 -6.429688 11.171875 -5.734375 C 10.722656 -5.046875 10.078125 -4.539062 9.234375 -4.21875 L 12.0625 0 Z M 3.78125 -5.703125 L 6.765625 -5.703125 C 8.804688 -5.703125 9.828125 -6.550781 9.828125 -8.25 C 9.828125 -9.875 8.804688 -10.6875 6.765625 -10.6875 L 3.78125 -10.6875 Z M 3.78125 -5.703125 "></path></g></g></g><g fill="#000000" fill-opacity="1"><g transform="translate(190.733429, 307.071366)"><g><path d="M 4.390625 -9.671875 C 5.710938 -9.671875 6.828125 -9.34375 7.734375 -8.6875 L 6.984375 -7.15625 C 6.066406 -7.726562 5.148438 -8.015625 4.234375 -8.015625 C 3.296875 -8.015625 2.828125 -7.695312 2.828125 -7.0625 C 2.828125 -6.75 3 -6.488281 3.34375 -6.28125 C 3.695312 -6.070312 4.117188 -5.898438 4.609375 -5.765625 C 5.109375 -5.628906 5.609375 -5.46875 6.109375 -5.28125 C 6.609375 -5.09375 7.03125 -4.789062 7.375 -4.375 C 7.726562 -3.957031 7.90625 -3.421875 7.90625 -2.765625 C 7.90625 -1.847656 7.550781 -1.144531 6.84375 -0.65625 C 6.144531 -0.164062 5.273438 0.078125 4.234375 0.078125 C 3.515625 0.078125 2.804688 -0.0351562 2.109375 -0.265625 C 1.421875 -0.503906 0.84375 -0.835938 0.375 -1.265625 L 1.109375 -2.734375 C 1.523438 -2.378906 2.03125 -2.09375 2.625 -1.875 C 3.21875 -1.65625 3.78125 -1.546875 4.3125 -1.546875 C 4.78125 -1.546875 5.160156 -1.628906 5.453125 -1.796875 C 5.742188 -1.960938 5.890625 -2.222656 5.890625 -2.578125 C 5.890625 -2.929688 5.710938 -3.21875 5.359375 -3.4375 C 5.015625 -3.65625 4.59375 -3.828125 4.09375 -3.953125 C 3.601562 -4.085938 3.113281 -4.242188 2.625 -4.421875 C 2.132812 -4.609375 1.71875 -4.90625 1.375 -5.3125 C 1.03125 -5.726562 0.859375 -6.253906 0.859375 -6.890625 C 0.859375 -7.804688 1.195312 -8.5 1.875 -8.96875 C 2.550781 -9.4375 3.390625 -9.671875 4.390625 -9.671875 Z M 4.390625 -9.671875 "></path></g></g></g><g fill="#000000" fill-opacity="1"><g transform="translate(199.193404, 307.071366)"><g><path d="M 1.140625 -1.875 C 1.359375 -2.101562 1.628906 -2.21875 1.953125 -2.21875 C 2.285156 -2.21875 2.554688 -2.101562 2.765625 -1.875 C 2.984375 -1.65625 3.09375 -1.378906 3.09375 -1.046875 C 3.09375 -0.691406 2.984375 -0.398438 2.765625 -0.171875 C 2.554688 0.046875 2.285156 0.15625 1.953125 0.15625 C 1.628906 0.15625 1.359375 0.046875 1.140625 -0.171875 C 0.929688 -0.398438 0.828125 -0.691406 0.828125 -1.046875 C 0.828125 -1.378906 0.929688 -1.65625 1.140625 -1.875 Z M 1.140625 -1.875 "></path></g></g></g><g fill="#000000" fill-opacity="1"><g transform="translate(203.117389, 307.071366)"><g></g></g></g><g fill="#000000" fill-opacity="1"><g transform="translate(207.761378, 307.071366)"><g><path d="M 9.109375 -10.6875 L 3.390625 -10.6875 L 3.390625 -7.96875 L 5.109375 -7.984375 C 6.460938 -7.984375 7.550781 -7.625 8.375 -6.90625 C 9.195312 -6.1875 9.609375 -5.269531 9.609375 -4.15625 C 9.609375 -2.875 9.1875 -1.847656 8.34375 -1.078125 C 7.5 -0.304688 6.367188 0.078125 4.953125 0.078125 C 4.203125 0.078125 3.421875 -0.0507812 2.609375 -0.3125 C 1.804688 -0.582031 1.09375 -0.9375 0.46875 -1.375 L 1.3125 -3.09375 C 2.363281 -2.207031 3.5 -1.765625 4.71875 -1.765625 C 5.53125 -1.765625 6.171875 -1.960938 6.640625 -2.359375 C 7.109375 -2.765625 7.34375 -3.320312 7.34375 -4.03125 C 7.34375 -4.664062 7.109375 -5.171875 6.640625 -5.546875 C 6.171875 -5.921875 5.535156 -6.109375 4.734375 -6.109375 C 3.546875 -6.109375 2.441406 -6.050781 1.421875 -5.9375 L 1.421875 -12.59375 L 9.09375 -12.59375 Z M 9.109375 -10.6875 "></path></g></g></g><g fill="#000000" fill-opacity="1"><g transform="translate(218.147348, 307.071366)"><g><path d="M 4.875 0.09375 C 3.5 0.09375 2.242188 -0.222656 1.109375 -0.859375 L 1.9375 -2.46875 C 2.757812 -1.9375 3.691406 -1.671875 4.734375 -1.671875 C 5.921875 -1.671875 6.8125 -2.078125 7.40625 -2.890625 C 8 -3.710938 8.28125 -4.828125 8.25 -6.234375 C 7.570312 -5.046875 6.425781 -4.453125 4.8125 -4.453125 C 3.550781 -4.453125 2.554688 -4.8125 1.828125 -5.53125 C 1.109375 -6.257812 0.75 -7.234375 0.75 -8.453125 C 0.75 -9.753906 1.148438 -10.785156 1.953125 -11.546875 C 2.765625 -12.304688 3.84375 -12.6875 5.1875 -12.6875 C 6.78125 -12.6875 8.03125 -12.144531 8.9375 -11.0625 C 9.851562 -9.988281 10.3125 -8.484375 10.3125 -6.546875 C 10.3125 -4.535156 9.816406 -2.925781 8.828125 -1.71875 C 7.847656 -0.507812 6.53125 0.09375 4.875 0.09375 Z M 5.203125 -6.125 C 6.023438 -6.125 6.679688 -6.351562 7.171875 -6.8125 C 7.671875 -7.269531 7.914062 -7.835938 7.90625 -8.515625 C 7.914062 -9.128906 7.691406 -9.671875 7.234375 -10.140625 C 6.785156 -10.617188 6.140625 -10.859375 5.296875 -10.859375 C 4.515625 -10.859375 3.890625 -10.644531 3.421875 -10.21875 C 2.960938 -9.789062 2.734375 -9.195312 2.734375 -8.4375 C 2.734375 -7.71875 2.953125 -7.148438 3.390625 -6.734375 C 3.828125 -6.328125 4.429688 -6.125 5.203125 -6.125 Z M 5.203125 -6.125 "></path></g></g></g><g fill="#000000" fill-opacity="1"><g transform="translate(229.217321, 307.071366)"><g><path d="M 4.875 0.09375 C 3.5 0.09375 2.242188 -0.222656 1.109375 -0.859375 L 1.9375 -2.46875 C 2.757812 -1.9375 3.691406 -1.671875 4.734375 -1.671875 C 5.921875 -1.671875 6.8125 -2.078125 7.40625 -2.890625 C 8 -3.710938 8.28125 -4.828125 8.25 -6.234375 C 7.570312 -5.046875 6.425781 -4.453125 4.8125 -4.453125 C 3.550781 -4.453125 2.554688 -4.8125 1.828125 -5.53125 C 1.109375 -6.257812 0.75 -7.234375 0.75 -8.453125 C 0.75 -9.753906 1.148438 -10.785156 1.953125 -11.546875 C 2.765625 -12.304688 3.84375 -12.6875 5.1875 -12.6875 C 6.78125 -12.6875 8.03125 -12.144531 8.9375 -11.0625 C 9.851562 -9.988281 10.3125 -8.484375 10.3125 -6.546875 C 10.3125 -4.535156 9.816406 -2.925781 8.828125 -1.71875 C 7.847656 -0.507812 6.53125 0.09375 4.875 0.09375 Z M 5.203125 -6.125 C 6.023438 -6.125 6.679688 -6.351562 7.171875 -6.8125 C 7.671875 -7.269531 7.914062 -7.835938 7.90625 -8.515625 C 7.914062 -9.128906 7.691406 -9.671875 7.234375 -10.140625 C 6.785156 -10.617188 6.140625 -10.859375 5.296875 -10.859375 C 4.515625 -10.859375 3.890625 -10.644531 3.421875 -10.21875 C 2.960938 -9.789062 2.734375 -9.195312 2.734375 -8.4375 C 2.734375 -7.71875 2.953125 -7.148438 3.390625 -6.734375 C 3.828125 -6.328125 4.429688 -6.125 5.203125 -6.125 Z M 5.203125 -6.125 "></path></g></g></g></svg>