<?xml version="1.0" standalone="no"?>
<!DOCTYPE svg PUBLIC "-//W3C//DTD SVG 20010904//EN"
 "http://www.w3.org/TR/2001/REC-SVG-20010904/DTD/svg10.dtd">
<svg version="1.0" xmlns="http://www.w3.org/2000/svg"
 width="500.000000pt" height="500.000000pt" viewBox="0 0 500.000000 500.000000"
 preserveAspectRatio="xMidYMid meet">

<g transform="translate(0.000000,500.000000) scale(0.100000,-0.100000)"
fill="#000000" stroke="none">
<path d="M1534 3484 c-72 -26 -154 -110 -154 -158 0 -23 29 -46 59 -46 19 0
40 13 71 45 34 35 55 47 95 55 35 7 292 10 786 8 801 -3 761 0 816 -60 54 -58
53 -41 53 -803 l0 -705 -394 0 -394 0 -7 55 c-14 113 -93 222 -194 268 -71 33
-189 30 -258 -6 -101 -52 -170 -151 -182 -257 l-6 -55 -116 0 c-114 0 -118 1
-168 33 -60 37 -81 40 -104 14 -41 -45 -4 -103 91 -143 36 -16 69 -19 180 -19
l137 0 24 -46 c32 -60 110 -128 168 -148 65 -22 160 -20 227 5 64 23 134 87
165 148 l21 41 578 0 577 0 45 -66 c65 -95 133 -136 239 -142 134 -8 223 39
298 155 l34 53 58 0 c74 0 132 29 175 88 l31 44 3 331 c2 218 -1 345 -8 369
-13 45 -311 542 -348 581 -15 16 -45 39 -67 50 -38 21 -56 22 -365 27 l-325 5
-6 46 c-13 90 -76 175 -163 222 l-41 22 -795 2 c-678 1 -801 -1 -836 -13z
m2456 -410 c49 -10 78 -49 221 -289 152 -255 169 -287 169 -315 0 -20 -5 -20
-265 -20 l-265 0 0 220 c0 207 -1 221 -20 240 -24 24 -47 25 -72 3 -17 -15
-18 -37 -18 -284 0 -265 0 -268 22 -283 19 -14 67 -16 320 -16 l298 0 0 -219
0 -219 -25 -30 c-17 -21 -38 -33 -66 -37 -22 -4 -42 -5 -45 -2 -3 2 -9 29 -14
59 -18 115 -81 202 -182 255 -45 23 -65 27 -133 27 -67 0 -89 -4 -137 -27 -97
-47 -171 -154 -185 -266 l-6 -51 -103 0 -104 0 0 630 0 630 289 0 c159 0 303
-3 321 -6z m-1787 -1035 c120 -33 187 -192 129 -305 -37 -72 -115 -124 -186
-124 -44 0 -104 27 -142 65 -104 104 -76 281 55 348 59 29 86 32 144 16z
m1771 -1 c53 -16 118 -81 134 -134 35 -117 -9 -222 -112 -270 -79 -37 -149
-27 -213 29 -121 107 -86 317 62 371 50 18 77 19 129 4z"/>
<path d="M907 3132 c-21 -23 -22 -52 -3 -77 12 -16 30 -20 112 -23 86 -4 102
-2 123 15 26 21 31 64 11 88 -10 12 -36 15 -120 15 -91 0 -109 -3 -123 -18z"/>
<path d="M1291 3136 c-7 -8 -11 -30 -9 -48 5 -56 19 -58 341 -56 273 3 289 4
303 22 19 27 18 60 -4 79 -16 15 -53 17 -319 17 -249 0 -303 -2 -312 -14z"/>
<path d="M2240 2755 l0 -135 25 0 c23 0 25 3 25 50 l0 50 65 0 c63 0 65 1 65
25 0 24 -2 25 -65 25 l-65 0 0 40 0 40 75 0 c68 0 75 2 75 20 0 19 -7 20 -100
20 l-100 0 0 -135z"/>
<path d="M2480 2756 l0 -136 24 0 c21 0 25 5 28 38 3 34 6 37 35 40 28 3 36
-2 60 -37 21 -30 35 -40 56 -41 30 0 29 8 -11 58 -18 24 -18 24 10 52 37 38
37 79 0 122 -28 30 -33 32 -115 36 l-87 5 0 -137z m161 76 c4 -4 10 -17 13
-29 11 -35 -24 -63 -79 -63 l-45 0 0 48 c0 27 3 52 8 56 8 9 93 -1 103 -12z"/>
<path d="M2760 2755 l0 -135 105 0 c98 0 105 1 105 20 0 17 -8 19 -77 22 l-78
3 -3 33 -3 32 65 0 c64 0 66 1 66 25 0 24 -2 25 -63 25 l-64 0 1 33 1 32 73 3
c64 3 72 5 72 22 0 19 -7 20 -100 20 l-100 0 0 -135z"/>
<path d="M3020 2755 l0 -135 100 0 c93 0 100 1 100 20 0 18 -7 20 -75 20 l-75
0 0 35 0 34 63 3 c56 3 62 5 65 26 3 21 0 22 -62 22 l-66 0 0 35 0 35 70 0
c63 0 70 2 70 20 0 19 -7 20 -95 20 l-95 0 0 -135z"/>
<path d="M1067 2811 c-38 -11 -49 -69 -17 -101 19 -19 33 -20 290 -20 178 0
277 4 294 11 32 15 42 54 21 85 l-15 23 -280 3 c-154 2 -286 1 -293 -1z"/>
<path d="M1328 2550 c-24 -25 -29 -36 -23 -58 9 -39 25 -51 91 -71 45 -13 60
-22 62 -38 4 -28 -41 -38 -97 -23 -43 11 -61 7 -61 -14 0 -20 46 -36 104 -36
69 0 106 26 106 75 0 24 -7 39 -26 54 -15 12 -32 21 -38 21 -6 0 -28 5 -48 11
-31 8 -38 15 -38 34 0 36 47 45 113 19 8 -3 17 2 21 13 11 27 -20 43 -82 43
-46 0 -58 -4 -84 -30z"/>
<path d="M1560 2445 l0 -135 25 0 c24 0 25 3 25 55 l0 55 70 0 70 0 0 -55 c0
-52 1 -55 25 -55 l25 0 0 135 0 135 -25 0 c-24 0 -25 -3 -25 -55 l0 -55 -70 0
-70 0 0 55 c0 52 -1 55 -25 55 l-25 0 0 -135z"/>
<path d="M1870 2445 l0 -135 25 0 25 0 0 135 0 135 -25 0 -25 0 0 -135z"/>
<path d="M1990 2445 l0 -135 24 0 c21 0 25 5 28 38 l3 37 61 5 c71 6 100 26
109 74 15 78 -36 116 -155 116 l-70 0 0 -135z m156 77 c6 -4 14 -17 18 -29 11
-35 -24 -63 -79 -63 l-45 0 0 50 0 50 48 0 c26 0 52 -4 58 -8z"/>
<path d="M2270 2446 l0 -136 25 0 c23 0 25 4 25 40 l0 40 49 0 c67 0 97 13
116 50 20 39 13 79 -21 111 -22 21 -38 25 -110 28 l-84 3 0 -136z m158 72 c19
-19 15 -66 -7 -78 -11 -5 -38 -10 -60 -10 l-41 0 0 50 0 50 48 0 c26 0 53 -5
60 -12z"/>
<path d="M2550 2445 l0 -135 25 0 25 0 0 135 0 135 -25 0 -25 0 0 -135z"/>
<path d="M2670 2445 l0 -135 25 0 c24 0 24 2 27 86 l3 87 70 -86 c50 -61 77
-86 93 -87 22 0 22 2 22 135 l0 135 -25 0 c-25 0 -25 -1 -25 -91 l0 -91 -72
90 c-52 65 -80 91 -95 91 -23 1 -23 0 -23 -134z"/>
<path d="M3031 2562 c-90 -48 -93 -178 -7 -232 31 -18 48 -22 96 -18 77 6 90
17 90 84 0 51 -1 54 -25 54 -23 0 -25 -4 -25 -45 0 -39 -3 -45 -25 -51 -52
-13 -108 20 -121 70 -3 14 1 39 11 60 23 48 77 66 125 42 25 -12 36 -13 46 -5
21 17 17 27 -16 44 -39 20 -108 19 -149 -3z"/>
<path d="M516 2448 c-22 -31 -20 -45 9 -73 20 -21 34 -25 82 -25 73 0 103 18
103 64 0 48 -15 56 -101 56 -69 0 -80 -3 -93 -22z"/>
<path d="M1036 2114 c-24 -23 -20 -70 6 -88 19 -14 66 -16 308 -16 316 0 330
3 330 60 0 60 -2 60 -330 60 -258 0 -301 -2 -314 -16z"/>
</g>
</svg>
